<svg id="my-svg" width="100%" xmlns="http://www.w3.org/2000/svg" xmlns:xlink="http://www.w3.org/1999/xlink" class="flowchart" style="max-width: 2533.04px; background-color: white;" viewBox="0 -50 2533.04296875 1886.85302734375" role="graphics-document document" aria-roledescription="flowchart-v2"><style>#my-svg{font-family:"trebuchet ms",verdana,arial,sans-serif;font-size:16px;fill:#333;}@keyframes edge-animation-frame{from{stroke-dashoffset:0;}}@keyframes dash{to{stroke-dashoffset:0;}}#my-svg .edge-animation-slow{stroke-dasharray:9,5!important;stroke-dashoffset:900;animation:dash 50s linear infinite;stroke-linecap:round;}#my-svg .edge-animation-fast{stroke-dasharray:9,5!important;stroke-dashoffset:900;animation:dash 20s linear infinite;stroke-linecap:round;}#my-svg .error-icon{fill:#552222;}#my-svg .error-text{fill:#552222;stroke:#552222;}#my-svg .edge-thickness-normal{stroke-width:1px;}#my-svg .edge-thickness-thick{stroke-width:3.5px;}#my-svg .edge-pattern-solid{stroke-dasharray:0;}#my-svg .edge-thickness-invisible{stroke-width:0;fill:none;}#my-svg .edge-pattern-dashed{stroke-dasharray:3;}#my-svg .edge-pattern-dotted{stroke-dasharray:2;}#my-svg .marker{fill:#333333;stroke:#333333;}#my-svg .marker.cross{stroke:#333333;}#my-svg svg{font-family:"trebuchet ms",verdana,arial,sans-serif;font-size:16px;}#my-svg p{margin:0;}#my-svg .label{font-family:"trebuchet ms",verdana,arial,sans-serif;color:#333;}#my-svg .cluster-label text{fill:#333;}#my-svg .cluster-label span{color:#333;}#my-svg .cluster-label span p{background-color:transparent;}#my-svg .label text,#my-svg span{fill:#333;color:#333;}#my-svg .node rect,#my-svg .node circle,#my-svg .node ellipse,#my-svg .node polygon,#my-svg .node path{fill:#ECECFF;stroke:#9370DB;stroke-width:1px;}#my-svg .rough-node .label text,#my-svg .node .label text,#my-svg .image-shape .label,#my-svg .icon-shape .label{text-anchor:middle;}#my-svg .node .katex path{fill:#000;stroke:#000;stroke-width:1px;}#my-svg .rough-node .label,#my-svg .node .label,#my-svg .image-shape .label,#my-svg .icon-shape .label{text-align:center;}#my-svg .node.clickable{cursor:pointer;}#my-svg .root .anchor path{fill:#333333!important;stroke-width:0;stroke:#333333;}#my-svg .arrowheadPath{fill:#333333;}#my-svg .edgePath .path{stroke:#333333;stroke-width:2.0px;}#my-svg .flowchart-link{stroke:#333333;fill:none;}#my-svg .edgeLabel{background-color:rgba(232,232,232, 0.8);text-align:center;}#my-svg .edgeLabel p{background-color:rgba(232,232,232, 0.8);}#my-svg .edgeLabel rect{opacity:0.5;background-color:rgba(232,232,232, 0.8);fill:rgba(232,232,232, 0.8);}#my-svg .labelBkg{background-color:rgba(232, 232, 232, 0.5);}#my-svg .cluster rect{fill:#ffffde;stroke:#aaaa33;stroke-width:1px;}#my-svg .cluster text{fill:#333;}#my-svg .cluster span{color:#333;}#my-svg div.mermaidTooltip{position:absolute;text-align:center;max-width:200px;padding:2px;font-family:"trebuchet ms",verdana,arial,sans-serif;font-size:12px;background:hsl(80, 100%, 96.2745098039%);border:1px solid #aaaa33;border-radius:2px;pointer-events:none;z-index:100;}#my-svg .flowchartTitleText{text-anchor:middle;font-size:18px;fill:#333;}#my-svg rect.text{fill:none;stroke-width:0;}#my-svg .icon-shape,#my-svg .image-shape{background-color:rgba(232,232,232, 0.8);text-align:center;}#my-svg .icon-shape p,#my-svg .image-shape p{background-color:rgba(232,232,232, 0.8);padding:2px;}#my-svg .icon-shape rect,#my-svg .image-shape rect{opacity:0.5;background-color:rgba(232,232,232, 0.8);fill:rgba(232,232,232, 0.8);}#my-svg .label-icon{display:inline-block;height:1em;overflow:visible;vertical-align:-0.125em;}#my-svg .node .label-icon path{fill:currentColor;stroke:revert;stroke-width:revert;}#my-svg :root{--mermaid-font-family:"trebuchet ms",verdana,arial,sans-serif;}#my-svg .public&gt;*{fill:#1168bd!important;stroke:#0e5aa7!important;color:#fff!important;stroke-width:2px!important;}#my-svg .public span{fill:#1168bd!important;stroke:#0e5aa7!important;color:#fff!important;stroke-width:2px!important;}#my-svg .public tspan{fill:#fff!important;}#my-svg .internal&gt;*{fill:#438dd5!important;stroke:#2e6da4!important;color:#fff!important;stroke-width:1.5px!important;}#my-svg .internal span{fill:#438dd5!important;stroke:#2e6da4!important;color:#fff!important;stroke-width:1.5px!important;}#my-svg .internal tspan{fill:#fff!important;}#my-svg .proposed&gt;*{fill:#2e7d32!important;stroke:#4caf50!important;color:#fff!important;stroke-width:2px!important;stroke-dasharray:4 2!important;}#my-svg .proposed span{fill:#2e7d32!important;stroke:#4caf50!important;color:#fff!important;stroke-width:2px!important;stroke-dasharray:4 2!important;}#my-svg .proposed tspan{fill:#fff!important;}#my-svg .external&gt;*{fill:#999!important;stroke:#666!important;color:#fff!important;stroke-width:1.5px!important;}#my-svg .external span{fill:#999!important;stroke:#666!important;color:#fff!important;stroke-width:1.5px!important;}#my-svg .external tspan{fill:#fff!important;}#my-svg .config&gt;*{fill:#5a4a1e!important;stroke:#d4a853!important;color:#fff!important;stroke-width:1.5px!important;}#my-svg .config span{fill:#5a4a1e!important;stroke:#d4a853!important;color:#fff!important;stroke-width:1.5px!important;}#my-svg .config tspan{fill:#fff!important;}#my-svg .store&gt;*{fill:#3a2d52!important;stroke:#7b5fb0!important;color:#fff!important;stroke-width:1.5px!important;}#my-svg .store span{fill:#3a2d52!important;stroke:#7b5fb0!important;color:#fff!important;stroke-width:1.5px!important;}#my-svg .store tspan{fill:#fff!important;}</style><g><marker id="my-svg_flowchart-v2-pointEnd" class="marker flowchart-v2" viewBox="0 0 10 10" refX="5" refY="5" markerUnits="userSpaceOnUse" markerWidth="8" markerHeight="8" orient="auto"><path d="M 0 0 L 10 5 L 0 10 z" class="arrowMarkerPath" style="stroke-width: 1; stroke-dasharray: 1, 0;"/></marker><marker id="my-svg_flowchart-v2-pointStart" class="marker flowchart-v2" viewBox="0 0 10 10" refX="4.5" refY="5" markerUnits="userSpaceOnUse" markerWidth="8" markerHeight="8" orient="auto"><path d="M 0 5 L 10 10 L 10 0 z" class="arrowMarkerPath" style="stroke-width: 1; stroke-dasharray: 1, 0;"/></marker><marker id="my-svg_flowchart-v2-circleEnd" class="marker flowchart-v2" viewBox="0 0 10 10" refX="11" refY="5" markerUnits="userSpaceOnUse" markerWidth="11" markerHeight="11" orient="auto"><circle cx="5" cy="5" r="5" class="arrowMarkerPath" style="stroke-width: 1; stroke-dasharray: 1, 0;"/></marker><marker id="my-svg_flowchart-v2-circleStart" class="marker flowchart-v2" viewBox="0 0 10 10" refX="-1" refY="5" markerUnits="userSpaceOnUse" markerWidth="11" markerHeight="11" orient="auto"><circle cx="5" cy="5" r="5" class="arrowMarkerPath" style="stroke-width: 1; stroke-dasharray: 1, 0;"/></marker><marker id="my-svg_flowchart-v2-crossEnd" class="marker cross flowchart-v2" viewBox="0 0 11 11" refX="12" refY="5.2" markerUnits="userSpaceOnUse" markerWidth="11" markerHeight="11" orient="auto"><path d="M 1,1 l 9,9 M 10,1 l -9,9" class="arrowMarkerPath" style="stroke-width: 2; stroke-dasharray: 1, 0;"/></marker><marker id="my-svg_flowchart-v2-crossStart" class="marker cross flowchart-v2" viewBox="0 0 11 11" refX="-1" refY="5.2" markerUnits="userSpaceOnUse" markerWidth="11" markerHeight="11" orient="auto"><path d="M 1,1 l 9,9 M 10,1 l -9,9" class="arrowMarkerPath" style="stroke-width: 2; stroke-dasharray: 1, 0;"/></marker><g class="root"><g class="clusters"><g class="cluster" id="Spoon" data-look="classic"><rect style="" x="8" y="336.4264831542969" width="1980.55859375" height="1492.4265441894531"/><g class="cluster-label" transform="translate(934.490234375, 336.4264831542969)"><foreignObject width="127.578125" height="24"><div xmlns="http://www.w3.org/1999/xhtml" style="display: table-cell; white-space: nowrap; line-height: 1.5; max-width: 200px; text-align: center;"><span class="nodeLabel"><p>SpacesSync.spoon</p></span></div></foreignObject></g></g><g class="cluster" id="New" data-look="classic"><rect style="" x="881.625" y="361.4264831542969" width="1086.93359375" height="473"/><g class="cluster-label" transform="translate(1392.794921875, 361.4264831542969)"><foreignObject width="64.59375" height="24"><div xmlns="http://www.w3.org/1999/xhtml" style="display: table-cell; white-space: nowrap; line-height: 1.5; max-width: 200px; text-align: center;"><span class="nodeLabel"><p>Proposed</p></span></div></foreignObject></g></g><g class="cluster" id="Engine" data-look="classic"><rect style="" x="28" y="634.4264831542969" width="833.625" height="1169.4265441894531"/><g class="cluster-label" transform="translate(390.984375, 634.4264831542969)"><foreignObject width="107.65625" height="24"><div xmlns="http://www.w3.org/1999/xhtml" style="display: table-cell; white-space: nowrap; line-height: 1.5; max-width: 200px; text-align: center;"><span class="nodeLabel"><p>Existing engine</p></span></div></foreignObject></g></g></g><g class="edgePaths"><path d="M1366.742,140.028L1195.037,166.595C1023.332,193.161,679.922,246.294,508.217,279.027C336.512,311.76,336.512,324.093,336.512,334.426C336.512,344.76,336.512,353.093,336.512,360.76C336.512,368.426,336.512,375.426,336.512,378.926L336.512,382.426" id="L_User_API_0" class="edge-thickness-normal edge-pattern-solid edge-thickness-normal edge-pattern-solid flowchart-link" style=";" data-edge="true" data-et="edge" data-id="L_User_API_0" data-points="W3sieCI6MTM2Ni43NDIwNDMxOTE3ODUsInkiOjE0MC4wMjgzOTE4ODUwMDIxMn0seyJ4IjozMzYuNTExNzE4NzUsInkiOjI5OS40MjY0ODMxNTQyOTY5fSx7IngiOjMzNi41MTE3MTg3NSwieSI6MzM2LjQyNjQ4MzE1NDI5Njl9LHsieCI6MzM2LjUxMTcxODc1LCJ5IjozNjEuNDI2NDgzMTU0Mjk2OX0seyJ4IjozMzYuNTExNzE4NzUsInkiOjM4Ni40MjY0ODMxNTQyOTY5fV0=" marker-end="url(#my-svg_flowchart-v2-pointEnd)"/><path d="M1405.507,155.081L1419.103,179.139C1432.7,203.196,1459.893,251.311,1473.489,281.536C1487.086,311.76,1487.086,324.093,1487.086,334.426C1487.086,344.76,1487.086,353.093,1487.086,362.76C1487.086,372.426,1487.086,383.426,1487.086,388.926L1487.086,394.426" id="L_User_SettingsPane_0" class="edge-thickness-normal edge-pattern-solid edge-thickness-normal edge-pattern-solid flowchart-link" style=";" data-edge="true" data-et="edge" data-id="L_User_SettingsPane_0" data-points="W3sieCI6MTQwNS41MDY1Mzk1Mzc0NzIsInkiOjE1NS4wODEyOTE5MjA2MjA1fSx7IngiOjE0ODcuMDg1OTM3NSwieSI6Mjk5LjQyNjQ4MzE1NDI5Njl9LHsieCI6MTQ4Ny4wODU5Mzc1LCJ5IjozMzYuNDI2NDgzMTU0Mjk2OX0seyJ4IjoxNDg3LjA4NTkzNzUsInkiOjM2MS40MjY0ODMxNTQyOTY5fSx7IngiOjE0ODcuMDg1OTM3NSwieSI6Mzk4LjQyNjQ4MzE1NDI5Njl9XQ==" marker-end="url(#my-svg_flowchart-v2-pointEnd)"/><path d="M1421.931,141.467L1547.617,167.793C1673.303,194.12,1924.676,246.773,2050.362,279.267C2176.048,311.76,2176.048,324.093,2176.048,334.426C2176.048,344.76,2176.048,353.093,2176.048,371.926C2176.048,390.76,2176.048,420.093,2176.048,455.426C2176.048,490.76,2176.048,532.093,2176.048,562.926C2176.048,593.76,2176.048,614.093,2176.048,640.926C2176.048,667.76,2176.048,701.093,2176.048,734.426C2176.048,767.76,2176.048,801.093,2176.048,829.926C2176.048,858.76,2176.048,883.093,2174.225,906.899C2172.402,930.704,2168.757,953.981,2166.934,965.62L2165.111,977.259" id="L_User_JSON_0" class="edge-thickness-normal edge-pattern-solid edge-thickness-normal edge-pattern-solid flowchart-link" style=";" data-edge="true" data-et="edge" data-id="L_User_JSON_0" data-points="W3sieCI6MTQyMS45MzA1NzY0OTAwMzY5LCJ5IjoxNDEuNDY2NzQwMjY0MDA5NDd9LHsieCI6MjE3Ni4wNDc5Nzg0MDExODQsInkiOjI5OS40MjY0ODMxNTQyOTY5fSx7IngiOjIxNzYuMDQ3OTc4NDAxMTg0LCJ5IjozMzYuNDI2NDgzMTU0Mjk2OX0seyJ4IjoyMTc2LjA0Nzk3ODQwMTE4NCwieSI6MzYxLjQyNjQ4MzE1NDI5Njl9LHsieCI6MjE3Ni4wNDc5Nzg0MDExODQsInkiOjQ0OS40MjY0ODMxNTQyOTY5fSx7IngiOjIxNzYuMDQ3OTc4NDAxMTg0LCJ5Ijo1NzMuNDI2NDgzMTU0Mjk2OX0seyJ4IjoyMTc2LjA0Nzk3ODQwMTE4NCwieSI6NjM0LjQyNjQ4MzE1NDI5Njl9LHsieCI6MjE3Ni4wNDc5Nzg0MDExODQsInkiOjczNC40MjY0ODMxNTQyOTY5fSx7IngiOjIxNzYuMDQ3OTc4NDAxMTg0LCJ5Ijo4MzQuNDI2NDgzMTU0Mjk2OX0seyJ4IjoyMTc2LjA0Nzk3ODQwMTE4NCwieSI6OTA3LjQyNjQ4MzE1NDI5Njl9LHsieCI6MjE2NC40OTI0ODMyNzgzNDYzLCJ5Ijo5ODEuMjEwNTEwOTc5MTE4Nn1d" marker-end="url(#my-svg_flowchart-v2-pointEnd)"/><path d="M448.496,459.048L670.373,478.111C892.25,497.174,1336.004,535.3,1557.881,564.53C1779.758,593.76,1779.758,614.093,1749.719,634.414C1719.681,654.734,1659.604,675.042,1629.566,685.196L1599.528,695.35" id="L_API_ConfigMod_0" class="edge-thickness-normal edge-pattern-solid edge-thickness-normal edge-pattern-solid flowchart-link" style=";" data-edge="true" data-et="edge" data-id="L_API_ConfigMod_0" data-points="W3sieCI6NDQ4LjQ5NjA5Mzc1LCJ5Ijo0NTkuMDQ3ODkzMjI0MzcwMDZ9LHsieCI6MTc3OS43NTc4MTI1LCJ5Ijo1NzMuNDI2NDgzMTU0Mjk2OX0seyJ4IjoxNzc5Ljc1NzgxMjUsInkiOjYzNC40MjY0ODMxNTQyOTY5fSx7IngiOjE1OTUuNzM4MjgxMjUsInkiOjY5Ni42MzA1NDIxNTEwMzU1fV0=" marker-end="url(#my-svg_flowchart-v2-pointEnd)"/><path d="M1518.022,503.905L1524.601,515.492C1531.181,527.079,1544.341,550.253,1550.92,572.006C1557.5,593.76,1557.5,614.093,1554.829,627.889C1552.159,641.686,1546.818,648.945,1544.147,652.575L1541.477,656.205" id="L_SettingsPane_ConfigMod_0" class="edge-thickness-normal edge-pattern-solid edge-thickness-normal edge-pattern-solid flowchart-link" style=";" data-edge="true" data-et="edge" data-id="L_SettingsPane_ConfigMod_0" data-points="W3sieCI6MTUxNi4wNDY1NTk5Nzk4Mzg4LCJ5Ijo1MDAuNDI2NDgzMTU0Mjk2OX0seyJ4IjoxNTU3LjUsInkiOjU3My40MjY0ODMxNTQyOTY5fSx7IngiOjE1NTcuNSwieSI6NjM0LjQyNjQ4MzE1NDI5Njl9LHsieCI6MTUzOS4xMDY0NDUzMTI1LCJ5Ijo2NTkuNDI2NDgzMTU0Mjk2OX1d" marker-start="url(#my-svg_flowchart-v2-pointStart)" marker-end="url(#my-svg_flowchart-v2-pointEnd)"/><path d="M1595.738,775.606L1622.357,785.41C1648.975,795.213,1702.212,814.82,1728.831,836.79C1755.449,858.76,1755.449,883.093,1799.602,928.669C1843.756,974.246,1932.062,1041.065,1976.216,1074.474L2020.369,1107.884" id="L_ConfigMod_JSON_0" class="edge-thickness-normal edge-pattern-solid edge-thickness-normal edge-pattern-solid flowchart-link" style=";" data-edge="true" data-et="edge" data-id="L_ConfigMod_JSON_0" data-points="W3sieCI6MTU5NS43MzgyODEyNSwieSI6Nzc1LjYwNjE2OTUzMDM1Nzl9LHsieCI6MTc1NS40NDkyMTg3NSwieSI6ODM0LjQyNjQ4MzE1NDI5Njl9LHsieCI6MTc1NS40NDkyMTg3NSwieSI6OTA3LjQyNjQ4MzE1NDI5Njl9LHsieCI6MjAyMy41NTg1OTM3NSwieSI6MTExMC4yOTc0NjUxMzY2MzQ0fV0=" marker-end="url(#my-svg_flowchart-v2-pointEnd)"/><path d="M1566.936,809.426L1571.547,813.593C1576.159,817.76,1585.382,826.093,1589.994,842.426C1594.605,858.76,1594.605,883.093,1665.509,932.824C1736.412,982.556,1878.218,1057.685,1949.121,1095.249L2020.024,1132.814" id="L_ConfigMod_JSON_2" class="edge-thickness-normal edge-pattern-solid edge-thickness-normal edge-pattern-solid flowchart-link" style=";" data-edge="true" data-et="edge" data-id="L_ConfigMod_JSON_2" data-points="W3sieCI6MTU2Ni45MzU1NDY4NzUsInkiOjgwOS40MjY0ODMxNTQyOTY5fSx7IngiOjE1OTQuNjA1NDY4NzUsInkiOjgzNC40MjY0ODMxNTQyOTY5fSx7IngiOjE1OTQuNjA1NDY4NzUsInkiOjkwNy40MjY0ODMxNTQyOTY5fSx7IngiOjIwMjMuNTU4NTkzNzUsInkiOjExMzQuNjg2MTczNzk2NDM1fV0=" marker-end="url(#my-svg_flowchart-v2-pointEnd)"/><path d="M1372.113,759.506L1316.444,771.993C1260.775,784.48,1149.436,809.453,1046.299,834.106C943.161,858.76,848.225,883.093,789.86,933.488C731.495,983.882,709.701,1060.337,698.805,1098.565L687.908,1136.793" id="L_ConfigMod_Names_0" class="edge-thickness-normal edge-pattern-solid edge-thickness-normal edge-pattern-solid flowchart-link" style=";" data-edge="true" data-et="edge" data-id="L_ConfigMod_Names_0" data-points="W3sieCI6MTM3Mi4xMTMyODEyNSwieSI6NzU5LjUwNjIxNTM5NDE1OTV9LHsieCI6MTAzOC4wOTc2NTYyNSwieSI6ODM0LjQyNjQ4MzE1NDI5Njl9LHsieCI6NzUzLjI4OTA2MjUsInkiOjkwNy40MjY0ODMxNTQyOTY5fSx7IngiOjY4Ni44MTExMDA4NzAwMDIzLCJ5IjoxMTQwLjYzOTc1NTI0OTAyMzR9XQ==" marker-end="url(#my-svg_flowchart-v2-pointEnd)"/><path d="M1597.578,481.009L1651.465,496.412C1705.353,511.815,1813.128,542.621,1867.015,568.19C1920.902,593.76,1920.902,614.093,1920.902,640.926C1920.902,667.76,1920.902,701.093,1920.902,734.426C1920.902,767.76,1920.902,801.093,1920.902,829.926C1920.902,858.76,1920.902,883.093,1981.603,930.765C2042.304,978.437,2163.705,1049.447,2224.405,1084.952L2285.106,1120.458" id="L_SettingsPane_Shutdown_0" class="edge-thickness-normal edge-pattern-solid edge-thickness-normal edge-pattern-solid flowchart-link" style=";" data-edge="true" data-et="edge" data-id="L_SettingsPane_Shutdown_0" data-points="W3sieCI6MTU5Ny41NzgxMjUsInkiOjQ4MS4wMDkwMzk4NTk0MTIyN30seyJ4IjoxOTIwLjkwMjM0Mzc1LCJ5Ijo1NzMuNDI2NDgzMTU0Mjk2OX0seyJ4IjoxOTIwLjkwMjM0Mzc1LCJ5Ijo2MzQuNDI2NDgzMTU0Mjk2OX0seyJ4IjoxOTIwLjkwMjM0Mzc1LCJ5Ijo3MzQuNDI2NDgzMTU0Mjk2OX0seyJ4IjoxOTIwLjkwMjM0Mzc1LCJ5Ijo4MzQuNDI2NDgzMTU0Mjk2OX0seyJ4IjoxOTIwLjkwMjM0Mzc1LCJ5Ijo5MDcuNDI2NDgzMTU0Mjk2OX0seyJ4IjoyMjg4LjU1ODU5Mzc1LCJ5IjoxMTIyLjQ3NzE1NTc5MzIyMDJ9XQ==" marker-end="url(#my-svg_flowchart-v2-pointEnd)"/><path d="M1595.738,763.146L1641.99,775.026C1688.241,786.906,1780.743,810.666,1826.995,834.713C1873.246,858.76,1873.246,883.093,1941.876,931.818C2010.507,980.542,2147.768,1053.658,2216.398,1090.216L2285.028,1126.774" id="L_ConfigMod_Shutdown_0" class="edge-thickness-normal edge-pattern-solid edge-thickness-normal edge-pattern-solid flowchart-link" style=";" data-edge="true" data-et="edge" data-id="L_ConfigMod_Shutdown_0" data-points="W3sieCI6MTU5NS43MzgyODEyNSwieSI6NzYzLjE0NjQwNzcwMjI4NzJ9LHsieCI6MTg3My4yNDYwOTM3NSwieSI6ODM0LjQyNjQ4MzE1NDI5Njl9LHsieCI6MTg3My4yNDYwOTM3NSwieSI6OTA3LjQyNjQ4MzE1NDI5Njl9LHsieCI6MjI4OC41NTg1OTM3NSwieSI6MTEyOC42NTQ2NDgzODY4Mjc0fV0=" marker-end="url(#my-svg_flowchart-v2-pointEnd)"/><path d="M1150.803,512.426L1161.585,522.593C1172.367,532.76,1193.932,553.093,1204.714,573.426C1215.496,593.76,1215.496,614.093,1240.974,633.751C1266.452,653.41,1317.409,672.393,1342.887,681.884L1368.365,691.376" id="L_ScreenWatch_ConfigMod_0" class="edge-thickness-normal edge-pattern-solid edge-thickness-normal edge-pattern-solid flowchart-link" style=";" data-edge="true" data-et="edge" data-id="L_ScreenWatch_ConfigMod_0" data-points="W3sieCI6MTE1MC44MDI3MzQzNzUsInkiOjUxMi40MjY0ODMxNTQyOTY5fSx7IngiOjEyMTUuNDk2MDkzNzUsInkiOjU3My40MjY0ODMxNTQyOTY5fSx7IngiOjEyMTUuNDk2MDkzNzUsInkiOjYzNC40MjY0ODMxNTQyOTY5fSx7IngiOjEzNzIuMTEzMjgxMjUsInkiOjY5Mi43NzIxODU4ODEzODQ0fV0=" marker-end="url(#my-svg_flowchart-v2-pointEnd)"/><path d="M362.256,773.426L368.967,783.593C375.679,793.76,389.101,814.093,395.812,836.426C402.523,858.76,402.523,883.093,402.523,933.462C402.523,983.831,402.523,1060.235,402.523,1098.438L402.523,1136.64" id="L_Watcher_SyncEng_0" class="edge-thickness-normal edge-pattern-solid edge-thickness-normal edge-pattern-solid flowchart-link" style=";" data-edge="true" data-et="edge" data-id="L_Watcher_SyncEng_0" data-points="W3sieCI6MzYyLjI1NjI4OTA2MjUsInkiOjc3My40MjY0ODMxNTQyOTY5fSx7IngiOjQwMi41MjM0Mzc1LCJ5Ijo4MzQuNDI2NDgzMTU0Mjk2OX0seyJ4Ijo0MDIuNTIzNDM3NSwieSI6OTA3LjQyNjQ4MzE1NDI5Njl9LHsieCI6NDAyLjUyMzQzNzUsInkiOjExNDAuNjM5NzU1MjQ5MDIzNH1d" marker-end="url(#my-svg_flowchart-v2-pointEnd)"/><path d="M348.373,1242.64L315.597,1273.509C282.822,1304.378,217.27,1366.115,184.494,1402.484C151.719,1438.853,151.719,1449.853,151.719,1455.353L151.719,1460.853" id="L_SyncEng_GroupLook_0" class="edge-thickness-normal edge-pattern-solid edge-thickness-normal edge-pattern-solid flowchart-link" style=";" data-edge="true" data-et="edge" data-id="L_SyncEng_GroupLook_0" data-points="W3sieCI6MzQ4LjM3MzA1NDg4NTcyMiwieSI6MTI0Mi42Mzk3NTUyNDkwMjM0fSx7IngiOjE1MS43MTg3NSwieSI6MTQyNy44NTMwMjczNDM3NX0seyJ4IjoxNTEuNzE4NzUsInkiOjE0NjQuODUzMDI3MzQzNzV9XQ==" marker-end="url(#my-svg_flowchart-v2-pointEnd)"/><path d="M151.719,1542.853L151.719,1549.02C151.719,1555.186,151.719,1567.52,151.719,1585.186C151.719,1602.853,151.719,1625.853,151.719,1637.353L151.719,1648.853" id="L_GroupLook_PosMap_0" class="edge-thickness-normal edge-pattern-solid edge-thickness-normal edge-pattern-solid flowchart-link" style=";" data-edge="true" data-et="edge" data-id="L_GroupLook_PosMap_0" data-points="W3sieCI6MTUxLjcxODc1LCJ5IjoxNTQyLjg1MzAyNzM0Mzc1fSx7IngiOjE1MS43MTg3NSwieSI6MTU3OS44NTMwMjczNDM3NX0seyJ4IjoxNTEuNzE4NzUsInkiOjE2NTIuODUzMDI3MzQzNzV9XQ==" marker-end="url(#my-svg_flowchart-v2-pointEnd)"/><path d="M428.771,1242.64L444.658,1273.509C460.545,1304.378,492.32,1366.115,507.745,1400.49C523.171,1434.864,522.249,1441.876,521.787,1445.382L521.326,1448.887" id="L_SyncEng_UI_0" class="edge-thickness-normal edge-pattern-solid edge-thickness-normal edge-pattern-solid flowchart-link" style=";" data-edge="true" data-et="edge" data-id="L_SyncEng_UI_0" data-points="W3sieCI6NDI4Ljc3MTI2ODA0MTA5NTIsInkiOjEyNDIuNjM5NzU1MjQ5MDIzNH0seyJ4Ijo1MjQuMDkzNzUsInkiOjE0MjcuODUzMDI3MzQzNzV9LHsieCI6NTIwLjgwNDI3NjMxNTc4OTUsInkiOjE0NTIuODUzMDI3MzQzNzV9XQ==" marker-end="url(#my-svg_flowchart-v2-pointEnd)"/><path d="M635.962,1242.64L613.984,1273.509C592.006,1304.378,548.05,1366.115,526.533,1400.49C505.016,1434.864,505.939,1441.876,506.4,1445.382L506.861,1448.887" id="L_Names_UI_0" class="edge-thickness-normal edge-pattern-solid edge-thickness-normal edge-pattern-solid flowchart-link" style=";" data-edge="true" data-et="edge" data-id="L_Names_UI_0" data-points="W3sieCI6NjM1Ljk2MjMzNjE1MzE2MTMsInkiOjEyNDIuNjM5NzU1MjQ5MDIzNH0seyJ4Ijo1MDQuMDkzNzUsInkiOjE0MjcuODUzMDI3MzQzNzV9LHsieCI6NTA3LjM4MzIyMzY4NDIxMDUsInkiOjE0NTIuODUzMDI3MzQzNzV9XQ==" marker-end="url(#my-svg_flowchart-v2-pointEnd)"/><path d="M656.639,1136.793L645.742,1098.565C634.845,1060.337,613.052,983.882,673.295,933.488C733.538,883.093,875.818,858.76,1005.308,834.067C1134.799,809.374,1251.501,784.321,1309.852,771.795L1368.202,759.269" id="L_Names_ConfigMod_0" class="edge-thickness-normal edge-pattern-solid edge-thickness-normal edge-pattern-solid flowchart-link" style=";" data-edge="true" data-et="edge" data-id="L_Names_ConfigMod_0" data-points="W3sieCI6NjU3LjczNTc3NDEyOTk5NzcsInkiOjExNDAuNjM5NzU1MjQ5MDIzNH0seyJ4Ijo1OTEuMjU3ODEyNSwieSI6OTA3LjQyNjQ4MzE1NDI5Njl9LHsieCI6MTAxOC4wOTc2NTYyNSwieSI6ODM0LjQyNjQ4MzE1NDI5Njl9LHsieCI6MTM3Mi4xMTMyODEyNSwieSI6NzU4LjQyOTQzNDg4Njc2MjZ9XQ==" marker-start="url(#my-svg_flowchart-v2-pointStart)" marker-end="url(#my-svg_flowchart-v2-pointEnd)"/><path d="M1423.908,809.426L1420.574,813.593C1417.24,817.76,1410.571,826.093,1407.237,842.426C1403.902,858.76,1403.902,883.093,1506.557,935.383C1609.213,987.673,1814.523,1067.92,1917.178,1108.043L2019.833,1148.167" id="L_ConfigMod_JSON_3" class="edge-thickness-normal edge-pattern-solid edge-thickness-normal edge-pattern-solid flowchart-link" style=";" data-edge="true" data-et="edge" data-id="L_ConfigMod_JSON_3" data-points="W3sieCI6MTQyMy45MDgyMDMxMjUsInkiOjgwOS40MjY0ODMxNTQyOTY5fSx7IngiOjE0MDMuOTAyMzQzNzUsInkiOjgzNC40MjY0ODMxNTQyOTY5fSx7IngiOjE0MDMuOTAyMzQzNzUsInkiOjkwNy40MjY0ODMxNTQyOTY5fSx7IngiOjIwMjMuNTU4NTkzNzUsInkiOjExNDkuNjIyNzUxNjgxNzk0Mn1d" marker-end="url(#my-svg_flowchart-v2-pointEnd)"/><path d="M514.094,1554.853L514.094,1559.02C514.094,1563.186,514.094,1571.52,765.006,1592.827C1015.918,1614.135,1517.743,1648.417,1768.656,1665.558L2019.568,1682.699" id="L_UI_HSAPIs_0" class="edge-thickness-normal edge-pattern-solid edge-thickness-normal edge-pattern-solid flowchart-link" style=";" data-edge="true" data-et="edge" data-id="L_UI_HSAPIs_0" data-points="W3sieCI6NTE0LjA5Mzc1LCJ5IjoxNTU0Ljg1MzAyNzM0Mzc1fSx7IngiOjUxNC4wOTM3NSwieSI6MTU3OS44NTMwMjczNDM3NX0seyJ4IjoyMDIzLjU1ODU5Mzc1LCJ5IjoxNjgyLjk3MjA4MDU3OTAxNH1d" marker-end="url(#my-svg_flowchart-v2-pointEnd)"/><path d="M1372.113,765.952L1331.637,777.364C1291.16,788.777,1210.207,811.602,1169.73,835.181C1129.254,858.76,1129.254,883.093,1129.254,942.629C1129.254,1002.164,1129.254,1096.902,1129.254,1183.64C1129.254,1270.378,1129.254,1349.115,1129.254,1401.151C1129.254,1453.186,1129.254,1478.52,1129.254,1503.853C1129.254,1529.186,1129.254,1554.52,1277.642,1583.411C1426.03,1612.303,1722.806,1644.753,1871.194,1660.979L2019.582,1677.204" id="L_ConfigMod_HSAPIs_0" class="edge-thickness-normal edge-pattern-solid edge-thickness-normal edge-pattern-solid flowchart-link" style=";" data-edge="true" data-et="edge" data-id="L_ConfigMod_HSAPIs_0" data-points="W3sieCI6MTM3Mi4xMTMyODEyNSwieSI6NzY1Ljk1MjEwMTAyMjkyNTV9LHsieCI6MTEyOS4yNTM5MDYyNSwieSI6ODM0LjQyNjQ4MzE1NDI5Njl9LHsieCI6MTEyOS4yNTM5MDYyNSwieSI6OTA3LjQyNjQ4MzE1NDI5Njl9LHsieCI6MTEyOS4yNTM5MDYyNSwieSI6MTE5MS42Mzk3NTUyNDkwMjM0fSx7IngiOjExMjkuMjUzOTA2MjUsInkiOjE0MjcuODUzMDI3MzQzNzV9LHsieCI6MTEyOS4yNTM5MDYyNSwieSI6MTUwMy44NTMwMjczNDM3NX0seyJ4IjoxMTI5LjI1MzkwNjI1LCJ5IjoxNTc5Ljg1MzAyNzM0Mzc1fSx7IngiOjIwMjMuNTU4NTkzNzUsInkiOjE2NzcuNjM4NTA2ODIyOTd9XQ==" marker-end="url(#my-svg_flowchart-v2-pointEnd)"/><path d="M1376.594,485.365L1331.469,500.042C1286.345,514.719,1196.096,544.073,1150.972,568.916C1105.848,593.76,1105.848,614.093,1105.848,640.926C1105.848,667.76,1105.848,701.093,1105.848,734.426C1105.848,767.76,1105.848,801.093,1105.848,829.926C1105.848,858.76,1105.848,883.093,1105.848,942.629C1105.848,1002.164,1105.848,1096.902,1105.848,1183.64C1105.848,1270.378,1105.848,1349.115,1105.848,1401.151C1105.848,1453.186,1105.848,1478.52,1105.848,1503.853C1105.848,1529.186,1105.848,1554.52,1258.137,1583.466C1410.426,1612.412,1715.003,1644.972,1867.292,1661.251L2019.581,1677.531" id="L_SettingsPane_HSAPIs_0" class="edge-thickness-normal edge-pattern-solid edge-thickness-normal edge-pattern-solid flowchart-link" style=";" data-edge="true" data-et="edge" data-id="L_SettingsPane_HSAPIs_0" data-points="W3sieCI6MTM3Ni41OTM3NSwieSI6NDg1LjM2NDcxODk2MDcyNTN9LHsieCI6MTEwNS44NDc2NTYyNSwieSI6NTczLjQyNjQ4MzE1NDI5Njl9LHsieCI6MTEwNS44NDc2NTYyNSwieSI6NjM0LjQyNjQ4MzE1NDI5Njl9LHsieCI6MTEwNS44NDc2NTYyNSwieSI6NzM0LjQyNjQ4MzE1NDI5Njl9LHsieCI6MTEwNS44NDc2NTYyNSwieSI6ODM0LjQyNjQ4MzE1NDI5Njl9LHsieCI6MTEwNS44NDc2NTYyNSwieSI6OTA3LjQyNjQ4MzE1NDI5Njl9LHsieCI6MTEwNS44NDc2NTYyNSwieSI6MTE5MS42Mzk3NTUyNDkwMjM0fSx7IngiOjExMDUuODQ3NjU2MjUsInkiOjE0MjcuODUzMDI3MzQzNzV9LHsieCI6MTEwNS44NDc2NTYyNSwieSI6MTUwMy44NTMwMjczNDM3NX0seyJ4IjoxMTA1Ljg0NzY1NjI1LCJ5IjoxNTc5Ljg1MzAyNzM0Mzc1fSx7IngiOjIwMjMuNTU4NTkzNzUsInkiOjE2NzcuOTU2MDY0NDcwODIwMX1d" marker-end="url(#my-svg_flowchart-v2-pointEnd)"/><path d="M336.512,512.426L336.512,522.593C336.512,532.76,336.512,553.093,336.512,572.76C336.512,592.426,336.512,611.426,336.512,620.926L336.512,630.426" id="L_API_Engine_0" class="edge-thickness-normal edge-pattern-solid edge-thickness-normal edge-pattern-solid flowchart-link" style=";" data-edge="true" data-et="edge" data-id="L_API_Engine_0" data-points="W3sieCI6MzM2LjUxMTcxODc1LCJ5Ijo1MTIuNDI2NDgzMTU0Mjk2OX0seyJ4IjozMzYuNTExNzE4NzUsInkiOjU3My40MjY0ODMxNTQyOTY5fSx7IngiOjMzNi41MTE3MTg3NSwieSI6NjM0LjQyNjQ4MzE1NDI5Njl9LHsieCI6MzM2LjUxMTcxODc1LCJ5Ijo2OTUuNDI2NDgzMTU0Mjk2OX1d" marker-end="url(#my-svg_flowchart-v2-pointEnd)"/><path d="M1043.284,512.426L1036.715,522.593C1030.146,532.76,1017.009,553.093,1010.44,573.426C1003.871,593.76,1003.871,614.093,980.771,634.7C957.671,655.307,911.47,676.187,888.37,686.627L865.27,697.068" id="L_ScreenWatch_Engine_0" class="edge-thickness-normal edge-pattern-solid edge-thickness-normal edge-pattern-solid flowchart-link" style=";" data-edge="true" data-et="edge" data-id="L_ScreenWatch_Engine_0" data-points="W3sieCI6MTA0My4yODM1ODExNDkxOTM3LCJ5Ijo1MTIuNDI2NDgzMTU0Mjk2OX0seyJ4IjoxMDAzLjg3MTA5Mzc1LCJ5Ijo1NzMuNDI2NDgzMTU0Mjk2OX0seyJ4IjoxMDAzLjg3MTA5Mzc1LCJ5Ijo2MzQuNDI2NDgzMTU0Mjk2OX0seyJ4Ijo0MzIuNTg5ODQzNzUsInkiOjcyMC4wMjk3MjM1MzczMzY0fV0=" marker-end="url(#my-svg_flowchart-v2-pointEnd)"/><path d="M861.625,1648.807L2019.56,1684.017" id="L_Engine_HSAPIs_0" class="edge-thickness-normal edge-pattern-solid edge-thickness-normal edge-pattern-solid flowchart-link" style=";" data-edge="true" data-et="edge" data-id="L_Engine_HSAPIs_0" data-points="W3sieCI6MzA5LjExODc4OTA2MjUsInkiOjc3My40MjY0ODMxNTQyOTY5fSx7IngiOjI2Ni4yNzM0Mzc1LCJ5Ijo4MzQuNDI2NDgzMTU0Mjk2OX0seyJ4IjoyNjYuMjczNDM3NSwieSI6OTA3LjQyNjQ4MzE1NDI5Njl9LHsieCI6MjY2LjI3MzQzNzUsInkiOjExOTEuNjM5NzU1MjQ5MDIzNH0seyJ4IjoyNjYuMjczNDM3NSwieSI6MTQyNy44NTMwMjczNDM3NX0seyJ4IjoyNjYuMjczNDM3NSwieSI6MTUwMy44NTMwMjczNDM3NX0seyJ4IjoyNjYuMjczNDM3NSwieSI6MTU3OS44NTMwMjczNDM3NX0seyJ4IjoyMDIzLjU1ODU5Mzc1LCJ5IjoxNjg0LjEzODI0MTkyNzM2Mzd9XQ==" marker-end="url(#my-svg_flowchart-v2-pointEnd)"/></g><g class="edgeLabels"><g class="edgeLabel" transform="translate(336.51171875, 299.4264831542969)"><g class="label" data-id="L_User_API_0" transform="translate(-27.421875, -12)"><foreignObject width="54.84375" height="24"><div xmlns="http://www.w3.org/1999/xhtml" class="labelBkg" style="display: table-cell; white-space: nowrap; line-height: 1.5; max-width: 200px; text-align: center;"><span class="edgeLabel"><p>hotkeys</p></span></div></foreignObject></g></g><g class="edgeLabel" transform="translate(1487.0859375, 299.4264831542969)"><g class="label" data-id="L_User_SettingsPane_0" transform="translate(-20.7265625, -12)"><foreignObject width="41.453125" height="24"><div xmlns="http://www.w3.org/1999/xhtml" class="labelBkg" style="display: table-cell; white-space: nowrap; line-height: 1.5; max-width: 200px; text-align: center;"><span class="edgeLabel"><p>opens</p></span></div></foreignObject></g></g><g class="edgeLabel" transform="translate(2176.047978401184, 573.4264831542969)"><g class="label" data-id="L_User_JSON_0" transform="translate(-37.8515625, -12)"><foreignObject width="75.703125" height="24"><div xmlns="http://www.w3.org/1999/xhtml" class="labelBkg" style="display: table-cell; white-space: nowrap; line-height: 1.5; max-width: 200px; text-align: center;"><span class="edgeLabel"><p>hand-edits</p></span></div></foreignObject></g></g><g class="edgeLabel" transform="translate(1779.7578125, 573.4264831542969)"><g class="label" data-id="L_API_ConfigMod_0" transform="translate(-72.2265625, -36)"><foreignObject width="144.453125" height="72"><div xmlns="http://www.w3.org/1999/xhtml" class="labelBkg" style="display: table-cell; white-space: nowrap; line-height: 1.5; max-width: 200px; text-align: center;"><span class="edgeLabel"><p>on :start: seed,<br />load, applyToSpoon,<br />startWatching</p></span></div></foreignObject></g></g><g class="edgeLabel" transform="translate(1557.5, 573.4264831542969)"><g class="label" data-id="L_SettingsPane_ConfigMod_0" transform="translate(-74.6640625, -24)"><foreignObject width="149.328125" height="48"><div xmlns="http://www.w3.org/1999/xhtml" class="labelBkg" style="display: table-cell; white-space: nowrap; line-height: 1.5; max-width: 200px; text-align: center;"><span class="edgeLabel"><p>JS↔Lua<br />loadState applyState</p></span></div></foreignObject></g></g><g class="edgeLabel" transform="translate(1755.44921875, 907.4264831542969)"><g class="label" data-id="L_ConfigMod_JSON_0" transform="translate(-70.140625, -36)"><foreignObject width="140.28125" height="72"><div xmlns="http://www.w3.org/1999/xhtml" class="labelBkg" style="display: table-cell; white-space: nowrap; line-height: 1.5; max-width: 200px; text-align: center;"><span class="edgeLabel"><p>reads/writes<br />SHA-256 ring buffer<br />echo suppression</p></span></div></foreignObject></g></g><g class="edgeLabel" transform="translate(1594.60546875, 907.4264831542969)"><g class="label" data-id="L_ConfigMod_JSON_2" transform="translate(-70.703125, -36)"><foreignObject width="141.40625" height="72"><div xmlns="http://www.w3.org/1999/xhtml" class="labelBkg" style="display: table-cell; white-space: nowrap; line-height: 1.5; max-width: 200px; text-align: center;"><span class="edgeLabel"><p>watches parent dir<br />filters by basename<br />retries on parse fail</p></span></div></foreignObject></g></g><g class="edgeLabel" transform="translate(944.03654, 858.53552)"><g class="label" data-id="L_ConfigMod_Names_0" transform="translate(-85.609375, -36)"><foreignObject width="171.21875" height="72"><div xmlns="http://www.w3.org/1999/xhtml" class="labelBkg" style="display: table-cell; white-space: nowrap; line-height: 1.5; max-width: 200px; text-align: center;"><span class="edgeLabel"><p>on groupOf change<br />migrate keys atomically<br />flag orphans</p></span></div></foreignObject></g></g><g class="edgeLabel" transform="translate(1920.90234375, 734.4264831542969)"><g class="label" data-id="L_SettingsPane_Shutdown_0" transform="translate(-27.65625, -12)"><foreignObject width="55.3125" height="24"><div xmlns="http://www.w3.org/1999/xhtml" class="labelBkg" style="display: table-cell; white-space: nowrap; line-height: 1.5; max-width: 200px; text-align: center;"><span class="edgeLabel"><p>register</p></span></div></foreignObject></g></g><g class="edgeLabel" transform="translate(1873.24609375, 907.4264831542969)"><g class="label" data-id="L_ConfigMod_Shutdown_0" transform="translate(-27.65625, -12)"><foreignObject width="55.3125" height="24"><div xmlns="http://www.w3.org/1999/xhtml" class="labelBkg" style="display: table-cell; white-space: nowrap; line-height: 1.5; max-width: 200px; text-align: center;"><span class="edgeLabel"><p>register</p></span></div></foreignObject></g></g><g class="edgeLabel" transform="translate(1215.49609375, 573.4264831542969)"><g class="label" data-id="L_ScreenWatch_ConfigMod_0" transform="translate(-52.484375, -24)"><foreignObject width="104.96875" height="48"><div xmlns="http://www.w3.org/1999/xhtml" class="labelBkg" style="display: table-cell; white-space: nowrap; line-height: 1.5; max-width: 200px; text-align: center;"><span class="edgeLabel"><p>on disconnect:<br />writeLastSeen</p></span></div></foreignObject></g></g><g class="edgeLabel" transform="translate(402.5234375, 907.4264831542969)"><g class="label" data-id="L_Watcher_SyncEng_0" transform="translate(-77.9609375, -12)"><foreignObject width="155.921875" height="24"><div xmlns="http://www.w3.org/1999/xhtml" class="labelBkg" style="display: table-cell; white-space: nowrap; line-height: 1.5; max-width: 200px; text-align: center;"><span class="edgeLabel"><p>fires on Space change</p></span></div></foreignObject></g></g><g class="edgeLabel"><g class="label" data-id="L_SyncEng_GroupLook_0" transform="translate(0, 0)"><foreignObject width="0" height="0"><div xmlns="http://www.w3.org/1999/xhtml" class="labelBkg" style="display: table-cell; white-space: nowrap; line-height: 1.5; max-width: 200px; text-align: center;"><span class="edgeLabel"></span></div></foreignObject></g></g><g class="edgeLabel"><g class="label" data-id="L_GroupLook_PosMap_0" transform="translate(0, 0)"><foreignObject width="0" height="0"><div xmlns="http://www.w3.org/1999/xhtml" class="labelBkg" style="display: table-cell; white-space: nowrap; line-height: 1.5; max-width: 200px; text-align: center;"><span class="edgeLabel"></span></div></foreignObject></g></g><g class="edgeLabel"><g class="label" data-id="L_SyncEng_UI_0" transform="translate(0, 0)"><foreignObject width="0" height="0"><div xmlns="http://www.w3.org/1999/xhtml" class="labelBkg" style="display: table-cell; white-space: nowrap; line-height: 1.5; max-width: 200px; text-align: center;"><span class="edgeLabel"></span></div></foreignObject></g></g><g class="edgeLabel"><g class="label" data-id="L_Names_UI_0" transform="translate(0, 0)"><foreignObject width="0" height="0"><div xmlns="http://www.w3.org/1999/xhtml" class="labelBkg" style="display: table-cell; white-space: nowrap; line-height: 1.5; max-width: 200px; text-align: center;"><span class="edgeLabel"></span></div></foreignObject></g></g><g class="edgeLabel" transform="translate(591.2578125, 907.4264831542969)"><g class="label" data-id="L_Names_ConfigMod_0" transform="translate(-56.421875, -24)"><foreignObject width="112.84375" height="48"><div xmlns="http://www.w3.org/1999/xhtml" class="labelBkg" style="display: table-cell; white-space: nowrap; line-height: 1.5; max-width: 200px; text-align: center;"><span class="edgeLabel"><p>hydrate on load<br />read on save</p></span></div></foreignObject></g></g><g class="edgeLabel" transform="translate(1403.90234375, 907.4264831542969)"><g class="label" data-id="L_ConfigMod_JSON_3" transform="translate(-100, -48)"><foreignObject width="200" height="96"><div xmlns="http://www.w3.org/1999/xhtml" class="labelBkg" style="display: table; white-space: break-spaces; line-height: 1.5; max-width: 200px; text-align: center; width: 200px;"><span class="edgeLabel"><p>spaceNames live in JSON now,<br />Plist is migration-source only</p></span></div></foreignObject></g></g><g class="edgeLabel"><g class="label" data-id="L_UI_HSAPIs_0" transform="translate(0, 0)"><foreignObject width="0" height="0"><div xmlns="http://www.w3.org/1999/xhtml" class="labelBkg" style="display: table-cell; white-space: nowrap; line-height: 1.5; max-width: 200px; text-align: center;"><span class="edgeLabel"></span></div></foreignObject></g></g><g class="edgeLabel"><g class="label" data-id="L_ConfigMod_HSAPIs_0" transform="translate(0, 0)"><foreignObject width="0" height="0"><div xmlns="http://www.w3.org/1999/xhtml" class="labelBkg" style="display: table-cell; white-space: nowrap; line-height: 1.5; max-width: 200px; text-align: center;"><span class="edgeLabel"></span></div></foreignObject></g></g><g class="edgeLabel"><g class="label" data-id="L_SettingsPane_HSAPIs_0" transform="translate(0, 0)"><foreignObject width="0" height="0"><div xmlns="http://www.w3.org/1999/xhtml" class="labelBkg" style="display: table-cell; white-space: nowrap; line-height: 1.5; max-width: 200px; text-align: center;"><span class="edgeLabel"></span></div></foreignObject></g></g><g class="edgeLabel" transform="translate(336.51171875, 573.4264831542969)"><g class="label" data-id="L_API_Engine_0" transform="translate(-72.15625, -24)"><foreignObject width="144.3125" height="48"><div xmlns="http://www.w3.org/1999/xhtml" class="labelBkg" style="display: table-cell; white-space: nowrap; line-height: 1.5; max-width: 200px; text-align: center;"><span class="edgeLabel"><p>reads runtime fields<br />populated by config</p></span></div></foreignObject></g></g><g class="edgeLabel" transform="translate(993.63109, 639.05448)"><g class="label" data-id="L_ScreenWatch_Engine_0" transform="translate(-67.75, -24)"><foreignObject width="135.5" height="48"><div xmlns="http://www.w3.org/1999/xhtml" class="labelBkg" style="display: table-cell; white-space: nowrap; line-height: 1.5; max-width: 200px; text-align: center;"><span class="edgeLabel"><p>on connect:<br />rebuildPositionMap</p></span></div></foreignObject></g></g><g class="edgeLabel"><g class="label" data-id="L_Engine_HSAPIs_0" transform="translate(0, 0)"><foreignObject width="0" height="0"><div xmlns="http://www.w3.org/1999/xhtml" class="labelBkg" style="display: table-cell; white-space: nowrap; line-height: 1.5; max-width: 200px; text-align: center;"><span class="edgeLabel"></span></div></foreignObject></g></g></g><g class="nodes"><g class="root" transform="translate(1107.4240818023682, 13.213241577148438)"><g class="clusters"><g class="cluster" id="Legend" data-look="classic"><rect style="" x="8" y="8" width="200.34375" height="228"/><g class="cluster-label" transform="translate(82.546875, 8)"><foreignObject width="51.25" height="24"><div xmlns="http://www.w3.org/1999/xhtml" style="display: table-cell; white-space: nowrap; line-height: 1.5; max-width: 200px; text-align: center;"><span class="nodeLabel"><p>Legend</p></span></div></foreignObject></g></g></g><g class="edgePaths"/><g class="edgeLabels"/><g class="nodes"><g class="node default internal" id="flowchart-L1-63" transform="translate(108.171875, 70)"><rect class="basic label-container" style="fill:#438dd5 !important;stroke:#2e6da4 !important;stroke-width:1.5px !important" x="-57.734375" y="-27" width="115.46875" height="54"/><g class="label" style="color:#fff !important" transform="translate(-27.734375, -12)"><rect/><foreignObject width="55.46875" height="24"><div style="color: rgb(255, 255, 255) !important; display: table-cell; white-space: nowrap; line-height: 1.5; max-width: 200px; text-align: center;" xmlns="http://www.w3.org/1999/xhtml"><span style="color:#fff !important" class="nodeLabel"><p>existing</p></span></div></foreignObject></g></g><g class="node default proposed" id="flowchart-L2-64" transform="translate(108.171875, 174)"><rect class="basic label-container" style="fill:#2e7d32 !important;stroke:#4caf50 !important;stroke-width:2px !important;stroke-dasharray:4 2 !important" x="-62.671875" y="-27" width="125.34375" height="54"/><g class="label" style="color:#fff !important" transform="translate(-32.671875, -12)"><rect/><foreignObject width="65.34375" height="24"><div style="color: rgb(255, 255, 255) !important; display: table-cell; white-space: nowrap; line-height: 1.5; max-width: 200px; text-align: center;" xmlns="http://www.w3.org/1999/xhtml"><span style="color:#fff !important" class="nodeLabel"><p>proposed</p></span></div></foreignObject></g></g></g></g><g class="node default public" id="flowchart-User-0" transform="translate(1394.03125, 135.21324157714844)"><g class="basic label-container outer-path"><path d="M-8.7734375 -19.5 C-3.641593931742298 -19.5, 1.4902496365154043 -19.5, 8.7734375 -19.5 C8.7734375 -19.5, 8.7734375 -19.5, 8.773437499999998 -19.5 C9.197614152742876 -19.486397480356302, 9.621790805485752 -19.47279496071261, 10.0228067896239 -19.45993515863156 C10.476425144166331 -19.41617514152474, 10.930043498708763 -19.37241512441792, 11.267042152847864 -19.3399052695533 C11.661526712719631 -19.276128065186683, 12.056011272591398 -19.21235086082007, 12.501030759676757 -19.140403561325776 C12.957676385795578 -19.03617717705535, 13.414322011914397 -18.931950792784924, 13.71970188623539 -18.862249829261074 C14.172183753940557 -18.727955586051973, 14.624665621645722 -18.59366134284287, 14.918047751460602 -18.50658706670804 C15.179946693101538 -18.410205835216896, 15.441845634742476 -18.313824603725756, 16.091144095147794 -18.074876768247425 C16.542970361347372 -17.874866683150852, 16.994796627546947 -17.67485659805428, 17.23417041279238 -17.568892924097174 C17.60532954894007 -17.375259440507698, 17.97648868508776 -17.18162595691822, 18.342429764076783 -16.990714730406097 C18.573818431731574 -16.850445560283017, 18.80520709938636 -16.710176390159937, 19.411368073605697 -16.342718045390892 C19.67373584603993 -16.159701645058586, 19.93610361847416 -15.976685244726282, 20.436592844578712 -15.627565626425154 C20.703604359800668 -15.414631048510476, 20.970615875022624 -15.201696470595797, 21.41389120850187 -14.848196188198123 C21.736784043023594 -14.554953459161739, 22.059676877545314 -14.261710730125357, 22.339247236767985 -14.007812326905688 C22.615163615090736 -13.722906013131494, 22.891079993413488 -13.437999699357302, 23.208858442968648 -13.10986736009568 C23.372450057201892 -12.917703341390762, 23.536041671435132 -12.725539322685846, 24.019151408126582 -12.158051136245305 C24.192862350957864 -11.925294298243838, 24.366573293789145 -11.69253746024237, 24.766796464640635 -11.156274872382312 C24.981769655711787 -10.826018322512482, 25.196742846782943 -10.495761772642654, 25.448721378604247 -10.108655082055241 C25.595023560145602 -9.848880744026232, 25.74132574168696 -9.58910640599722, 26.0621239742735 -9.019496659696287 C26.26446046785552 -8.599340601465805, 26.466796961437538 -8.179184543235321, 26.60448364880834 -7.893275190886684 C26.700234153304475 -7.656769593571167, 26.79598465780061 -7.42026399625565, 27.073571729970325 -6.734618561215508 C27.181947822096372 -6.408207039117176, 27.29032391422242 -6.081795517018844, 27.46746063421488 -5.548287939305138 C27.576862358889915 -5.131091748111822, 27.68626408356495 -4.713895556918506, 27.78453178754556 -4.339158212148133 C27.83321325132075 -4.0891891844935495, 27.88189471509594 -3.839220156838967, 28.023482276581777 -3.1121979531509023 C28.061667605736453 -2.8160400807733867, 28.099852934891125 -2.519882208395871, 28.183330202509367 -1.872449005199798 C28.210992097700345 -1.4415926593203745, 28.238653992891326 -1.010736313440951, 28.263418715913414 -0.6250057626472757 C28.263418715913414 -0.2146090539262817, 28.263418715913414 0.19578765479471227, 28.263418715913414 0.625005762647271 C28.23651922104285 1.04398710813777, 28.209619726172285 1.4629684536282692, 28.183330202509367 1.8724490051997846 C28.13457147061604 2.25061210126374, 28.08581273872272 2.6287751973276947, 28.023482276581777 3.1121979531508885 C27.948418013738813 3.497637078011949, 27.873353750895845 3.883076202873009, 27.78453178754556 4.339158212148129 C27.68427701960276 4.721473093005309, 27.58402225165996 5.10378797386249, 27.467460634214884 5.548287939305125 C27.32174268996149 5.987167170394862, 27.176024745708098 6.4260464014846, 27.07357172997033 6.734618561215495 C26.913705332305717 7.129491654253616, 26.75383893464111 7.524364747291737, 26.604483648808344 7.893275190886679 C26.48110450397297 8.149474625028134, 26.357725359137593 8.40567405916959, 26.062123974273504 9.019496659696284 C25.867506099752134 9.365060403105748, 25.67288822523076 9.710624146515212, 25.44872137860425 10.108655082055236 C25.214117005661848 10.469070398989746, 24.979512632719445 10.829485715924257, 24.76679646464064 11.156274872382301 C24.55369591894432 11.441810189756279, 24.340595373248 11.727345507130257, 24.019151408126582 12.158051136245302 C23.749474608898723 12.474828849662925, 23.479797809670867 12.79160656308055, 23.20885844296866 13.10986736009567 C22.955788402122952 13.371182954705624, 22.702718361277245 13.632498549315578, 22.33924723676799 14.007812326905684 C22.106916241716092 14.21880918947054, 21.874585246664196 14.429806052035396, 21.413891208501887 14.848196188198111 C21.02363388662176 15.159416017214026, 20.633376564741635 15.470635846229943, 20.436592844578715 15.627565626425152 C20.209700375720853 15.785835990683722, 19.982807906862995 15.944106354942292, 19.411368073605708 16.34271804539089 C19.167503177179725 16.490550378713525, 18.92363828075374 16.638382712036158, 18.342429764076787 16.990714730406093 C18.08868497872772 17.12309322239141, 17.834940193378653 17.255471714376725, 17.234170412792388 17.56889292409717 C16.794135869991475 17.7636831630342, 16.354101327190563 17.958473401971233, 16.091144095147804 18.07487676824742 C15.79969104584379 18.182134184553753, 15.508237996539776 18.289391600860082, 14.918047751460616 18.506587066708033 C14.568891250874268 18.61021488332219, 14.219734750287918 18.71384269993635, 13.719701886235413 18.86224982926107 C13.350808520735624 18.94644733268222, 12.981915155235837 19.030644836103363, 12.501030759676766 19.140403561325773 C12.11596447547744 19.202658091921485, 11.730898191278115 19.2649126225172, 11.267042152847878 19.3399052695533 C10.977682482624962 19.367819448933783, 10.688322812402046 19.39573362831427, 10.0228067896239 19.45993515863156 C9.639029388122456 19.472242152920316, 9.255251986621012 19.48454914720907, 8.773437500000004 19.5 C8.773437500000002 19.5, 8.773437500000002 19.5, 8.7734375 19.5 C2.2544331016676695 19.5, -4.264571296664661 19.5, -8.773437499999996 19.5 C-9.082423246841223 19.490091428503074, -9.391408993682449 19.480182857006145, -10.022806789623893 19.45993515863156 C-10.516209229297251 19.41233721867952, -11.00961166897061 19.364739278727484, -11.267042152847871 19.3399052695533 C-11.72686902407932 19.265564027023242, -12.186695895310772 19.191222784493185, -12.501030759676759 19.140403561325773 C-12.97026274808476 19.033304421996533, -13.439494736492762 18.926205282667294, -13.719701886235388 18.862249829261074 C-14.136689530504215 18.7384900852549, -14.553677174773043 18.61473034124872, -14.918047751460593 18.506587066708043 C-15.160593044983314 18.417328156627566, -15.403138338506034 18.32806924654709, -16.091144095147797 18.074876768247425 C-16.484884650497413 17.900579504292736, -16.87862520584703 17.726282240338048, -17.23417041279238 17.568892924097174 C-17.627567618182045 17.36365785402832, -18.020964823571706 17.158422783959473, -18.34242976407678 16.990714730406097 C-18.73230731581758 16.754368667366016, -19.122184867558374 16.51802260432593, -19.411368073605686 16.3427180453909 C-19.745821475842025 16.109417830245267, -20.08027487807836 15.876117615099634, -20.436592844578712 15.627565626425156 C-20.677627354970763 15.435347018585194, -20.918661865362818 15.243128410745234, -21.41389120850187 14.848196188198125 C-21.69563106151241 14.592327508121972, -21.977370914522954 14.336458828045817, -22.339247236767974 14.007812326905697 C-22.56705964854287 13.77257730800127, -22.79487206031776 13.537342289096845, -23.208858442968655 13.109867360095677 C-23.417884365533155 12.864333617539483, -23.62691028809765 12.61879987498329, -24.01915140812658 12.158051136245307 C-24.174634008790996 11.949718616111303, -24.330116609455416 11.741386095977301, -24.766796464640635 11.156274872382316 C-24.979958155946235 10.82880127260817, -25.19311984725184 10.501327672834023, -25.448721378604244 10.108655082055249 C-25.57808148433508 9.878963115199026, -25.707441590065912 9.649271148342804, -26.0621239742735 9.019496659696289 C-26.26165915477686 8.605157588012135, -26.461194335280222 8.190818516327983, -26.60448364880834 7.893275190886686 C-26.71462006413663 7.621236115683086, -26.824756479464913 7.349197040479485, -27.073571729970325 6.73461856121551 C-27.215040541425964 6.308537041105242, -27.3565093528816 5.882455520994974, -27.46746063421488 5.5482879393051325 C-27.566403366061945 5.170976420721038, -27.66534609790901 4.793664902136944, -27.784531787545557 4.339158212148136 C-27.838319139764835 4.062971526463076, -27.89210649198411 3.786784840778016, -28.023482276581777 3.112197953150904 C-28.060188739979008 2.8275098715530347, -28.09689520337624 2.5428217899551653, -28.183330202509364 1.872449005199809 C-28.206367179844946 1.5136294880846937, -28.22940415718053 1.1548099709695783, -28.263418715913414 0.6250057626472781 C-28.263418715913414 0.23716131908785665, -28.263418715913414 -0.15068312447156484, -28.263418715913414 -0.6250057626472687 C-28.240321660529546 -0.9847610438585592, -28.217224605145677 -1.3445163250698497, -28.183330202509367 -1.8724490051997822 C-28.122253788780206 -2.346145609181078, -28.06117737505105 -2.8198422131623735, -28.023482276581777 -3.112197953150895 C-27.932231208621506 -3.580752901206851, -27.840980140661234 -4.0493078492628065, -27.78453178754556 -4.339158212148126 C-27.670067328015765 -4.775660805545813, -27.555602868485966 -5.2121633989435, -27.467460634214884 -5.548287939305123 C-27.371110660735003 -5.838478708142998, -27.27476068725512 -6.128669476980872, -27.073571729970332 -6.734618561215485 C-26.959732023391982 -7.015804837405008, -26.845892316813632 -7.2969911135945305, -26.604483648808344 -7.893275190886676 C-26.467893632284763 -8.176907282756062, -26.331303615761183 -8.460539374625448, -26.062123974273504 -9.019496659696282 C-25.8506367171075 -9.39501370020152, -25.639149459941493 -9.770530740706759, -25.448721378604247 -10.108655082055243 C-25.194872389041507 -10.498635298021732, -24.941023399478766 -10.888615513988222, -24.76679646464064 -11.156274872382308 C-24.473791368477006 -11.548875007928187, -24.18078627231337 -11.941475143474065, -24.019151408126586 -12.158051136245302 C-23.77303725141067 -12.447150829016056, -23.526923094694755 -12.736250521786813, -23.208858442968662 -13.10986736009567 C-23.00890749624272 -13.316333128868234, -22.808956549516775 -13.522798897640795, -22.339247236767996 -14.007812326905677 C-21.987297978517493 -14.327443331181696, -21.63534872026699 -14.647074335457715, -21.413891208501887 -14.848196188198107 C-21.11186136165328 -15.089056953708102, -20.80983151480467 -15.329917719218097, -20.43659284457872 -15.627565626425149 C-20.048809170383475 -15.898066730659052, -19.661025496188234 -16.168567834892954, -19.41136807360571 -16.342718045390885 C-19.116911128304128 -16.521219576053788, -18.822454183002545 -16.69972110671669, -18.34242976407679 -16.99071473040609 C-17.9506097030241 -17.195127005284554, -17.558789641971405 -17.399539280163015, -17.234170412792388 -17.56889292409717 C-16.78179079481569 -17.769147961610877, -16.329411176838992 -17.969402999124586, -16.091144095147804 -18.07487676824742 C-15.673995567269893 -18.228391282585214, -15.256847039391982 -18.381905796923004, -14.918047751460618 -18.506587066708033 C-14.478456248617439 -18.637055517289003, -14.03886474577426 -18.767523967869973, -13.719701886235413 -18.862249829261067 C-13.43922822211446 -18.92626611283497, -13.158754557993507 -18.990282396408873, -12.501030759676768 -19.140403561325773 C-12.251958408878496 -19.18067164741791, -12.002886058080223 -19.220939733510047, -11.26704215284788 -19.3399052695533 C-10.785261709331166 -19.3863820495136, -10.303481265814453 -19.4328588294739, -10.022806789623903 -19.45993515863156 C-9.668142193221685 -19.47130856192542, -9.313477596819467 -19.48268196521928, -8.773437500000005 -19.5 C-8.773437500000004 -19.5, -8.773437500000002 -19.5, -8.7734375 -19.5" stroke="none" stroke-width="0" fill="#1168bd" style="fill:#1168bd !important;stroke:#0e5aa7 !important;stroke-width:2px !important"/><path d="M-8.7734375 -19.5 C-4.487613932974747 -19.5, -0.20179036594949373 -19.5, 8.7734375 -19.5 M-8.7734375 -19.5 C-4.420588812291998 -19.5, -0.06774012458399525 -19.5, 8.7734375 -19.5 M8.7734375 -19.5 C8.7734375 -19.5, 8.7734375 -19.5, 8.773437499999998 -19.5 M8.7734375 -19.5 C8.7734375 -19.5, 8.773437499999998 -19.5, 8.773437499999998 -19.5 M8.773437499999998 -19.5 C9.051844124607964 -19.491072041434442, 9.330250749215928 -19.482144082868885, 10.0228067896239 -19.45993515863156 M8.773437499999998 -19.5 C9.06466451445868 -19.490660916485307, 9.355891528917363 -19.48132183297061, 10.0228067896239 -19.45993515863156 M10.0228067896239 -19.45993515863156 C10.305682751541632 -19.432646454793474, 10.588558713459364 -19.40535775095539, 11.267042152847864 -19.3399052695533 M10.0228067896239 -19.45993515863156 C10.459848763101789 -19.41777424507002, 10.896890736579678 -19.375613331508482, 11.267042152847864 -19.3399052695533 M11.267042152847864 -19.3399052695533 C11.546046323094487 -19.29479803901748, 11.825050493341108 -19.249690808481663, 12.501030759676757 -19.140403561325776 M11.267042152847864 -19.3399052695533 C11.525957450063467 -19.298045852217598, 11.784872747279069 -19.2561864348819, 12.501030759676757 -19.140403561325776 M12.501030759676757 -19.140403561325776 C12.935654523119982 -19.041203523504972, 13.370278286563208 -18.942003485684165, 13.71970188623539 -18.862249829261074 M12.501030759676757 -19.140403561325776 C12.847899237703285 -19.061233094744576, 13.19476771572981 -18.98206262816338, 13.71970188623539 -18.862249829261074 M13.71970188623539 -18.862249829261074 C13.992796747264462 -18.781196708011823, 14.265891608293535 -18.700143586762575, 14.918047751460602 -18.50658706670804 M13.71970188623539 -18.862249829261074 C14.059556916443277 -18.76138264023083, 14.399411946651163 -18.660515451200588, 14.918047751460602 -18.50658706670804 M14.918047751460602 -18.50658706670804 C15.188012198388519 -18.407237654714574, 15.457976645316435 -18.30788824272111, 16.091144095147794 -18.074876768247425 M14.918047751460602 -18.50658706670804 C15.262756567692925 -18.37973103588118, 15.607465383925248 -18.252875005054317, 16.091144095147794 -18.074876768247425 M16.091144095147794 -18.074876768247425 C16.421442788600004 -17.92866333461875, 16.751741482052214 -17.782449900990077, 17.23417041279238 -17.568892924097174 M16.091144095147794 -18.074876768247425 C16.45598639604643 -17.913371904301925, 16.820828696945068 -17.751867040356426, 17.23417041279238 -17.568892924097174 M17.23417041279238 -17.568892924097174 C17.55433384878065 -17.401863864616562, 17.874497284768918 -17.234834805135954, 18.342429764076783 -16.990714730406097 M17.23417041279238 -17.568892924097174 C17.495023403183552 -17.432806086094416, 17.755876393574724 -17.296719248091655, 18.342429764076783 -16.990714730406097 M18.342429764076783 -16.990714730406097 C18.67968530352744 -16.786268440457565, 19.016940842978098 -16.581822150509037, 19.411368073605697 -16.342718045390892 M18.342429764076783 -16.990714730406097 C18.66608717544207 -16.79451170561439, 18.98974458680735 -16.598308680822683, 19.411368073605697 -16.342718045390892 M19.411368073605697 -16.342718045390892 C19.797340403759492 -16.073480456348484, 20.18331273391329 -15.804242867306076, 20.436592844578712 -15.627565626425154 M19.411368073605697 -16.342718045390892 C19.618965664443152 -16.19790695277755, 19.826563255280604 -16.05309586016421, 20.436592844578712 -15.627565626425154 M20.436592844578712 -15.627565626425154 C20.636675424889606 -15.46800509304829, 20.836758005200497 -15.308444559671425, 21.41389120850187 -14.848196188198123 M20.436592844578712 -15.627565626425154 C20.708948118968543 -15.410369542777499, 20.981303393358374 -15.193173459129843, 21.41389120850187 -14.848196188198123 M21.41389120850187 -14.848196188198123 C21.766622496688086 -14.527854965025867, 22.119353784874306 -14.20751374185361, 22.339247236767985 -14.007812326905688 M21.41389120850187 -14.848196188198123 C21.658056341038538 -14.626451875083717, 21.902221473575207 -14.40470756196931, 22.339247236767985 -14.007812326905688 M22.339247236767985 -14.007812326905688 C22.55238023025752 -13.78773501258355, 22.76551322374705 -13.567657698261414, 23.208858442968648 -13.10986736009568 M22.339247236767985 -14.007812326905688 C22.686632024760787 -13.649109012481611, 23.03401681275359 -13.290405698057533, 23.208858442968648 -13.10986736009568 M23.208858442968648 -13.10986736009568 C23.491909152692777 -12.777379890412073, 23.774959862416907 -12.444892420728465, 24.019151408126582 -12.158051136245305 M23.208858442968648 -13.10986736009568 C23.423282876593277 -12.857992219264277, 23.637707310217905 -12.606117078432874, 24.019151408126582 -12.158051136245305 M24.019151408126582 -12.158051136245305 C24.289495363693597 -11.795814864626522, 24.559839319260607 -11.433578593007736, 24.766796464640635 -11.156274872382312 M24.019151408126582 -12.158051136245305 C24.300275891510562 -11.781369939478076, 24.581400374894542 -11.404688742710844, 24.766796464640635 -11.156274872382312 M24.766796464640635 -11.156274872382312 C24.96621183180151 -10.849919317899346, 25.165627198962383 -10.54356376341638, 25.448721378604247 -10.108655082055241 M24.766796464640635 -11.156274872382312 C24.95946693137264 -10.86028129621746, 25.15213739810464 -10.564287720052608, 25.448721378604247 -10.108655082055241 M25.448721378604247 -10.108655082055241 C25.643090162577643 -9.76353362413686, 25.83745894655104 -9.418412166218479, 26.0621239742735 -9.019496659696287 M25.448721378604247 -10.108655082055241 C25.693695163998832 -9.673679319801481, 25.93866894939342 -9.238703557547721, 26.0621239742735 -9.019496659696287 M26.0621239742735 -9.019496659696287 C26.249313240571013 -8.630794143020823, 26.43650250686853 -8.24209162634536, 26.60448364880834 -7.893275190886684 M26.0621239742735 -9.019496659696287 C26.252793909372436 -8.623566459780289, 26.44346384447137 -8.22763625986429, 26.60448364880834 -7.893275190886684 M26.60448364880834 -7.893275190886684 C26.772421736481895 -7.478464867470963, 26.94035982415545 -7.063654544055242, 27.073571729970325 -6.734618561215508 M26.60448364880834 -7.893275190886684 C26.760789064779075 -7.5071977914793315, 26.917094480749814 -7.121120392071979, 27.073571729970325 -6.734618561215508 M27.073571729970325 -6.734618561215508 C27.223101165332928 -6.2842597261834685, 27.372630600695533 -5.83390089115143, 27.46746063421488 -5.548287939305138 M27.073571729970325 -6.734618561215508 C27.173005788954026 -6.435139018222426, 27.272439847937726 -6.135659475229343, 27.46746063421488 -5.548287939305138 M27.46746063421488 -5.548287939305138 C27.570475629444456 -5.1554471155134145, 27.67349062467403 -4.762606291721691, 27.78453178754556 -4.339158212148133 M27.46746063421488 -5.548287939305138 C27.5722280545034 -5.148764359257831, 27.67699547479192 -4.749240779210525, 27.78453178754556 -4.339158212148133 M27.78453178754556 -4.339158212148133 C27.84330006101889 -4.037395548541582, 27.90206833449222 -3.73563288493503, 28.023482276581777 -3.1121979531509023 M27.78453178754556 -4.339158212148133 C27.86024942201562 -3.950364162072095, 27.935967056485676 -3.5615701119960566, 28.023482276581777 -3.1121979531509023 M28.023482276581777 -3.1121979531509023 C28.08556124063063 -2.6307257668660355, 28.14764020467948 -2.1492535805811688, 28.183330202509367 -1.872449005199798 M28.023482276581777 -3.1121979531509023 C28.05918915857023 -2.835262427569832, 28.094896040558687 -2.558326901988762, 28.183330202509367 -1.872449005199798 M28.183330202509367 -1.872449005199798 C28.20527963748768 -1.5305688381475147, 28.227229072465995 -1.1886886710952314, 28.263418715913414 -0.6250057626472757 M28.183330202509367 -1.872449005199798 C28.21046099454344 -1.449865019687969, 28.237591786577507 -1.0272810341761403, 28.263418715913414 -0.6250057626472757 M28.263418715913414 -0.6250057626472757 C28.263418715913414 -0.2823150315053698, 28.263418715913414 0.060375699636536106, 28.263418715913414 0.625005762647271 M28.263418715913414 -0.6250057626472757 C28.263418715913414 -0.14210069884102783, 28.263418715913414 0.34080436496522004, 28.263418715913414 0.625005762647271 M28.263418715913414 0.625005762647271 C28.242386889667603 0.9525934330103467, 28.221355063421793 1.2801811033734223, 28.183330202509367 1.8724490051997846 M28.263418715913414 0.625005762647271 C28.237911426954994 1.0223023772877506, 28.21240413799657 1.4195989919282304, 28.183330202509367 1.8724490051997846 M28.183330202509367 1.8724490051997846 C28.13091734015105 2.278952815560532, 28.078504477792738 2.685456625921279, 28.023482276581777 3.1121979531508885 M28.183330202509367 1.8724490051997846 C28.146391675203994 2.1589369286430107, 28.109453147898616 2.4454248520862367, 28.023482276581777 3.1121979531508885 M28.023482276581777 3.1121979531508885 C27.940270733716314 3.5394716389992356, 27.85705919085085 3.966745324847582, 27.78453178754556 4.339158212148129 M28.023482276581777 3.1121979531508885 C27.938986142277408 3.5460677445395214, 27.854490007973038 3.9799375359281544, 27.78453178754556 4.339158212148129 M27.78453178754556 4.339158212148129 C27.65970378175937 4.815181499010813, 27.534875775973177 5.291204785873498, 27.467460634214884 5.548287939305125 M27.78453178754556 4.339158212148129 C27.679134466042417 4.7410838785277125, 27.573737144539272 5.1430095449072954, 27.467460634214884 5.548287939305125 M27.467460634214884 5.548287939305125 C27.313343110849512 6.01246536438895, 27.15922558748414 6.476642789472773, 27.07357172997033 6.734618561215495 M27.467460634214884 5.548287939305125 C27.32168303866211 5.98734683060446, 27.17590544310933 6.426405721903794, 27.07357172997033 6.734618561215495 M27.07357172997033 6.734618561215495 C26.974733631128217 6.978750576260159, 26.8758955322861 7.222882591304825, 26.604483648808344 7.893275190886679 M27.07357172997033 6.734618561215495 C26.96973234308903 6.991103854410269, 26.865892956207734 7.2475891476050425, 26.604483648808344 7.893275190886679 M26.604483648808344 7.893275190886679 C26.49555675188476 8.119464223010732, 26.386629854961175 8.345653255134787, 26.062123974273504 9.019496659696284 M26.604483648808344 7.893275190886679 C26.420337796569843 8.275657993149974, 26.236191944331342 8.65804079541327, 26.062123974273504 9.019496659696284 M26.062123974273504 9.019496659696284 C25.900163758449917 9.307073423141295, 25.738203542626334 9.594650186586305, 25.44872137860425 10.108655082055236 M26.062123974273504 9.019496659696284 C25.93937565287002 9.237448733963532, 25.816627331466535 9.455400808230781, 25.44872137860425 10.108655082055236 M25.44872137860425 10.108655082055236 C25.18527993757981 10.513371879400776, 24.92183849655537 10.918088676746315, 24.76679646464064 11.156274872382301 M25.44872137860425 10.108655082055236 C25.23215702948226 10.441356077976913, 25.01559268036027 10.77405707389859, 24.76679646464064 11.156274872382301 M24.76679646464064 11.156274872382301 C24.550872057761794 11.44559390648182, 24.334947650882942 11.734912940581339, 24.019151408126582 12.158051136245302 M24.76679646464064 11.156274872382301 C24.489613337579783 11.527675010741495, 24.212430210518924 11.89907514910069, 24.019151408126582 12.158051136245302 M24.019151408126582 12.158051136245302 C23.742057442528676 12.483541475329908, 23.46496347693077 12.809031814414514, 23.20885844296866 13.10986736009567 M24.019151408126582 12.158051136245302 C23.79874260717834 12.416955855455168, 23.578333806230102 12.675860574665032, 23.20885844296866 13.10986736009567 M23.20885844296866 13.10986736009567 C22.88820121037098 13.440972279201175, 22.5675439777733 13.772077198306679, 22.33924723676799 14.007812326905684 M23.20885844296866 13.10986736009567 C22.912429488974727 13.41595459236414, 22.616000534980795 13.722041824632608, 22.33924723676799 14.007812326905684 M22.33924723676799 14.007812326905684 C22.07633138425773 14.246585547783242, 21.81341553174747 14.4853587686608, 21.413891208501887 14.848196188198111 M22.33924723676799 14.007812326905684 C22.104802246265532 14.220729064205488, 21.87035725576307 14.433645801505289, 21.413891208501887 14.848196188198111 M21.413891208501887 14.848196188198111 C21.080087905884888 15.114395439156228, 20.746284603267892 15.380594690114345, 20.436592844578715 15.627565626425152 M21.413891208501887 14.848196188198111 C21.19824374356581 15.020169302864584, 20.982596278629735 15.192142417531056, 20.436592844578715 15.627565626425152 M20.436592844578715 15.627565626425152 C20.05525756829731 15.89356860742101, 19.673922292015906 16.159571588416867, 19.411368073605708 16.34271804539089 M20.436592844578715 15.627565626425152 C20.116364516777228 15.850943045438584, 19.79613618897574 16.074320464452015, 19.411368073605708 16.34271804539089 M19.411368073605708 16.34271804539089 C19.039008838295512 16.568444402061687, 18.666649602985316 16.79417075873248, 18.342429764076787 16.990714730406093 M19.411368073605708 16.34271804539089 C19.1877198028039 16.478294941454067, 18.964071532002098 16.613871837517248, 18.342429764076787 16.990714730406093 M18.342429764076787 16.990714730406093 C18.11148888729188 17.111196437900087, 17.880548010506974 17.23167814539408, 17.234170412792388 17.56889292409717 M18.342429764076787 16.990714730406093 C17.904100230797024 17.21939096715468, 17.465770697517257 17.448067203903268, 17.234170412792388 17.56889292409717 M17.234170412792388 17.56889292409717 C16.942473234043238 17.69801861224005, 16.650776055294088 17.82714430038293, 16.091144095147804 18.07487676824742 M17.234170412792388 17.56889292409717 C16.95598158027473 17.69203886807422, 16.677792747757074 17.81518481205127, 16.091144095147804 18.07487676824742 M16.091144095147804 18.07487676824742 C15.797480588100168 18.182947653436653, 15.503817081052532 18.291018538625885, 14.918047751460616 18.506587066708033 M16.091144095147804 18.07487676824742 C15.730983207492383 18.207419304195366, 15.370822319836961 18.33996184014331, 14.918047751460616 18.506587066708033 M14.918047751460616 18.506587066708033 C14.619141220869114 18.595300955995196, 14.320234690277612 18.68401484528236, 13.719701886235413 18.86224982926107 M14.918047751460616 18.506587066708033 C14.44694517225347 18.646407839348814, 13.975842593046323 18.786228611989596, 13.719701886235413 18.86224982926107 M13.719701886235413 18.86224982926107 C13.240806908785773 18.971554482782167, 12.761911931336133 19.080859136303268, 12.501030759676766 19.140403561325773 M13.719701886235413 18.86224982926107 C13.301464404999697 18.957709805098496, 12.883226923763981 19.05316978093592, 12.501030759676766 19.140403561325773 M12.501030759676766 19.140403561325773 C12.117005647457407 19.202489763310176, 11.732980535238049 19.264575965294576, 11.267042152847878 19.3399052695533 M12.501030759676766 19.140403561325773 C12.225680890108547 19.18491999286743, 11.950331020540329 19.22943642440909, 11.267042152847878 19.3399052695533 M11.267042152847878 19.3399052695533 C10.959061763200268 19.369615767341994, 10.651081373552657 19.39932626513069, 10.0228067896239 19.45993515863156 M11.267042152847878 19.3399052695533 C10.786550204186325 19.386257749964564, 10.306058255524773 19.43261023037583, 10.0228067896239 19.45993515863156 M10.0228067896239 19.45993515863156 C9.697532173635409 19.470366082457677, 9.37225755764692 19.480797006283797, 8.773437500000004 19.5 M10.0228067896239 19.45993515863156 C9.726738226341718 19.46942950119352, 9.430669663059536 19.47892384375548, 8.773437500000004 19.5 M8.773437500000004 19.5 C8.773437500000002 19.5, 8.773437500000002 19.5, 8.7734375 19.5 M8.773437500000004 19.5 C8.773437500000002 19.5, 8.773437500000002 19.5, 8.7734375 19.5 M8.7734375 19.5 C2.2817989627523136 19.5, -4.209839574495373 19.5, -8.773437499999996 19.5 M8.7734375 19.5 C4.97673435962567 19.5, 1.1800312192513402 19.5, -8.773437499999996 19.5 M-8.773437499999996 19.5 C-9.223457166082202 19.485568745218885, -9.673476832164408 19.471137490437773, -10.022806789623893 19.45993515863156 M-8.773437499999996 19.5 C-9.255252818566946 19.484549120530183, -9.737068137133898 19.469098241060365, -10.022806789623893 19.45993515863156 M-10.022806789623893 19.45993515863156 C-10.274839610307799 19.435621855533995, -10.526872430991707 19.411308552436434, -11.267042152847871 19.3399052695533 M-10.022806789623893 19.45993515863156 C-10.410322318930508 19.42255200157496, -10.797837848237123 19.38516884451836, -11.267042152847871 19.3399052695533 M-11.267042152847871 19.3399052695533 C-11.740319565452005 19.263389447804613, -12.21359697805614 19.186873626055927, -12.501030759676759 19.140403561325773 M-11.267042152847871 19.3399052695533 C-11.701636737223163 19.269643387482837, -12.136231321598455 19.19938150541238, -12.501030759676759 19.140403561325773 M-12.501030759676759 19.140403561325773 C-12.877738850687258 19.054422397802657, -13.254446941697758 18.96844123427954, -13.719701886235388 18.862249829261074 M-12.501030759676759 19.140403561325773 C-12.835143758565101 19.064144449620585, -13.169256757453441 18.987885337915397, -13.719701886235388 18.862249829261074 M-13.719701886235388 18.862249829261074 C-14.141744473525964 18.73698980469998, -14.563787060816543 18.611729780138884, -14.918047751460593 18.506587066708043 M-13.719701886235388 18.862249829261074 C-14.09257364441374 18.75158344867754, -14.465445402592094 18.640917068094005, -14.918047751460593 18.506587066708043 M-14.918047751460593 18.506587066708043 C-15.205202526244598 18.40091145515789, -15.492357301028605 18.295235843607735, -16.091144095147797 18.074876768247425 M-14.918047751460593 18.506587066708043 C-15.156491260739562 18.418837651145743, -15.394934770018532 18.331088235583447, -16.091144095147797 18.074876768247425 M-16.091144095147797 18.074876768247425 C-16.426639054226587 17.926363101967606, -16.76213401330538 17.777849435687788, -17.23417041279238 17.568892924097174 M-16.091144095147797 18.074876768247425 C-16.421406278230616 17.92867949667624, -16.751668461313436 17.782482225105053, -17.23417041279238 17.568892924097174 M-17.23417041279238 17.568892924097174 C-17.612583242063465 17.371475193451435, -17.99099607133455 17.174057462805695, -18.34242976407678 16.990714730406097 M-17.23417041279238 17.568892924097174 C-17.58450112283884 17.386125617063463, -17.934831832885305 17.203358310029753, -18.34242976407678 16.990714730406097 M-18.34242976407678 16.990714730406097 C-18.633800086786383 16.814084328497458, -18.925170409495983 16.637453926588822, -19.411368073605686 16.3427180453909 M-18.34242976407678 16.990714730406097 C-18.682882232906906 16.784330443080492, -19.02333470173703 16.577946155754884, -19.411368073605686 16.3427180453909 M-19.411368073605686 16.3427180453909 C-19.663883269190375 16.16657437615766, -19.91639846477506 15.99043070692442, -20.436592844578712 15.627565626425156 M-19.411368073605686 16.3427180453909 C-19.688552405105053 16.149366254853263, -19.965736736604416 15.956014464315626, -20.436592844578712 15.627565626425156 M-20.436592844578712 15.627565626425156 C-20.67548911903881 15.437052204840079, -20.91438539349891 15.246538783255003, -21.41389120850187 14.848196188198125 M-20.436592844578712 15.627565626425156 C-20.790179814435728 15.34558942730862, -21.143766784292744 15.063613228192086, -21.41389120850187 14.848196188198125 M-21.41389120850187 14.848196188198125 C-21.707982039114693 14.58111067705254, -22.002072869727517 14.314025165906953, -22.339247236767974 14.007812326905697 M-21.41389120850187 14.848196188198125 C-21.702427760478482 14.586154925951787, -21.990964312455095 14.324113663705447, -22.339247236767974 14.007812326905697 M-22.339247236767974 14.007812326905697 C-22.538562614899515 13.802002834888006, -22.737877993031056 13.596193342870317, -23.208858442968655 13.109867360095677 M-22.339247236767974 14.007812326905697 C-22.67887733424227 13.657116367113911, -23.018507431716564 13.306420407322125, -23.208858442968655 13.109867360095677 M-23.208858442968655 13.109867360095677 C-23.387619170207756 12.899884838107095, -23.566379897446858 12.689902316118513, -24.01915140812658 12.158051136245307 M-23.208858442968655 13.109867360095677 C-23.422023913471413 12.85947106898425, -23.635189383974176 12.609074777872824, -24.01915140812658 12.158051136245307 M-24.01915140812658 12.158051136245307 C-24.233006188935615 11.871505212532524, -24.44686096974465 11.584959288819743, -24.766796464640635 11.156274872382316 M-24.01915140812658 12.158051136245307 C-24.199172557474167 11.916839196383629, -24.379193706821756 11.67562725652195, -24.766796464640635 11.156274872382316 M-24.766796464640635 11.156274872382316 C-25.009490358520964 10.783431878946622, -25.252184252401292 10.41058888551093, -25.448721378604244 10.108655082055249 M-24.766796464640635 11.156274872382316 C-24.980497780407063 10.827972264526885, -25.194199096173488 10.499669656671454, -25.448721378604244 10.108655082055249 M-25.448721378604244 10.108655082055249 C-25.612238452799 9.818313958923218, -25.77575552699376 9.527972835791187, -26.0621239742735 9.019496659696289 M-25.448721378604244 10.108655082055249 C-25.58494215399435 9.866781301500852, -25.721162929384455 9.624907520946458, -26.0621239742735 9.019496659696289 M-26.0621239742735 9.019496659696289 C-26.175620155125134 8.783819411728627, -26.289116335976768 8.548142163760968, -26.60448364880834 7.893275190886686 M-26.0621239742735 9.019496659696289 C-26.217784552415377 8.696264138581858, -26.373445130557258 8.37303161746743, -26.60448364880834 7.893275190886686 M-26.60448364880834 7.893275190886686 C-26.76321230599358 7.5012123388293315, -26.921940963178816 7.109149486771977, -27.073571729970325 6.73461856121551 M-26.60448364880834 7.893275190886686 C-26.71724711505653 7.614747249120352, -26.83001058130472 7.336219307354019, -27.073571729970325 6.73461856121551 M-27.073571729970325 6.73461856121551 C-27.205935050710433 6.33596132837749, -27.33829837145054 5.93730409553947, -27.46746063421488 5.5482879393051325 M-27.073571729970325 6.73461856121551 C-27.159270235533683 6.476508316661262, -27.24496874109704 6.2183980721070125, -27.46746063421488 5.5482879393051325 M-27.46746063421488 5.5482879393051325 C-27.560289122366825 5.194292681860506, -27.65311761051877 4.84029742441588, -27.784531787545557 4.339158212148136 M-27.46746063421488 5.5482879393051325 C-27.53923392916977 5.274585258899332, -27.61100722412466 5.000882578493533, -27.784531787545557 4.339158212148136 M-27.784531787545557 4.339158212148136 C-27.84292251735843 4.0393341554441475, -27.901313247171306 3.7395100987401593, -28.023482276581777 3.112197953150904 M-27.784531787545557 4.339158212148136 C-27.845290457637507 4.02717528257544, -27.90604912772946 3.7151923530027453, -28.023482276581777 3.112197953150904 M-28.023482276581777 3.112197953150904 C-28.08522385111486 2.6333424933252205, -28.14696542564795 2.154487033499537, -28.183330202509364 1.872449005199809 M-28.023482276581777 3.112197953150904 C-28.084383349837676 2.639861255255328, -28.145284423093575 2.1675245573597524, -28.183330202509364 1.872449005199809 M-28.183330202509364 1.872449005199809 C-28.207086305870074 1.5024285197752203, -28.23084240923079 1.1324080343506315, -28.263418715913414 0.6250057626472781 M-28.183330202509364 1.872449005199809 C-28.214323978047936 1.3896959334612082, -28.24531775358651 0.9069428617226075, -28.263418715913414 0.6250057626472781 M-28.263418715913414 0.6250057626472781 C-28.263418715913414 0.3340814289148078, -28.263418715913414 0.04315709518233746, -28.263418715913414 -0.6250057626472687 M-28.263418715913414 0.6250057626472781 C-28.263418715913414 0.23560874191248643, -28.263418715913414 -0.15378827882230528, -28.263418715913414 -0.6250057626472687 M-28.263418715913414 -0.6250057626472687 C-28.245303340775934 -0.907167352881135, -28.227187965638457 -1.1893289431150014, -28.183330202509367 -1.8724490051997822 M-28.263418715913414 -0.6250057626472687 C-28.234110647338618 -1.0815025877468905, -28.20480257876382 -1.5379994128465122, -28.183330202509367 -1.8724490051997822 M-28.183330202509367 -1.8724490051997822 C-28.14601114825502 -2.1618882205157, -28.10869209400067 -2.451327435831618, -28.023482276581777 -3.112197953150895 M-28.183330202509367 -1.8724490051997822 C-28.14890909837887 -2.139412291620098, -28.11448799424837 -2.4063755780404135, -28.023482276581777 -3.112197953150895 M-28.023482276581777 -3.112197953150895 C-27.974564968252416 -3.363377992745381, -27.925647659923058 -3.614558032339866, -27.78453178754556 -4.339158212148126 M-28.023482276581777 -3.112197953150895 C-27.95535665557224 -3.4620086186797816, -27.8872310345627 -3.8118192842086684, -27.78453178754556 -4.339158212148126 M-27.78453178754556 -4.339158212148126 C-27.663353769465218 -4.801262513973729, -27.542175751384875 -5.263366815799332, -27.467460634214884 -5.548287939305123 M-27.78453178754556 -4.339158212148126 C-27.672775365005315 -4.765333886834001, -27.56101894246507 -5.191509561519876, -27.467460634214884 -5.548287939305123 M-27.467460634214884 -5.548287939305123 C-27.31614654762194 -6.004021859497386, -27.164832461028997 -6.459755779689649, -27.073571729970332 -6.734618561215485 M-27.467460634214884 -5.548287939305123 C-27.378233797901828 -5.817024953914303, -27.289006961588772 -6.085761968523483, -27.073571729970332 -6.734618561215485 M-27.073571729970332 -6.734618561215485 C-26.95306900851144 -7.032262612980574, -26.83256628705255 -7.329906664745664, -26.604483648808344 -7.893275190886676 M-27.073571729970332 -6.734618561215485 C-26.930166276140863 -7.088832804730109, -26.786760822311393 -7.4430470482447335, -26.604483648808344 -7.893275190886676 M-26.604483648808344 -7.893275190886676 C-26.44991992560231 -8.214230069257894, -26.29535620239627 -8.535184947629114, -26.062123974273504 -9.019496659696282 M-26.604483648808344 -7.893275190886676 C-26.440836104363626 -8.233092818422655, -26.27718855991891 -8.572910445958636, -26.062123974273504 -9.019496659696282 M-26.062123974273504 -9.019496659696282 C-25.925804653623555 -9.261545417338318, -25.789485332973605 -9.503594174980355, -25.448721378604247 -10.108655082055243 M-26.062123974273504 -9.019496659696282 C-25.89281408239808 -9.320123517206738, -25.72350419052265 -9.620750374717193, -25.448721378604247 -10.108655082055243 M-25.448721378604247 -10.108655082055243 C-25.24328376340057 -10.424262426731984, -25.037846148196895 -10.739869771408724, -24.76679646464064 -11.156274872382308 M-25.448721378604247 -10.108655082055243 C-25.24500353082132 -10.421620402151493, -25.0412856830384 -10.734585722247745, -24.76679646464064 -11.156274872382308 M-24.76679646464064 -11.156274872382308 C-24.540979647235623 -11.458848835369754, -24.315162829830605 -11.761422798357199, -24.019151408126586 -12.158051136245302 M-24.76679646464064 -11.156274872382308 C-24.57848657686729 -11.4085929666149, -24.39017668909394 -11.660911060847495, -24.019151408126586 -12.158051136245302 M-24.019151408126586 -12.158051136245302 C-23.76179029410357 -12.460362145038978, -23.504429180080557 -12.762673153832653, -23.208858442968662 -13.10986736009567 M-24.019151408126586 -12.158051136245302 C-23.769001717951745 -12.451891196245267, -23.51885202777691 -12.745731256245232, -23.208858442968662 -13.10986736009567 M-23.208858442968662 -13.10986736009567 C-22.96107675157078 -13.365722299719181, -22.713295060172896 -13.621577239342692, -22.339247236767996 -14.007812326905677 M-23.208858442968662 -13.10986736009567 C-22.864619750411006 -13.465322072683719, -22.52038105785335 -13.82077678527177, -22.339247236767996 -14.007812326905677 M-22.339247236767996 -14.007812326905677 C-22.10153021127905 -14.223700639806903, -21.863813185790107 -14.43958895270813, -21.413891208501887 -14.848196188198107 M-22.339247236767996 -14.007812326905677 C-22.148795602984194 -14.18077546163403, -21.95834396920039 -14.353738596362382, -21.413891208501887 -14.848196188198107 M-21.413891208501887 -14.848196188198107 C-21.05366783367659 -15.135464743674692, -20.6934444588513 -15.422733299151277, -20.43659284457872 -15.627565626425149 M-21.413891208501887 -14.848196188198107 C-21.15118967791473 -15.057693668060043, -20.88848814732757 -15.267191147921979, -20.43659284457872 -15.627565626425149 M-20.43659284457872 -15.627565626425149 C-20.106299321105585 -15.857964090223824, -19.776005797632447 -16.0883625540225, -19.41136807360571 -16.342718045390885 M-20.43659284457872 -15.627565626425149 C-20.19398372277861 -15.79679924741329, -19.951374600978504 -15.966032868401431, -19.41136807360571 -16.342718045390885 M-19.41136807360571 -16.342718045390885 C-18.984735457017845 -16.601345244737995, -18.55810284042998 -16.859972444085106, -18.34242976407679 -16.99071473040609 M-19.41136807360571 -16.342718045390885 C-19.12195868418604 -16.518159718015443, -18.83254929476637 -16.69360139064, -18.34242976407679 -16.99071473040609 M-18.34242976407679 -16.99071473040609 C-17.98844586903632 -17.1753879017112, -17.634461973995844 -17.360061073016308, -17.234170412792388 -17.56889292409717 M-18.34242976407679 -16.99071473040609 C-18.090889246939746 -17.121943257077096, -17.839348729802698 -17.2531717837481, -17.234170412792388 -17.56889292409717 M-17.234170412792388 -17.56889292409717 C-16.85066361263829 -17.738660008200366, -16.46715681248419 -17.90842709230356, -16.091144095147804 -18.07487676824742 M-17.234170412792388 -17.56889292409717 C-16.78735775131068 -17.766683635108443, -16.34054508982897 -17.964474346119715, -16.091144095147804 -18.07487676824742 M-16.091144095147804 -18.07487676824742 C-15.648139156739289 -18.237906680674513, -15.205134218330773 -18.40093659310161, -14.918047751460618 -18.506587066708033 M-16.091144095147804 -18.07487676824742 C-15.848325258792302 -18.164236344618963, -15.605506422436802 -18.253595920990506, -14.918047751460618 -18.506587066708033 M-14.918047751460618 -18.506587066708033 C-14.581076567681698 -18.606598345255776, -14.244105383902781 -18.706609623803523, -13.719701886235413 -18.862249829261067 M-14.918047751460618 -18.506587066708033 C-14.591437000285108 -18.603523423242105, -14.264826249109598 -18.700459779776182, -13.719701886235413 -18.862249829261067 M-13.719701886235413 -18.862249829261067 C-13.275946267845287 -18.96353415338258, -12.832190649455159 -19.064818477504094, -12.501030759676768 -19.140403561325773 M-13.719701886235413 -18.862249829261067 C-13.357546967868567 -18.9449093260966, -12.99539204950172 -19.02756882293213, -12.501030759676768 -19.140403561325773 M-12.501030759676768 -19.140403561325773 C-12.195533459844684 -19.18979399559568, -11.8900361600126 -19.23918442986559, -11.26704215284788 -19.3399052695533 M-12.501030759676768 -19.140403561325773 C-12.150596550916104 -19.19705904654032, -11.800162342155438 -19.253714531754866, -11.26704215284788 -19.3399052695533 M-11.26704215284788 -19.3399052695533 C-10.986865342810544 -19.366933589455687, -10.706688532773208 -19.393961909358076, -10.022806789623903 -19.45993515863156 M-11.26704215284788 -19.3399052695533 C-10.813597559338053 -19.38364852414228, -10.360152965828226 -19.427391778731263, -10.022806789623903 -19.45993515863156 M-10.022806789623903 -19.45993515863156 C-9.648021492603771 -19.47195379363167, -9.273236195583639 -19.483972428631777, -8.773437500000005 -19.5 M-10.022806789623903 -19.45993515863156 C-9.60026171447532 -19.47348535675748, -9.177716639326736 -19.4870355548834, -8.773437500000005 -19.5 M-8.773437500000005 -19.5 C-8.773437500000004 -19.5, -8.773437500000002 -19.5, -8.7734375 -19.5 M-8.773437500000005 -19.5 C-8.773437500000004 -19.5, -8.773437500000004 -19.5, -8.7734375 -19.5" stroke="#0e5aa7" stroke-width="2" fill="none" stroke-dasharray="0 0" style="fill:#1168bd !important;stroke:#0e5aa7 !important;stroke-width:2px !important"/></g><g class="label" style="color:#fff !important" transform="translate(-15.8984375, -12)"><rect/><foreignObject width="31.796875" height="24"><div style="color: rgb(255, 255, 255) !important; display: table-cell; white-space: nowrap; line-height: 1.5; max-width: 200px; text-align: center;" xmlns="http://www.w3.org/1999/xhtml"><span style="color:#fff !important" class="nodeLabel"><p>User</p></span></div></foreignObject></g></g><g class="node default public" id="flowchart-API-1" transform="translate(336.51171875, 449.4264831542969)"><rect class="basic label-container" style="fill:#1168bd !important;stroke:#0e5aa7 !important;stroke-width:2px !important" x="-111.984375" y="-63" width="223.96875" height="126"/><g class="label" style="color:#fff !important" transform="translate(-81.984375, -48)"><rect/><foreignObject width="163.96875" height="96"><div style="color: rgb(255, 255, 255) !important; display: table-cell; white-space: nowrap; line-height: 1.5; max-width: 200px; text-align: center;" xmlns="http://www.w3.org/1999/xhtml"><span style="color:#fff !important" class="nodeLabel"><p>Public API<br />:start :stop :toggle<br />:openSettings ＊new＊<br />:bindHotkeys</p></span></div></foreignObject></g></g><g class="node default internal" id="flowchart-Watcher-2" transform="translate(336.51171875, 734.4264831542969)"><rect class="basic label-container" style="fill:#438dd5 !important;stroke:#2e6da4 !important;stroke-width:1.5px !important" x="-96.078125" y="-39" width="192.15625" height="78"/><g class="label" style="color:#fff !important" transform="translate(-66.078125, -24)"><rect/><foreignObject width="132.15625" height="48"><div style="color: rgb(255, 255, 255) !important; display: table-cell; white-space: nowrap; line-height: 1.5; max-width: 200px; text-align: center;" xmlns="http://www.w3.org/1999/xhtml"><span style="color:#fff !important" class="nodeLabel"><p>Watcher<br />hs.spaces.watcher</p></span></div></foreignObject></g></g><g class="node default internal" id="flowchart-SyncEng-3" transform="translate(402.5234375, 1191.6397552490234)"><rect class="basic label-container" style="fill:#438dd5 !important;stroke:#2e6da4 !important;stroke-width:1.5px !important" x="-97.0234375" y="-51" width="194.046875" height="102"/><g class="label" style="color:#fff !important" transform="translate(-67.0234375, -36)"><rect/><foreignObject width="134.046875" height="72"><div style="color: rgb(255, 255, 255) !important; display: table-cell; white-space: nowrap; line-height: 1.5; max-width: 200px; text-align: center;" xmlns="http://www.w3.org/1999/xhtml"><span style="color:#fff !important" class="nodeLabel"><p>Sync Engine<br />chained gotoSpace<br />+ debounce</p></span></div></foreignObject></g></g><g class="node default internal" id="flowchart-PosMap-4" transform="translate(151.71875, 1691.85302734375)"><rect class="basic label-container" style="fill:#438dd5 !important;stroke:#2e6da4 !important;stroke-width:1.5px !important" x="-88.71875" y="-39" width="177.4375" height="78"/><g class="label" style="color:#fff !important" transform="translate(-58.71875, -24)"><rect/><foreignObject width="117.4375" height="48"><div style="color: rgb(255, 255, 255) !important; display: table-cell; white-space: nowrap; line-height: 1.5; max-width: 200px; text-align: center;" xmlns="http://www.w3.org/1999/xhtml"><span style="color:#fff !important" class="nodeLabel"><p>Position Map<br />UUID ↔ position</p></span></div></foreignObject></g></g><g class="node default internal" id="flowchart-GroupLook-5" transform="translate(151.71875, 1503.85302734375)"><rect class="basic label-container" style="fill:#438dd5 !important;stroke:#2e6da4 !important;stroke-width:1.5px !important" x="-79.5546875" y="-39" width="159.109375" height="78"/><g class="label" style="color:#fff !important" transform="translate(-49.5546875, -24)"><rect/><foreignObject width="99.109375" height="48"><div style="color: rgb(255, 255, 255) !important; display: table-cell; white-space: nowrap; line-height: 1.5; max-width: 200px; text-align: center;" xmlns="http://www.w3.org/1999/xhtml"><span style="color:#fff !important" class="nodeLabel"><p>Group Lookup<br />getTargetsFor</p></span></div></foreignObject></g></g><g class="node default internal" id="flowchart-Names-6" transform="translate(672.2734375, 1191.6397552490234)"><rect class="basic label-container" style="fill:#438dd5 !important;stroke:#2e6da4 !important;stroke-width:1.5px !important" x="-76.0625" y="-51" width="152.125" height="102"/><g class="label" style="color:#fff !important" transform="translate(-46.0625, -36)"><rect/><foreignObject width="92.125" height="72"><div style="color: rgb(255, 255, 255) !important; display: table-cell; white-space: nowrap; line-height: 1.5; max-width: 200px; text-align: center;" xmlns="http://www.w3.org/1999/xhtml"><span style="color:#fff !important" class="nodeLabel"><p>Name Store<br />per-group<br />Space names</p></span></div></foreignObject></g></g><g class="node default internal" id="flowchart-UI-7" transform="translate(514.09375, 1503.85302734375)"><rect class="basic label-container" style="fill:#438dd5 !important;stroke:#2e6da4 !important;stroke-width:1.5px !important" x="-105.4765625" y="-51" width="210.953125" height="102"/><g class="label" style="color:#fff !important" transform="translate(-75.4765625, -36)"><rect/><foreignObject width="150.953125" height="72"><div style="color: rgb(255, 255, 255) !important; display: table-cell; white-space: nowrap; line-height: 1.5; max-width: 200px; text-align: center;" xmlns="http://www.w3.org/1999/xhtml"><span style="color:#fff !important" class="nodeLabel"><p>Popup / Picker /<br />Status HUD<br />hs.canvas + eventtap</p></span></div></foreignObject></g></g><g class="node default proposed" id="flowchart-ConfigMod-8" transform="translate(1483.92578125, 734.4264831542969)"><rect class="basic label-container" style="fill:#2e7d32 !important;stroke:#4caf50 !important;stroke-width:2px !important;stroke-dasharray:4 2 !important" x="-111.8125" y="-75" width="223.625" height="150"/><g class="label" style="color:#fff !important" transform="translate(-81.8125, -60)"><rect/><foreignObject width="163.625" height="120"><div style="color: rgb(255, 255, 255) !important; display: table-cell; white-space: nowrap; line-height: 1.5; max-width: 200px; text-align: center;" xmlns="http://www.w3.org/1999/xhtml"><span style="color:#fff !important" class="nodeLabel"><p>Config Module<br />config.lua<br />load / save / validate<br />pathwatcher<br />groupOf ↔ syncGroups</p></span></div></foreignObject></g></g><g class="node default proposed" id="flowchart-SettingsPane-9" transform="translate(1487.0859375, 449.4264831542969)"><rect class="basic label-container" style="fill:#2e7d32 !important;stroke:#4caf50 !important;stroke-width:2px !important;stroke-dasharray:4 2 !important" x="-110.4921875" y="-51" width="220.984375" height="102"/><g class="label" style="color:#fff !important" transform="translate(-80.4921875, -36)"><rect/><foreignObject width="160.984375" height="72"><div style="color: rgb(255, 255, 255) !important; display: table-cell; white-space: nowrap; line-height: 1.5; max-width: 200px; text-align: center;" xmlns="http://www.w3.org/1999/xhtml"><span style="color:#fff !important" class="nodeLabel"><p>Settings Pane<br />hs.webview<br />HTML form + JS bridge</p></span></div></foreignObject></g></g><g class="node default proposed" id="flowchart-ScreenWatch-10" transform="translate(1083.98828125, 449.4264831542969)"><rect class="basic label-container" style="fill:#2e7d32 !important;stroke:#4caf50 !important;stroke-width:2px !important;stroke-dasharray:4 2 !important" x="-121.7421875" y="-63" width="243.484375" height="126"/><g class="label" style="color:#fff !important" transform="translate(-91.7421875, -48)"><rect/><foreignObject width="183.484375" height="96"><div style="color: rgb(255, 255, 255) !important; display: table-cell; white-space: nowrap; line-height: 1.5; max-width: 200px; text-align: center;" xmlns="http://www.w3.org/1999/xhtml"><span style="color:#fff !important" class="nodeLabel"><p>Screen Watcher<br />hs.screen.watcher<br />＊new＊ writes _lastSeen<br />on disconnect</p></span></div></foreignObject></g></g><g class="node default config" id="flowchart-JSON-11" transform="translate(2131.05859375, 1191.6397552490234)"><path d="M0,15.808823529411764 a107.5,15.808823529411764 0,0,0 215,0 a107.5,15.808823529411764 0,0,0 -215,0 l0,390.80882352941177 a107.5,15.808823529411764 0,0,0 215,0 l0,-390.80882352941177" class="basic label-container" style="fill:#5a4a1e !important;stroke:#d4a853 !important;stroke-width:1.5px !important" transform="translate(-107.5, -211.21323529411765)"/><g class="label" style="color:#fff !important" transform="translate(-100, -170)"><rect/><foreignObject width="200" height="360"><div style="color: rgb(255, 255, 255) !important; display: table; white-space: break-spaces; line-height: 1.5; max-width: 200px; text-align: center; width: 200px;" xmlns="http://www.w3.org/1999/xhtml"><span style="color:#fff !important" class="nodeLabel"><p>SpacesSync.json<br />~/.hammerspoon/<br /><br />＊canonical config＊<br />schemaVersion,<br />enabled, syncMode, groupOf,<br />groupLabels, spaceNames,<br />_lastSeen — name, uuid, date, wasIn<br />switchDelay, debounceSeconds,<br />popupDuration, statusDuration,<br />hotkeys</p></span></div></foreignObject></g></g><g class="node default store" id="flowchart-Plist-12" transform="translate(1579.7946681976318, 135.21324157714844)"><path d="M0,15.808823529411764 a107.5,15.808823529411764 0,0,0 215,0 a107.5,15.808823529411764 0,0,0 -215,0 l0,222.80882352941177 a107.5,15.808823529411764 0,0,0 215,0 l0,-222.80882352941177" class="basic label-container" style="fill:#3a2d52 !important;stroke:#7b5fb0 !important;stroke-width:1.5px !important" transform="translate(-107.5, -127.21323529411765)"/><g class="label" style="color:#fff !important" transform="translate(-100, -86)"><rect/><foreignObject width="200" height="192"><div style="color: rgb(255, 255, 255) !important; display: table; white-space: break-spaces; line-height: 1.5; max-width: 200px; text-align: center; width: 200px;" xmlns="http://www.w3.org/1999/xhtml"><span style="color:#fff !important" class="nodeLabel"><p>hs.settings plist<br /><br />＊legacy＊<br />pre-v3 Space names<br />read once on first run,<br />migrated into JSON spaceNames,<br />then ignored</p></span></div></foreignObject></g></g><g class="node default external" id="flowchart-HSAPIs-13" transform="translate(2153.55859375, 1691.85302734375)"><rect class="basic label-container" style="fill:#999 !important;stroke:#666 !important;stroke-width:1.5px !important" x="-130" y="-87" width="260" height="174"/><g class="label" style="color:#fff !important" transform="translate(-100, -72)"><rect/><foreignObject width="200" height="144"><div style="color: rgb(255, 255, 255) !important; display: table; white-space: break-spaces; line-height: 1.5; max-width: 200px; text-align: center; width: 200px;" xmlns="http://www.w3.org/1999/xhtml"><span style="color:#fff !important" class="nodeLabel"><p>Hammerspoon APIs<br />hs.spaces hs.screen hs.screen.watcher<br />hs.canvas hs.webview<br />hs.pathwatcher hs.json<br />hs.shutdownCallback</p></span></div></foreignObject></g></g><g class="node default proposed" id="flowchart-Shutdown-14" transform="translate(2406.80078125, 1191.6397552490234)"><rect class="basic label-container" style="fill:#2e7d32 !important;stroke:#4caf50 !important;stroke-width:2px !important;stroke-dasharray:4 2 !important" x="-118.2421875" y="-75" width="236.484375" height="150"/><g class="label" style="color:#fff !important" transform="translate(-88.2421875, -60)"><rect/><foreignObject width="176.484375" height="120"><div style="color: rgb(255, 255, 255) !important; display: table-cell; white-space: nowrap; line-height: 1.5; max-width: 200px; text-align: center;" xmlns="http://www.w3.org/1999/xhtml"><span style="color:#fff !important" class="nodeLabel"><p>hs.shutdownCallback<br />＊new＊ teardown<br />delete webview<br />unsubscribe userContent<br />stop pathwatcher</p></span></div></foreignObject></g></g></g></g></g><text text-anchor="middle" x="1266.521484375" y="-25" class="flowchartTitleText">SpacesSync — C4 Level 3 (Component) — roadmap with config layer + settings pane</text></svg>