<svg id="my-svg" width="100%" xmlns="http://www.w3.org/2000/svg" xmlns:xlink="http://www.w3.org/1999/xlink" class="flowchart" style="max-width: 2007.08px; background-color: white;" viewBox="0 -50 2007.08203125 1722.77197265625" role="graphics-document document" aria-roledescription="flowchart-v2"><style>#my-svg{font-family:"trebuchet ms",verdana,arial,sans-serif;font-size:16px;fill:#333;}@keyframes edge-animation-frame{from{stroke-dashoffset:0;}}@keyframes dash{to{stroke-dashoffset:0;}}#my-svg .edge-animation-slow{stroke-dasharray:9,5!important;stroke-dashoffset:900;animation:dash 50s linear infinite;stroke-linecap:round;}#my-svg .edge-animation-fast{stroke-dasharray:9,5!important;stroke-dashoffset:900;animation:dash 20s linear infinite;stroke-linecap:round;}#my-svg .error-icon{fill:#552222;}#my-svg .error-text{fill:#552222;stroke:#552222;}#my-svg .edge-thickness-normal{stroke-width:1px;}#my-svg .edge-thickness-thick{stroke-width:3.5px;}#my-svg .edge-pattern-solid{stroke-dasharray:0;}#my-svg .edge-thickness-invisible{stroke-width:0;fill:none;}#my-svg .edge-pattern-dashed{stroke-dasharray:3;}#my-svg .edge-pattern-dotted{stroke-dasharray:2;}#my-svg .marker{fill:#333333;stroke:#333333;}#my-svg .marker.cross{stroke:#333333;}#my-svg svg{font-family:"trebuchet ms",verdana,arial,sans-serif;font-size:16px;}#my-svg p{margin:0;}#my-svg .label{font-family:"trebuchet ms",verdana,arial,sans-serif;color:#333;}#my-svg .cluster-label text{fill:#333;}#my-svg .cluster-label span{color:#333;}#my-svg .cluster-label span p{background-color:transparent;}#my-svg .label text,#my-svg span{fill:#333;color:#333;}#my-svg .node rect,#my-svg .node circle,#my-svg .node ellipse,#my-svg .node polygon,#my-svg .node path{fill:#ECECFF;stroke:#9370DB;stroke-width:1px;}#my-svg .rough-node .label text,#my-svg .node .label text,#my-svg .image-shape .label,#my-svg .icon-shape .label{text-anchor:middle;}#my-svg .node .katex path{fill:#000;stroke:#000;stroke-width:1px;}#my-svg .rough-node .label,#my-svg .node .label,#my-svg .image-shape .label,#my-svg .icon-shape .label{text-align:center;}#my-svg .node.clickable{cursor:pointer;}#my-svg .root .anchor path{fill:#333333!important;stroke-width:0;stroke:#333333;}#my-svg .arrowheadPath{fill:#333333;}#my-svg .edgePath .path{stroke:#333333;stroke-width:2.0px;}#my-svg .flowchart-link{stroke:#333333;fill:none;}#my-svg .edgeLabel{background-color:rgba(232,232,232, 0.8);text-align:center;}#my-svg .edgeLabel p{background-color:rgba(232,232,232, 0.8);}#my-svg .edgeLabel rect{opacity:0.5;background-color:rgba(232,232,232, 0.8);fill:rgba(232,232,232, 0.8);}#my-svg .labelBkg{background-color:rgba(232, 232, 232, 0.5);}#my-svg .cluster rect{fill:#ffffde;stroke:#aaaa33;stroke-width:1px;}#my-svg .cluster text{fill:#333;}#my-svg .cluster span{color:#333;}#my-svg div.mermaidTooltip{position:absolute;text-align:center;max-width:200px;padding:2px;font-family:"trebuchet ms",verdana,arial,sans-serif;font-size:12px;background:hsl(80, 100%, 96.2745098039%);border:1px solid #aaaa33;border-radius:2px;pointer-events:none;z-index:100;}#my-svg .flowchartTitleText{text-anchor:middle;font-size:18px;fill:#333;}#my-svg rect.text{fill:none;stroke-width:0;}#my-svg .icon-shape,#my-svg .image-shape{background-color:rgba(232,232,232, 0.8);text-align:center;}#my-svg .icon-shape p,#my-svg .image-shape p{background-color:rgba(232,232,232, 0.8);padding:2px;}#my-svg .icon-shape rect,#my-svg .image-shape rect{opacity:0.5;background-color:rgba(232,232,232, 0.8);fill:rgba(232,232,232, 0.8);}#my-svg .label-icon{display:inline-block;height:1em;overflow:visible;vertical-align:-0.125em;}#my-svg .node .label-icon path{fill:currentColor;stroke:revert;stroke-width:revert;}#my-svg :root{--mermaid-font-family:"trebuchet ms",verdana,arial,sans-serif;}#my-svg .public&gt;*{fill:#1168bd!important;stroke:#0e5aa7!important;color:#fff!important;stroke-width:2px!important;}#my-svg .public span{fill:#1168bd!important;stroke:#0e5aa7!important;color:#fff!important;stroke-width:2px!important;}#my-svg .public tspan{fill:#fff!important;}#my-svg .internal&gt;*{fill:#438dd5!important;stroke:#2e6da4!important;color:#fff!important;stroke-width:1.5px!important;}#my-svg .internal span{fill:#438dd5!important;stroke:#2e6da4!important;color:#fff!important;stroke-width:1.5px!important;}#my-svg .internal tspan{fill:#fff!important;}#my-svg .proposed&gt;*{fill:#2e7d32!important;stroke:#4caf50!important;color:#fff!important;stroke-width:2px!important;stroke-dasharray:4 2!important;}#my-svg .proposed span{fill:#2e7d32!important;stroke:#4caf50!important;color:#fff!important;stroke-width:2px!important;stroke-dasharray:4 2!important;}#my-svg .proposed tspan{fill:#fff!important;}#my-svg .external&gt;*{fill:#999!important;stroke:#666!important;color:#fff!important;stroke-width:1.5px!important;}#my-svg .external span{fill:#999!important;stroke:#666!important;color:#fff!important;stroke-width:1.5px!important;}#my-svg .external tspan{fill:#fff!important;}#my-svg .config&gt;*{fill:#5a4a1e!important;stroke:#d4a853!important;color:#fff!important;stroke-width:1.5px!important;}#my-svg .config span{fill:#5a4a1e!important;stroke:#d4a853!important;color:#fff!important;stroke-width:1.5px!important;}#my-svg .config tspan{fill:#fff!important;}#my-svg .store&gt;*{fill:#3a2d52!important;stroke:#7b5fb0!important;color:#fff!important;stroke-width:1.5px!important;}#my-svg .store span{fill:#3a2d52!important;stroke:#7b5fb0!important;color:#fff!important;stroke-width:1.5px!important;}#my-svg .store tspan{fill:#fff!important;}</style><g><marker id="my-svg_flowchart-v2-pointEnd" class="marker flowchart-v2" viewBox="0 0 10 10" refX="5" refY="5" markerUnits="userSpaceOnUse" markerWidth="8" markerHeight="8" orient="auto"><path d="M 0 0 L 10 5 L 0 10 z" class="arrowMarkerPath" style="stroke-width: 1; stroke-dasharray: 1, 0;"/></marker><marker id="my-svg_flowchart-v2-pointStart" class="marker flowchart-v2" viewBox="0 0 10 10" refX="4.5" refY="5" markerUnits="userSpaceOnUse" markerWidth="8" markerHeight="8" orient="auto"><path d="M 0 5 L 10 10 L 10 0 z" class="arrowMarkerPath" style="stroke-width: 1; stroke-dasharray: 1, 0;"/></marker><marker id="my-svg_flowchart-v2-circleEnd" class="marker flowchart-v2" viewBox="0 0 10 10" refX="11" refY="5" markerUnits="userSpaceOnUse" markerWidth="11" markerHeight="11" orient="auto"><circle cx="5" cy="5" r="5" class="arrowMarkerPath" style="stroke-width: 1; stroke-dasharray: 1, 0;"/></marker><marker id="my-svg_flowchart-v2-circleStart" class="marker flowchart-v2" viewBox="0 0 10 10" refX="-1" refY="5" markerUnits="userSpaceOnUse" markerWidth="11" markerHeight="11" orient="auto"><circle cx="5" cy="5" r="5" class="arrowMarkerPath" style="stroke-width: 1; stroke-dasharray: 1, 0;"/></marker><marker id="my-svg_flowchart-v2-crossEnd" class="marker cross flowchart-v2" viewBox="0 0 11 11" refX="12" refY="5.2" markerUnits="userSpaceOnUse" markerWidth="11" markerHeight="11" orient="auto"><path d="M 1,1 l 9,9 M 10,1 l -9,9" class="arrowMarkerPath" style="stroke-width: 2; stroke-dasharray: 1, 0;"/></marker><marker id="my-svg_flowchart-v2-crossStart" class="marker cross flowchart-v2" viewBox="0 0 11 11" refX="-1" refY="5.2" markerUnits="userSpaceOnUse" markerWidth="11" markerHeight="11" orient="auto"><path d="M 1,1 l 9,9 M 10,1 l -9,9" class="arrowMarkerPath" style="stroke-width: 2; stroke-dasharray: 1, 0;"/></marker><g class="root"><g class="clusters"><g class="cluster" id="Spoon" data-look="classic"><rect style="" x="8" y="310" width="1454.59765625" height="1354.7719421386719"/><g class="cluster-label" transform="translate(671.509765625, 310)"><foreignObject width="127.578125" height="24"><div xmlns="http://www.w3.org/1999/xhtml" style="display: table-cell; white-space: nowrap; line-height: 1.5; max-width: 200px; text-align: center;"><span class="nodeLabel"><p>SpacesSync.spoon</p></span></div></foreignObject></g></g><g class="cluster" id="New" data-look="classic"><rect style="" x="796.55078125" y="335" width="646.046875" height="473"/><g class="cluster-label" transform="translate(1087.27734375, 335)"><foreignObject width="64.59375" height="24"><div xmlns="http://www.w3.org/1999/xhtml" style="display: table-cell; white-space: nowrap; line-height: 1.5; max-width: 200px; text-align: center;"><span class="nodeLabel"><p>Proposed</p></span></div></foreignObject></g></g><g class="cluster" id="Engine" data-look="classic"><rect style="" x="28" y="608" width="748.55078125" height="1031.7719421386719"/><g class="cluster-label" transform="translate(348.447265625, 608)"><foreignObject width="107.65625" height="24"><div xmlns="http://www.w3.org/1999/xhtml" style="display: table-cell; white-space: nowrap; line-height: 1.5; max-width: 200px; text-align: center;"><span class="nodeLabel"><p>Existing engine</p></span></div></foreignObject></g></g></g><g class="edgePaths"><path d="M958.426,128.632L850.962,152.694C743.499,176.755,528.572,224.877,421.108,255.105C313.645,285.333,313.645,297.667,313.645,308C313.645,318.333,313.645,326.667,313.645,334.333C313.645,342,313.645,349,313.645,352.5L313.645,356" id="L_User_API_0" class="edge-thickness-normal edge-pattern-solid edge-thickness-normal edge-pattern-solid flowchart-link" style=";" data-edge="true" data-et="edge" data-id="L_User_API_0" data-points="W3sieCI6OTU4LjQyNTcyNDcwNjQ0OSwieSI6MTI4LjYzMjQ4Mjg0NTAwNDYzfSx7IngiOjMxMy42NDQ1MzEyNSwieSI6MjczfSx7IngiOjMxMy42NDQ1MzEyNSwieSI6MzEwfSx7IngiOjMxMy42NDQ1MzEyNSwieSI6MzM1fSx7IngiOjMxMy42NDQ1MzEyNSwieSI6MzYwfV0=" marker-end="url(#my-svg_flowchart-v2-pointEnd)"/><path d="M991.494,142L997.924,163.833C1004.354,185.667,1017.214,229.333,1023.644,257.333C1030.074,285.333,1030.074,297.667,1030.074,308C1030.074,318.333,1030.074,326.667,1030.074,336.333C1030.074,346,1030.074,357,1030.074,362.5L1030.074,368" id="L_User_SettingsPane_0" class="edge-thickness-normal edge-pattern-solid edge-thickness-normal edge-pattern-solid flowchart-link" style=";" data-edge="true" data-et="edge" data-id="L_User_SettingsPane_0" data-points="W3sieCI6OTkxLjQ5NDMzNDY0NDAzOTgsInkiOjE0Mn0seyJ4IjoxMDMwLjA3NDIxODc1LCJ5IjoyNzN9LHsieCI6MTAzMC4wNzQyMTg3NSwieSI6MzEwfSx7IngiOjEwMzAuMDc0MjE4NzUsInkiOjMzNX0seyJ4IjoxMDMwLjA3NDIxODc1LCJ5IjozNzJ9XQ==" marker-end="url(#my-svg_flowchart-v2-pointEnd)"/><path d="M1012.933,128.752L1117.938,152.793C1222.942,176.835,1432.952,224.917,1537.956,255.125C1642.961,285.333,1642.961,297.667,1642.961,308C1642.961,318.333,1642.961,326.667,1642.961,345.5C1642.961,364.333,1642.961,393.667,1642.961,429C1642.961,464.333,1642.961,505.667,1642.961,536.5C1642.961,567.333,1642.961,587.667,1642.961,614.5C1642.961,641.333,1642.961,674.667,1642.961,708C1642.961,741.333,1642.961,774.667,1642.961,801.5C1642.961,828.333,1642.961,848.667,1640.916,868.419C1638.87,888.171,1634.779,907.342,1632.734,916.927L1630.688,926.513" id="L_User_JSON_0" class="edge-thickness-normal edge-pattern-solid edge-thickness-normal edge-pattern-solid flowchart-link" style=";" data-edge="true" data-et="edge" data-id="L_User_JSON_0" data-points="W3sieCI6MTAxMi45MzMwNDEwNDE2ODMsInkiOjEyOC43NTE5NzA5NjI3NjYxNH0seyJ4IjoxNjQyLjk2MDkzNzUsInkiOjI3M30seyJ4IjoxNjQyLjk2MDkzNzUsInkiOjMxMH0seyJ4IjoxNjQyLjk2MDkzNzUsInkiOjMzNX0seyJ4IjoxNjQyLjk2MDkzNzUsInkiOjQyM30seyJ4IjoxNjQyLjk2MDkzNzUsInkiOjU0N30seyJ4IjoxNjQyLjk2MDkzNzUsInkiOjYwOH0seyJ4IjoxNjQyLjk2MDkzNzUsInkiOjcwOH0seyJ4IjoxNjQyLjk2MDkzNzUsInkiOjgwOH0seyJ4IjoxNjQyLjk2MDkzNzUsInkiOjg2OX0seyJ4IjoxNjI5Ljg1Mzc0OTA5ODE2MzUsInkiOjkzMC40MjQ5MDU5NzY3NjIxfV0=" marker-end="url(#my-svg_flowchart-v2-pointEnd)"/><path d="M425.629,438.446L556.803,456.538C687.978,474.63,950.327,510.815,1081.501,539.074C1212.676,567.333,1212.676,587.667,1208.306,601.567C1203.937,615.467,1195.197,622.934,1190.828,626.668L1186.458,630.402" id="L_API_ConfigMod_0" class="edge-thickness-normal edge-pattern-solid edge-thickness-normal edge-pattern-solid flowchart-link" style=";" data-edge="true" data-et="edge" data-id="L_API_ConfigMod_0" data-points="W3sieCI6NDI1LjYyODkwNjI1LCJ5Ijo0MzguNDQ1NTgzNzg4MTA1MjR9LHsieCI6MTIxMi42NzU3ODEyNSwieSI6NTQ3fSx7IngiOjEyMTIuNjc1NzgxMjUsInkiOjYwOH0seyJ4IjoxMTgzLjQxNjk5MjE4NzUsInkiOjYzM31d" marker-end="url(#my-svg_flowchart-v2-pointEnd)"/><path d="M1010.256,477.761L1006.08,489.301C1001.904,500.841,993.552,523.92,989.375,545.627C985.199,567.333,985.199,587.667,989.307,601.553C993.414,615.438,1001.629,622.877,1005.737,626.596L1009.844,630.315" id="L_SettingsPane_ConfigMod_0" class="edge-thickness-normal edge-pattern-solid edge-thickness-normal edge-pattern-solid flowchart-link" style=";" data-edge="true" data-et="edge" data-id="L_SettingsPane_ConfigMod_0" data-points="W3sieCI6MTAxMS42MTc1NjU1MjQxOTM1LCJ5Ijo0NzR9LHsieCI6OTg1LjE5OTIxODc1LCJ5Ijo1NDd9LHsieCI6OTg1LjE5OTIxODc1LCJ5Ijo2MDh9LHsieCI6MTAxMi44MDk1NzAzMTI1LCJ5Ijo2MzN9XQ==" marker-start="url(#my-svg_flowchart-v2-pointStart)" marker-end="url(#my-svg_flowchart-v2-pointEnd)"/><path d="M1196.026,783L1201.603,787.167C1207.18,791.333,1218.334,799.667,1223.911,814C1229.488,828.333,1229.488,848.667,1273.57,879.514C1317.651,910.361,1405.814,951.721,1449.895,972.402L1493.976,993.082" id="L_ConfigMod_JSON_0" class="edge-thickness-normal edge-pattern-solid edge-thickness-normal edge-pattern-solid flowchart-link" style=";" data-edge="true" data-et="edge" data-id="L_ConfigMod_JSON_0" data-points="W3sieCI6MTE5Ni4wMjYzNjcxODc1LCJ5Ijo3ODN9LHsieCI6MTIyOS40ODgyODEyNSwieSI6ODA4fSx7IngiOjEyMjkuNDg4MjgxMjUsInkiOjg2OX0seyJ4IjoxNDk3LjU5NzY1NjI1LCJ5Ijo5OTQuNzgwNzMxODIwMDU0NX1d" marker-end="url(#my-svg_flowchart-v2-pointEnd)"/><path d="M1075.394,783L1074.269,787.167C1073.144,791.333,1070.894,799.667,1069.769,814C1068.645,828.333,1068.645,848.667,1139.503,882.109C1210.362,915.551,1352.08,962.102,1422.939,985.378L1493.797,1008.654" id="L_ConfigMod_JSON_2" class="edge-thickness-normal edge-pattern-solid edge-thickness-normal edge-pattern-solid flowchart-link" style=";" data-edge="true" data-et="edge" data-id="L_ConfigMod_JSON_2" data-points="W3sieCI6MTA3NS4zOTM1NTQ2ODc1LCJ5Ijo3ODN9LHsieCI6MTA2OC42NDQ1MzEyNSwieSI6ODA4fSx7IngiOjEwNjguNjQ0NTMxMjUsInkiOjg2OX0seyJ4IjoxNDk3LjU5NzY1NjI1LCJ5IjoxMDA5LjkwMTgxODEwNTUzODZ9XQ==" marker-end="url(#my-svg_flowchart-v2-pointEnd)"/><path d="M983.828,752.515L960.6,761.762C937.372,771.01,890.917,789.505,834.01,808.919C777.104,828.333,709.747,848.667,676.069,879.036C642.391,909.404,642.391,949.809,642.391,970.011L642.391,990.213" id="L_ConfigMod_Names_0" class="edge-thickness-normal edge-pattern-solid edge-thickness-normal edge-pattern-solid flowchart-link" style=";" data-edge="true" data-et="edge" data-id="L_ConfigMod_Names_0" data-points="W3sieCI6OTgzLjgyODEyNSwieSI6NzUyLjUxNDk0NTEwMjc5NjJ9LHsieCI6ODQ0LjQ2MDkzNzUsInkiOjgwOH0seyJ4Ijo2NDIuMzkwNjI1LCJ5Ijo4Njl9LHsieCI6NjQyLjM5MDYyNSwieSI6OTk0LjIxMzI0MTU3NzE0ODR9XQ==" marker-end="url(#my-svg_flowchart-v2-pointEnd)"/><path d="M1140.566,460.551L1182.962,474.959C1225.358,489.367,1310.15,518.184,1352.546,542.758C1394.941,567.333,1394.941,587.667,1394.941,614.5C1394.941,641.333,1394.941,674.667,1394.941,708C1394.941,741.333,1394.941,774.667,1394.941,801.5C1394.941,828.333,1394.941,848.667,1455.591,880.828C1516.24,912.989,1637.539,956.979,1698.188,978.974L1758.837,1000.968" id="L_SettingsPane_Shutdown_0" class="edge-thickness-normal edge-pattern-solid edge-thickness-normal edge-pattern-solid flowchart-link" style=";" data-edge="true" data-et="edge" data-id="L_SettingsPane_Shutdown_0" data-points="W3sieCI6MTE0MC41NjY0MDYyNSwieSI6NDYwLjU1MDczNTQ5ODc5MDIzfSx7IngiOjEzOTQuOTQxNDA2MjUsInkiOjU0N30seyJ4IjoxMzk0Ljk0MTQwNjI1LCJ5Ijo2MDh9LHsieCI6MTM5NC45NDE0MDYyNSwieSI6NzA4fSx7IngiOjEzOTQuOTQxNDA2MjUsInkiOjgwOH0seyJ4IjoxMzk0Ljk0MTQwNjI1LCJ5Ijo4Njl9LHsieCI6MTc2Mi41OTc2NTYyNSwieSI6MTAwMi4zMzIxODM0MzMwODMyfV0=" marker-end="url(#my-svg_flowchart-v2-pointEnd)"/><path d="M1207.453,752.433L1230.758,761.694C1254.064,770.955,1300.674,789.478,1323.98,808.905C1347.285,828.333,1347.285,848.667,1415.871,881.485C1484.457,914.303,1621.628,959.605,1690.214,982.257L1758.799,1004.908" id="L_ConfigMod_Shutdown_0" class="edge-thickness-normal edge-pattern-solid edge-thickness-normal edge-pattern-solid flowchart-link" style=";" data-edge="true" data-et="edge" data-id="L_ConfigMod_Shutdown_0" data-points="W3sieCI6MTIwNy40NTMxMjUsInkiOjc1Mi40MzI3MTYwMzk4MDA3fSx7IngiOjEzNDcuMjg1MTU2MjUsInkiOjgwOH0seyJ4IjoxMzQ3LjI4NTE1NjI1LCJ5Ijo4Njl9LHsieCI6MTc2Mi41OTc2NTYyNSwieSI6MTAwNi4xNjIyNTA4NTY0NDk0fV0=" marker-end="url(#my-svg_flowchart-v2-pointEnd)"/><path d="M348.307,747L357.343,757.167C366.379,767.333,384.451,787.667,393.487,808C402.523,828.333,402.523,848.667,402.523,879.036C402.523,909.404,402.523,949.809,402.523,970.011L402.523,990.213" id="L_Watcher_SyncEng_0" class="edge-thickness-normal edge-pattern-solid edge-thickness-normal edge-pattern-solid flowchart-link" style=";" data-edge="true" data-et="edge" data-id="L_Watcher_SyncEng_0" data-points="W3sieCI6MzQ4LjMwNzMwNDY4NzUsInkiOjc0N30seyJ4Ijo0MDIuNTIzNDM3NSwieSI6ODA4fSx7IngiOjQwMi41MjM0Mzc1LCJ5Ijo4Njl9LHsieCI6NDAyLjUyMzQzNzUsInkiOjk5NC4yMTMyNDE1NzcxNDg0fV0=" marker-end="url(#my-svg_flowchart-v2-pointEnd)"/><path d="M318.49,1096.213L290.695,1113.082C262.899,1129.951,207.309,1163.689,179.514,1194.586C151.719,1225.484,151.719,1253.542,151.719,1267.57L151.719,1281.599" id="L_SyncEng_GroupLook_0" class="edge-thickness-normal edge-pattern-solid edge-thickness-normal edge-pattern-solid flowchart-link" style=";" data-edge="true" data-et="edge" data-id="L_SyncEng_GroupLook_0" data-points="W3sieCI6MzE4LjQ4OTc1NjAwMTgxNzUsInkiOjEwOTYuMjEzMjQxNTc3MTQ4NH0seyJ4IjoxNTEuNzE4NzUsInkiOjExOTcuNDI2NDgzMTU0Mjk2OX0seyJ4IjoxNTEuNzE4NzUsInkiOjEyODUuNTk5MjEyNjQ2NDg0NH1d" marker-end="url(#my-svg_flowchart-v2-pointEnd)"/><path d="M151.719,1363.599L151.719,1376.295C151.719,1388.99,151.719,1414.381,151.719,1436.576C151.719,1458.772,151.719,1477.772,151.719,1487.272L151.719,1496.772" id="L_GroupLook_PosMap_0" class="edge-thickness-normal edge-pattern-solid edge-thickness-normal edge-pattern-solid flowchart-link" style=";" data-edge="true" data-et="edge" data-id="L_GroupLook_PosMap_0" data-points="W3sieCI6MTUxLjcxODc1LCJ5IjoxMzYzLjU5OTIxMjY0NjQ4NDR9LHsieCI6MTUxLjcxODc1LCJ5IjoxNDM5Ljc3MTk0MjEzODY3MTl9LHsieCI6MTUxLjcxODc1LCJ5IjoxNTAwLjc3MTk0MjEzODY3MTl9XQ==" marker-end="url(#my-svg_flowchart-v2-pointEnd)"/><path d="M407.29,1096.213L408.867,1113.082C410.443,1129.951,413.597,1163.689,414.227,1192.588C414.858,1221.488,412.966,1245.55,412.02,1257.581L411.074,1269.612" id="L_SyncEng_UI_0" class="edge-thickness-normal edge-pattern-solid edge-thickness-normal edge-pattern-solid flowchart-link" style=";" data-edge="true" data-et="edge" data-id="L_SyncEng_UI_0" data-points="W3sieCI6NDA3LjI5MDEzNjM3NTc0OTYsInkiOjEwOTYuMjEzMjQxNTc3MTQ4NH0seyJ4Ijo0MTYuNzUsInkiOjExOTcuNDI2NDgzMTU0Mjk2OX0seyJ4Ijo0MTAuNzYwMjkzNzMyMjg0MjUsInkiOjEyNzMuNTk5MjEyNjQ2NDg0NH1d" marker-end="url(#my-svg_flowchart-v2-pointEnd)"/><path d="M549.547,1092.976L515.708,1110.385C481.868,1127.793,414.19,1162.61,386.079,1192.111C357.968,1221.612,369.424,1245.798,375.152,1257.891L380.88,1269.984" id="L_Names_UI_0" class="edge-thickness-normal edge-pattern-solid edge-thickness-normal edge-pattern-solid flowchart-link" style=";" data-edge="true" data-et="edge" data-id="L_Names_UI_0" data-points="W3sieCI6NTQ5LjU0Njg3NSwieSI6MTA5Mi45NzYxODczMjY3Nzc2fSx7IngiOjM0Ni41MTE3MTg3NSwieSI6MTE5Ny40MjY0ODMxNTQyOTY5fSx7IngiOjM4Mi41OTI2Nzk4MjU5NTQ5LCJ5IjoxMjczLjU5OTIxMjY0NjQ4NDR9XQ==" marker-end="url(#my-svg_flowchart-v2-pointEnd)"/><path d="M647.53,1100.196L649.044,1116.401C650.559,1132.606,653.588,1165.016,794.605,1200.164C935.623,1235.312,1214.628,1273.198,1354.131,1292.141L1493.634,1311.084" id="L_Names_Plist_0" class="edge-thickness-normal edge-pattern-solid edge-thickness-normal edge-pattern-solid flowchart-link" style=";" data-edge="true" data-et="edge" data-id="L_Names_Plist_0" data-points="W3sieCI6NjQ3LjE1NzMyMzg3NTc0OTYsInkiOjEwOTYuMjEzMjQxNTc3MTQ4NH0seyJ4Ijo2NTYuNjE3MTg3NSwieSI6MTE5Ny40MjY0ODMxNTQyOTY5fSx7IngiOjE0OTcuNTk3NjU2MjUsInkiOjEzMTEuNjIxODczMDkxMjAyfV0=" marker-start="url(#my-svg_flowchart-v2-pointStart)" marker-end="url(#my-svg_flowchart-v2-pointEnd)"/><path d="M406.75,1375.599L406.75,1386.295C406.75,1396.99,406.75,1418.381,587.894,1444.115C769.037,1469.849,1131.324,1499.926,1312.468,1514.965L1493.611,1530.003" id="L_UI_HSAPIs_0" class="edge-thickness-normal edge-pattern-solid edge-thickness-normal edge-pattern-solid flowchart-link" style=";" data-edge="true" data-et="edge" data-id="L_UI_HSAPIs_0" data-points="W3sieCI6NDA2Ljc1LCJ5IjoxMzc1LjU5OTIxMjY0NjQ4NDR9LHsieCI6NDA2Ljc1LCJ5IjoxNDM5Ljc3MTk0MjEzODY3MTl9LHsieCI6MTQ5Ny41OTc2NTYyNSwieSI6MTUzMC4zMzQyNDEyNzcwMTR9XQ==" marker-end="url(#my-svg_flowchart-v2-pointEnd)"/><path d="M983.828,765.896L970.276,772.914C956.724,779.931,929.62,793.965,916.068,811.149C902.516,828.333,902.516,848.667,902.516,888.202C902.516,927.738,902.516,986.475,902.516,1041.213C902.516,1095.951,902.516,1146.689,902.516,1193.253C902.516,1239.817,902.516,1282.208,902.516,1322.599C902.516,1362.99,902.516,1401.381,1001.036,1434.477C1099.556,1467.573,1296.596,1495.373,1395.117,1509.274L1493.637,1523.174" id="L_ConfigMod_HSAPIs_0" class="edge-thickness-normal edge-pattern-solid edge-thickness-normal edge-pattern-solid flowchart-link" style=";" data-edge="true" data-et="edge" data-id="L_ConfigMod_HSAPIs_0" data-points="W3sieCI6OTgzLjgyODEyNSwieSI6NzY1Ljg5NjQ0MDEyOTQ0OTh9LHsieCI6OTAyLjUxNTYyNSwieSI6ODA4fSx7IngiOjkwMi41MTU2MjUsInkiOjg2OX0seyJ4Ijo5MDIuNTE1NjI1LCJ5IjoxMDQ1LjIxMzI0MTU3NzE0ODR9LHsieCI6OTAyLjUxNTYyNSwieSI6MTE5Ny40MjY0ODMxNTQyOTY5fSx7IngiOjkwMi41MTU2MjUsInkiOjEzMjQuNTk5MjEyNjQ2NDg0NH0seyJ4Ijo5MDIuNTE1NjI1LCJ5IjoxNDM5Ljc3MTk0MjEzODY3MTl9LHsieCI6MTQ5Ny41OTc2NTYyNSwieSI6MTUyMy43MzI3NDUyNTU5MDQzfV0=" marker-end="url(#my-svg_flowchart-v2-pointEnd)"/><path d="M961.959,474L945.709,486.167C929.46,498.333,896.96,522.667,880.711,545C864.461,567.333,864.461,587.667,864.461,614.5C864.461,641.333,864.461,674.667,864.461,708C864.461,741.333,864.461,774.667,864.461,801.5C864.461,828.333,864.461,848.667,864.461,888.202C864.461,927.738,864.461,986.475,864.461,1041.213C864.461,1095.951,864.461,1146.689,864.461,1193.253C864.461,1239.817,864.461,1282.208,864.461,1322.599C864.461,1362.99,864.461,1401.381,969.323,1434.618C1074.185,1467.854,1283.909,1495.937,1388.771,1509.978L1493.633,1524.019" id="L_SettingsPane_HSAPIs_0" class="edge-thickness-normal edge-pattern-solid edge-thickness-normal edge-pattern-solid flowchart-link" style=";" data-edge="true" data-et="edge" data-id="L_SettingsPane_HSAPIs_0" data-points="W3sieCI6OTYxLjk1OTA3ODg4MTA0ODQsInkiOjQ3NH0seyJ4Ijo4NjQuNDYwOTM3NSwieSI6NTQ3fSx7IngiOjg2NC40NjA5Mzc1LCJ5Ijo2MDh9LHsieCI6ODY0LjQ2MDkzNzUsInkiOjcwOH0seyJ4Ijo4NjQuNDYwOTM3NSwieSI6ODA4fSx7IngiOjg2NC40NjA5Mzc1LCJ5Ijo4Njl9LHsieCI6ODY0LjQ2MDkzNzUsInkiOjEwNDUuMjEzMjQxNTc3MTQ4NH0seyJ4Ijo4NjQuNDYwOTM3NSwieSI6MTE5Ny40MjY0ODMxNTQyOTY5fSx7IngiOjg2NC40NjA5Mzc1LCJ5IjoxMzI0LjU5OTIxMjY0NjQ4NDR9LHsieCI6ODY0LjQ2MDkzNzUsInkiOjE0MzkuNzcxOTQyMTM4NjcxOX0seyJ4IjoxNDk3LjU5NzY1NjI1LCJ5IjoxNTI0LjU1MDAzNjY1NDQ1NX1d" marker-end="url(#my-svg_flowchart-v2-pointEnd)"/><path d="M313.645,486L313.645,543" id="L_API_Engine_0" class="edge-thickness-normal edge-pattern-solid edge-thickness-normal edge-pattern-solid flowchart-link" style=";" data-edge="true" data-et="edge" data-id="L_API_Engine_0" data-points="W3sieCI6MzEzLjY0NDUzMTI1LCJ5Ijo0ODZ9LHsieCI6MzEzLjY0NDUzMTI1LCJ5Ijo1NDd9LHsieCI6MzEzLjY0NDUzMTI1LCJ5Ijo2MDh9LHsieCI6MzEzLjY0NDUzMTI1LCJ5Ijo2Njl9XQ==" marker-end="url(#my-svg_flowchart-v2-pointEnd)"/><path d="M776.551,1493.381L1493.603,1531.11" id="L_Engine_HSAPIs_0" class="edge-thickness-normal edge-pattern-solid edge-thickness-normal edge-pattern-solid flowchart-link" style=";" data-edge="true" data-et="edge" data-id="L_Engine_HSAPIs_0" data-points="W3sieCI6Mjk1LjE2OTgwNDY4NzUsInkiOjc0N30seyJ4IjoyNjYuMjczNDM3NSwieSI6ODA4fSx7IngiOjI2Ni4yNzM0Mzc1LCJ5Ijo4Njl9LHsieCI6MjY2LjI3MzQzNzUsInkiOjEwNDUuMjEzMjQxNTc3MTQ4NH0seyJ4IjoyNjYuMjczNDM3NSwieSI6MTE5Ny40MjY0ODMxNTQyOTY5fSx7IngiOjI2Ni4yNzM0Mzc1LCJ5IjoxMzI0LjU5OTIxMjY0NjQ4NDR9LHsieCI6MjY2LjI3MzQzNzUsInkiOjE0MzkuNzcxOTQyMTM4NjcxOX0seyJ4IjoxNDk3LjU5NzY1NjI1LCJ5IjoxNTMxLjMxOTk0NTMxMDEzMX1d" marker-end="url(#my-svg_flowchart-v2-pointEnd)"/></g><g class="edgeLabels"><g class="edgeLabel" transform="translate(313.64453125, 273)"><g class="label" data-id="L_User_API_0" transform="translate(-27.421875, -12)"><foreignObject width="54.84375" height="24"><div xmlns="http://www.w3.org/1999/xhtml" class="labelBkg" style="display: table-cell; white-space: nowrap; line-height: 1.5; max-width: 200px; text-align: center;"><span class="edgeLabel"><p>hotkeys</p></span></div></foreignObject></g></g><g class="edgeLabel" transform="translate(1030.07421875, 273)"><g class="label" data-id="L_User_SettingsPane_0" transform="translate(-20.7265625, -12)"><foreignObject width="41.453125" height="24"><div xmlns="http://www.w3.org/1999/xhtml" class="labelBkg" style="display: table-cell; white-space: nowrap; line-height: 1.5; max-width: 200px; text-align: center;"><span class="edgeLabel"><p>opens</p></span></div></foreignObject></g></g><g class="edgeLabel" transform="translate(1642.9609375, 547)"><g class="label" data-id="L_User_JSON_0" transform="translate(-37.8515625, -12)"><foreignObject width="75.703125" height="24"><div xmlns="http://www.w3.org/1999/xhtml" class="labelBkg" style="display: table-cell; white-space: nowrap; line-height: 1.5; max-width: 200px; text-align: center;"><span class="edgeLabel"><p>hand-edits</p></span></div></foreignObject></g></g><g class="edgeLabel" transform="translate(1212.67578125, 547)"><g class="label" data-id="L_API_ConfigMod_0" transform="translate(-72.2265625, -36)"><foreignObject width="144.453125" height="72"><div xmlns="http://www.w3.org/1999/xhtml" class="labelBkg" style="display: table-cell; white-space: nowrap; line-height: 1.5; max-width: 200px; text-align: center;"><span class="edgeLabel"><p>on :start: seed,<br />load, applyToSpoon,<br />startWatching</p></span></div></foreignObject></g></g><g class="edgeLabel" transform="translate(985.19921875, 547)"><g class="label" data-id="L_SettingsPane_ConfigMod_0" transform="translate(-74.6640625, -24)"><foreignObject width="149.328125" height="48"><div xmlns="http://www.w3.org/1999/xhtml" class="labelBkg" style="display: table-cell; white-space: nowrap; line-height: 1.5; max-width: 200px; text-align: center;"><span class="edgeLabel"><p>JS↔Lua<br />loadState applyState</p></span></div></foreignObject></g></g><g class="edgeLabel" transform="translate(1229.48828125, 869)"><g class="label" data-id="L_ConfigMod_JSON_0" transform="translate(-70.140625, -36)"><foreignObject width="140.28125" height="72"><div xmlns="http://www.w3.org/1999/xhtml" class="labelBkg" style="display: table-cell; white-space: nowrap; line-height: 1.5; max-width: 200px; text-align: center;"><span class="edgeLabel"><p>reads/writes<br />SHA-256 ring buffer<br />echo suppression</p></span></div></foreignObject></g></g><g class="edgeLabel" transform="translate(1068.64453125, 869)"><g class="label" data-id="L_ConfigMod_JSON_2" transform="translate(-70.703125, -36)"><foreignObject width="141.40625" height="72"><div xmlns="http://www.w3.org/1999/xhtml" class="labelBkg" style="display: table-cell; white-space: nowrap; line-height: 1.5; max-width: 200px; text-align: center;"><span class="edgeLabel"><p>watches parent dir<br />filters by basename<br />retries on parse fail</p></span></div></foreignObject></g></g><g class="edgeLabel" transform="translate(642.390625, 869)"><g class="label" data-id="L_ConfigMod_Names_0" transform="translate(-85.609375, -36)"><foreignObject width="171.21875" height="72"><div xmlns="http://www.w3.org/1999/xhtml" class="labelBkg" style="display: table-cell; white-space: nowrap; line-height: 1.5; max-width: 200px; text-align: center;"><span class="edgeLabel"><p>on groupOf change<br />migrate keys atomically<br />flag orphans</p></span></div></foreignObject></g></g><g class="edgeLabel" transform="translate(1394.94140625, 708)"><g class="label" data-id="L_SettingsPane_Shutdown_0" transform="translate(-27.65625, -12)"><foreignObject width="55.3125" height="24"><div xmlns="http://www.w3.org/1999/xhtml" class="labelBkg" style="display: table-cell; white-space: nowrap; line-height: 1.5; max-width: 200px; text-align: center;"><span class="edgeLabel"><p>register</p></span></div></foreignObject></g></g><g class="edgeLabel" transform="translate(1347.28515625, 869)"><g class="label" data-id="L_ConfigMod_Shutdown_0" transform="translate(-27.65625, -12)"><foreignObject width="55.3125" height="24"><div xmlns="http://www.w3.org/1999/xhtml" class="labelBkg" style="display: table-cell; white-space: nowrap; line-height: 1.5; max-width: 200px; text-align: center;"><span class="edgeLabel"><p>register</p></span></div></foreignObject></g></g><g class="edgeLabel" transform="translate(402.5234375, 869)"><g class="label" data-id="L_Watcher_SyncEng_0" transform="translate(-77.9609375, -12)"><foreignObject width="155.921875" height="24"><div xmlns="http://www.w3.org/1999/xhtml" class="labelBkg" style="display: table-cell; white-space: nowrap; line-height: 1.5; max-width: 200px; text-align: center;"><span class="edgeLabel"><p>fires on Space change</p></span></div></foreignObject></g></g><g class="edgeLabel"><g class="label" data-id="L_SyncEng_GroupLook_0" transform="translate(0, 0)"><foreignObject width="0" height="0"><div xmlns="http://www.w3.org/1999/xhtml" class="labelBkg" style="display: table-cell; white-space: nowrap; line-height: 1.5; max-width: 200px; text-align: center;"><span class="edgeLabel"></span></div></foreignObject></g></g><g class="edgeLabel"><g class="label" data-id="L_GroupLook_PosMap_0" transform="translate(0, 0)"><foreignObject width="0" height="0"><div xmlns="http://www.w3.org/1999/xhtml" class="labelBkg" style="display: table-cell; white-space: nowrap; line-height: 1.5; max-width: 200px; text-align: center;"><span class="edgeLabel"></span></div></foreignObject></g></g><g class="edgeLabel"><g class="label" data-id="L_SyncEng_UI_0" transform="translate(0, 0)"><foreignObject width="0" height="0"><div xmlns="http://www.w3.org/1999/xhtml" class="labelBkg" style="display: table-cell; white-space: nowrap; line-height: 1.5; max-width: 200px; text-align: center;"><span class="edgeLabel"></span></div></foreignObject></g></g><g class="edgeLabel"><g class="label" data-id="L_Names_UI_0" transform="translate(0, 0)"><foreignObject width="0" height="0"><div xmlns="http://www.w3.org/1999/xhtml" class="labelBkg" style="display: table-cell; white-space: nowrap; line-height: 1.5; max-width: 200px; text-align: center;"><span class="edgeLabel"></span></div></foreignObject></g></g><g class="edgeLabel" transform="translate(1026.74245, 1247.6852)"><g class="label" data-id="L_Names_Plist_0" transform="translate(-27.1015625, -12)"><foreignObject width="54.203125" height="24"><div xmlns="http://www.w3.org/1999/xhtml" class="labelBkg" style="display: table-cell; white-space: nowrap; line-height: 1.5; max-width: 200px; text-align: center;"><span class="edgeLabel"><p>persists</p></span></div></foreignObject></g></g><g class="edgeLabel"><g class="label" data-id="L_UI_HSAPIs_0" transform="translate(0, 0)"><foreignObject width="0" height="0"><div xmlns="http://www.w3.org/1999/xhtml" class="labelBkg" style="display: table-cell; white-space: nowrap; line-height: 1.5; max-width: 200px; text-align: center;"><span class="edgeLabel"></span></div></foreignObject></g></g><g class="edgeLabel"><g class="label" data-id="L_ConfigMod_HSAPIs_0" transform="translate(0, 0)"><foreignObject width="0" height="0"><div xmlns="http://www.w3.org/1999/xhtml" class="labelBkg" style="display: table-cell; white-space: nowrap; line-height: 1.5; max-width: 200px; text-align: center;"><span class="edgeLabel"></span></div></foreignObject></g></g><g class="edgeLabel"><g class="label" data-id="L_SettingsPane_HSAPIs_0" transform="translate(0, 0)"><foreignObject width="0" height="0"><div xmlns="http://www.w3.org/1999/xhtml" class="labelBkg" style="display: table-cell; white-space: nowrap; line-height: 1.5; max-width: 200px; text-align: center;"><span class="edgeLabel"></span></div></foreignObject></g></g><g class="edgeLabel" transform="translate(313.64453, 516.5)"><g class="label" data-id="L_API_Engine_0" transform="translate(-72.15625, -24)"><foreignObject width="144.3125" height="48"><div xmlns="http://www.w3.org/1999/xhtml" class="labelBkg" style="display: table-cell; white-space: nowrap; line-height: 1.5; max-width: 200px; text-align: center;"><span class="edgeLabel"><p>reads runtime fields<br />populated by config</p></span></div></foreignObject></g></g><g class="edgeLabel"><g class="label" data-id="L_Engine_HSAPIs_0" transform="translate(0, 0)"><foreignObject width="0" height="0"><div xmlns="http://www.w3.org/1999/xhtml" class="labelBkg" style="display: table-cell; white-space: nowrap; line-height: 1.5; max-width: 200px; text-align: center;"><span class="edgeLabel"></span></div></foreignObject></g></g></g><g class="nodes"><g class="root" transform="translate(698.5920505523682, 0)"><g class="clusters"><g class="cluster" id="Legend" data-look="classic"><rect style="" x="8" y="8" width="200.34375" height="228"/><g class="cluster-label" transform="translate(82.546875, 8)"><foreignObject width="51.25" height="24"><div xmlns="http://www.w3.org/1999/xhtml" style="display: table-cell; white-space: nowrap; line-height: 1.5; max-width: 200px; text-align: center;"><span class="nodeLabel"><p>Legend</p></span></div></foreignObject></g></g></g><g class="edgePaths"/><g class="edgeLabels"/><g class="nodes"><g class="node default internal" id="flowchart-L1-56" transform="translate(108.171875, 70)"><rect class="basic label-container" style="fill:#438dd5 !important;stroke:#2e6da4 !important;stroke-width:1.5px !important" x="-57.734375" y="-27" width="115.46875" height="54"/><g class="label" style="color:#fff !important" transform="translate(-27.734375, -12)"><rect/><foreignObject width="55.46875" height="24"><div style="color: rgb(255, 255, 255) !important; display: table-cell; white-space: nowrap; line-height: 1.5; max-width: 200px; text-align: center;" xmlns="http://www.w3.org/1999/xhtml"><span style="color:#fff !important" class="nodeLabel"><p>existing</p></span></div></foreignObject></g></g><g class="node default proposed" id="flowchart-L2-57" transform="translate(108.171875, 174)"><rect class="basic label-container" style="fill:#2e7d32 !important;stroke:#4caf50 !important;stroke-width:2px !important;stroke-dasharray:4 2 !important" x="-62.671875" y="-27" width="125.34375" height="54"/><g class="label" style="color:#fff !important" transform="translate(-32.671875, -12)"><rect/><foreignObject width="65.34375" height="24"><div style="color: rgb(255, 255, 255) !important; display: table-cell; white-space: nowrap; line-height: 1.5; max-width: 200px; text-align: center;" xmlns="http://www.w3.org/1999/xhtml"><span style="color:#fff !important" class="nodeLabel"><p>proposed</p></span></div></foreignObject></g></g></g></g><g class="node default public" id="flowchart-User-0" transform="translate(985.19921875, 122)"><g class="basic label-container outer-path"><path d="M-8.7734375 -19.5 C-2.341115650371391 -19.5, 4.091206199257218 -19.5, 8.7734375 -19.5 C8.7734375 -19.5, 8.7734375 -19.5, 8.773437499999998 -19.5 C9.127224793487684 -19.488654730103043, 9.481012086975372 -19.477309460206083, 10.0228067896239 -19.45993515863156 C10.274176852847278 -19.43568579094913, 10.525546916070656 -19.411436423266704, 11.267042152847864 -19.3399052695533 C11.596481263440896 -19.286644108991077, 11.925920374033929 -19.233382948428854, 12.501030759676757 -19.140403561325776 C12.929183233968917 -19.042680553024592, 13.357335708261077 -18.94495754472341, 13.71970188623539 -18.862249829261074 C14.075135465860477 -18.75675900853728, 14.430569045485562 -18.651268187813486, 14.918047751460602 -18.50658706670804 C15.342275227352179 -18.35046743406414, 15.766502703243757 -18.19434780142024, 16.091144095147794 -18.074876768247425 C16.358155332066115 -17.956678814270607, 16.625166568984433 -17.838480860293792, 17.23417041279238 -17.568892924097174 C17.572058761853498 -17.392616788819808, 17.90994711091461 -17.21634065354244, 18.342429764076783 -16.990714730406097 C18.748780849791142 -16.74438231426201, 19.155131935505505 -16.49804989811792, 19.411368073605697 -16.342718045390892 C19.622303546619595 -16.195578590665857, 19.83323901963349 -16.048439135940818, 20.436592844578712 -15.627565626425154 C20.78405367382138 -15.350474861425113, 21.13151450306405 -15.073384096425071, 21.41389120850187 -14.848196188198123 C21.63278228243754 -14.649405106390198, 21.85167335637321 -14.450614024582272, 22.339247236767985 -14.007812326905688 C22.598217649348168 -13.74040411405036, 22.857188061928348 -13.47299590119503, 23.208858442968648 -13.10986736009568 C23.475346961694484 -12.796834782374033, 23.74183548042032 -12.483802204652383, 24.019151408126582 -12.158051136245305 C24.245020840485044 -11.855406674013565, 24.4708902728435 -11.552762211781827, 24.766796464640635 -11.156274872382312 C25.012477866071617 -10.778842265090713, 25.2581592675026 -10.401409657799116, 25.448721378604247 -10.108655082055241 C25.6182369271811 -9.807663060246403, 25.787752475757955 -9.506671038437563, 26.0621239742735 -9.019496659696287 C26.278291506498594 -8.570620153786644, 26.494459038723686 -8.121743647876999, 26.60448364880834 -7.893275190886684 C26.7047758823655 -7.645551434982076, 26.80506811592266 -7.3978276790774675, 27.073571729970325 -6.734618561215508 C27.20879996518013 -6.327332662456889, 27.34402820038994 -5.92004676369827, 27.46746063421488 -5.548287939305138 C27.57202616329857 -5.149534257922046, 27.676591692382264 -4.750780576538955, 27.78453178754556 -4.339158212148133 C27.833314501342567 -4.088669287030721, 27.882097215139574 -3.8381803619133086, 28.023482276581777 -3.1121979531509023 C28.057783881363232 -2.846161480083968, 28.092085486144683 -2.580125007017034, 28.183330202509367 -1.872449005199798 C28.212815522341884 -1.4131913486865495, 28.242300842174398 -0.9539336921733012, 28.263418715913414 -0.6250057626472757 C28.263418715913414 -0.35992182954514557, 28.263418715913414 -0.09483789644301543, 28.263418715913414 0.625005762647271 C28.23478916831353 1.0709340758703456, 28.206159620713645 1.51686238909342, 28.183330202509367 1.8724490051997846 C28.126004167497932 2.317058412442445, 28.068678132486497 2.761667819685105, 28.023482276581777 3.1121979531508885 C27.95868036124412 3.4449420925201055, 27.893878445906463 3.777686231889323, 27.78453178754556 4.339158212148129 C27.70440528698826 4.6447152858181315, 27.62427878643096 4.950272359488135, 27.467460634214884 5.548287939305125 C27.35652874238264 5.882397122907137, 27.2455968505504 6.216506306509149, 27.07357172997033 6.734618561215495 C26.93614738386425 7.074059353016494, 26.798723037758172 7.413500144817494, 26.604483648808344 7.893275190886679 C26.393094136521462 8.33223003616138, 26.18170462423458 8.771184881436081, 26.062123974273504 9.019496659696284 C25.836419699843788 9.420257453982348, 25.610715425414067 9.821018248268413, 25.44872137860425 10.108655082055236 C25.227467811779235 10.448559975600022, 25.00621424495422 10.788464869144809, 24.76679646464064 11.156274872382301 C24.472277619700705 11.550903293383072, 24.17775877476077 11.945531714383845, 24.019151408126582 12.158051136245302 C23.757880308295203 12.464955036853976, 23.496609208463827 12.771858937462648, 23.20885844296866 13.10986736009567 C23.00512402541007 13.320239873131674, 22.80138960785148 13.530612386167679, 22.33924723676799 14.007812326905684 C21.992194912744054 14.322996065082913, 21.645142588720123 14.638179803260142, 21.413891208501887 14.848196188198111 C21.186009006735134 15.029926179907028, 20.95812680496838 15.211656171615944, 20.436592844578715 15.627565626425152 C20.209110643770664 15.78624736216309, 19.981628442962617 15.944929097901028, 19.411368073605708 16.34271804539089 C19.085439510756483 16.540297855558926, 18.75951094790726 16.737877665726963, 18.342429764076787 16.990714730406093 C17.93637230168243 17.202554648445012, 17.530314839288067 17.41439456648393, 17.234170412792388 17.56889292409717 C16.910825259107025 17.71202823194049, 16.587480105421665 17.85516353978381, 16.091144095147804 18.07487676824742 C15.706499355537183 18.216429588041123, 15.321854615926561 18.35798240783483, 14.918047751460616 18.506587066708033 C14.466361265523755 18.640645244783347, 14.014674779586892 18.774703422858664, 13.719701886235413 18.86224982926107 C13.348679308134807 18.946933311563942, 12.977656730034202 19.031616793866814, 12.501030759676766 19.140403561325773 C12.224178465963213 19.185162893151777, 11.94732617224966 19.22992222497778, 11.267042152847878 19.3399052695533 C10.94776287918753 19.370705757093805, 10.628483605527185 19.401506244634312, 10.0228067896239 19.45993515863156 C9.547560596164862 19.47517537904519, 9.072314402705826 19.490415599458824, 8.773437500000004 19.5 C8.773437500000002 19.5, 8.7734375 19.5, 8.7734375 19.5 C2.1161820979152717 19.5, -4.541073304169457 19.5, -8.773437499999996 19.5 C-9.14809782734177 19.487985372534236, -9.522758154683546 19.475970745068473, -10.022806789623893 19.45993515863156 C-10.493626687585095 19.414515729319014, -10.964446585546298 19.36909630000647, -11.267042152847871 19.3399052695533 C-11.647435266616288 19.278406260911876, -12.027828380384705 19.216907252270452, -12.501030759676759 19.140403561325773 C-12.756137921707625 19.08217701632204, -13.011245083738489 19.0239504713183, -13.719701886235388 18.862249829261074 C-13.973673434120528 18.786872406972623, -14.227644982005666 18.711494984684176, -14.918047751460593 18.506587066708043 C-15.272833021587937 18.376022807702096, -15.62761829171528 18.245458548696146, -16.091144095147797 18.074876768247425 C-16.407673353562004 17.934758655054296, -16.72420261197621 17.794640541861167, -17.23417041279238 17.568892924097174 C-17.677304200841018 17.337710310712936, -18.12043798888966 17.1065276973287, -18.34242976407678 16.990714730406097 C-18.68718721884123 16.7817207353082, -19.031944673605683 16.5727267402103, -19.411368073605686 16.3427180453909 C-19.731701954415268 16.11926699716834, -20.052035835224853 15.895815948945778, -20.436592844578712 15.627565626425156 C-20.762120131987768 15.36796627736136, -21.087647419396824 15.108366928297563, -21.41389120850187 14.848196188198125 C-21.75636799853386 14.537167828930384, -22.09884478856585 14.226139469662643, -22.339247236767974 14.007812326905697 C-22.595569284663796 13.743138768021758, -22.851891332559614 13.47846520913782, -23.208858442968655 13.109867360095677 C-23.53219260269044 12.730060657851581, -23.85552676241222 12.350253955607485, -24.01915140812658 12.158051136245307 C-24.183984501522662 11.937189807698287, -24.348817594918742 11.716328479151265, -24.766796464640635 11.156274872382316 C-24.910165940258015 10.936020857739296, -25.053535415875395 10.715766843096278, -25.448721378604244 10.108655082055249 C-25.68050308413901 9.697103193435542, -25.912284789673773 9.285551304815836, -26.0621239742735 9.019496659696289 C-26.265739854785654 8.59668392713089, -26.469355735297803 8.17387119456549, -26.60448364880834 7.893275190886686 C-26.750141690372352 7.533497012116918, -26.895799731936368 7.17371883334715, -27.073571729970325 6.73461856121551 C-27.185505728640024 6.397491191483125, -27.297439727309722 6.06036382175074, -27.46746063421488 5.5482879393051325 C-27.583010369855636 5.1076467177347205, -27.69856010549639 4.667005496164309, -27.784531787545557 4.339158212148136 C-27.847928924324734 4.013627313776668, -27.91132606110391 3.688096415405201, -28.023482276581777 3.112197953150904 C-28.06149726727087 2.817361192275291, -28.099512257959965 2.5225244313996775, -28.183330202509364 1.872449005199809 C-28.21456749872412 1.3859029023633207, -28.245804794938874 0.8993567995268323, -28.263418715913414 0.6250057626472781 C-28.263418715913414 0.23754188329046694, -28.263418715913414 -0.14992199606634427, -28.263418715913414 -0.6250057626472687 C-28.234971265809516 -1.0680977603838908, -28.206523815705623 -1.5111897581205131, -28.183330202509367 -1.8724490051997822 C-28.146199087659408 -2.1604305996080932, -28.10906797280945 -2.4484121940164045, -28.023482276581777 -3.112197953150895 C-27.947902771785913 -3.5002827365436735, -27.872323266990044 -3.888367519936452, -27.78453178754556 -4.339158212148126 C-27.670103609291676 -4.775522449316357, -27.55567543103779 -5.211886686484588, -27.467460634214884 -5.548287939305123 C-27.33620690480958 -5.943603259832088, -27.204953175404274 -6.338918580359054, -27.073571729970332 -6.734618561215485 C-26.899526318207787 -7.164514093208094, -26.72548090644524 -7.594409625200704, -26.604483648808344 -7.893275190886676 C-26.47772200917907 -8.15649844784145, -26.350960369549803 -8.419721704796224, -26.062123974273504 -9.019496659696282 C-25.900588071739893 -9.30632001192856, -25.739052169206285 -9.59314336416084, -25.448721378604247 -10.108655082055243 C-25.176643146329567 -10.526640310064336, -24.904564914054887 -10.944625538073428, -24.76679646464064 -11.156274872382308 C-24.58316358768492 -11.402326198203731, -24.3995307107292 -11.648377524025152, -24.019151408126586 -12.158051136245302 C-23.851059348584368 -12.355501634092734, -23.682967289042153 -12.552952131940167, -23.208858442968662 -13.10986736009567 C-23.01194540900862 -13.313196234520163, -22.815032375048578 -13.516525108944657, -22.339247236767996 -14.007812326905677 C-22.008033778825723 -14.308611625980973, -21.67682032088345 -14.609410925056268, -21.413891208501887 -14.848196188198107 C-21.167873551439296 -15.044388722900722, -20.9218558943767 -15.240581257603338, -20.43659284457872 -15.627565626425149 C-20.230675810055 -15.77120443570414, -20.02475877553128 -15.91484324498313, -19.41136807360571 -16.342718045390885 C-19.04272813230033 -16.566189744178967, -18.67408819099495 -16.789661442967045, -18.34242976407679 -16.99071473040609 C-18.019804591874973 -17.159028076092493, -17.69717941967315 -17.327341421778897, -17.234170412792388 -17.56889292409717 C-16.858330510746917 -17.735266099838125, -16.48249060870145 -17.901639275579083, -16.091144095147804 -18.07487676824742 C-15.791684341809804 -18.18508072565142, -15.492224588471805 -18.295284683055417, -14.918047751460618 -18.506587066708033 C-14.559237817480357 -18.613079971681596, -14.200427883500096 -18.71957287665516, -13.719701886235413 -18.862249829261067 C-13.453078002869063 -18.923104990756, -13.186454119502713 -18.983960152250926, -12.501030759676768 -19.140403561325773 C-12.20489660180889 -19.188280235415156, -11.908762443941013 -19.236156909504544, -11.26704215284788 -19.3399052695533 C-10.883879855574428 -19.376868475551184, -10.500717558300977 -19.413831681549073, -10.022806789623903 -19.45993515863156 C-9.686346718539088 -19.47072477823145, -9.349886647454275 -19.48151439783134, -8.773437500000005 -19.5 C-8.773437500000004 -19.5, -8.773437500000002 -19.5, -8.7734375 -19.5" stroke="none" stroke-width="0" fill="#1168bd" style="fill:#1168bd !important;stroke:#0e5aa7 !important;stroke-width:2px !important"/><path d="M-8.7734375 -19.5 C-4.864658852583425 -19.5, -0.9558802051668494 -19.5, 8.7734375 -19.5 M-8.7734375 -19.5 C-1.9276436176971652 -19.5, 4.91815026460567 -19.5, 8.7734375 -19.5 M8.7734375 -19.5 C8.7734375 -19.5, 8.7734375 -19.5, 8.773437499999998 -19.5 M8.7734375 -19.5 C8.7734375 -19.5, 8.773437499999998 -19.5, 8.773437499999998 -19.5 M8.773437499999998 -19.5 C9.115864413247436 -19.48901903538571, 9.458291326494875 -19.478038070771415, 10.0228067896239 -19.45993515863156 M8.773437499999998 -19.5 C9.182362877757225 -19.486886559060288, 9.59128825551445 -19.473773118120576, 10.0228067896239 -19.45993515863156 M10.0228067896239 -19.45993515863156 C10.365029590298976 -19.42692133663357, 10.707252390974054 -19.39390751463558, 11.267042152847864 -19.3399052695533 M10.0228067896239 -19.45993515863156 C10.299415488426058 -19.433251050128746, 10.576024187228217 -19.406566941625933, 11.267042152847864 -19.3399052695533 M11.267042152847864 -19.3399052695533 C11.674866900584405 -19.27397132706741, 12.082691648320946 -19.20803738458152, 12.501030759676757 -19.140403561325776 M11.267042152847864 -19.3399052695533 C11.717324502817469 -19.26710711120199, 12.167606852787074 -19.194308952850683, 12.501030759676757 -19.140403561325776 M12.501030759676757 -19.140403561325776 C12.898336110421244 -19.049721207678058, 13.295641461165731 -18.959038854030336, 13.71970188623539 -18.862249829261074 M12.501030759676757 -19.140403561325776 C12.792452547635975 -19.073888439928975, 13.08387433559519 -19.007373318532174, 13.71970188623539 -18.862249829261074 M13.71970188623539 -18.862249829261074 C14.033133750082289 -18.769224897308742, 14.346565613929187 -18.67619996535641, 14.918047751460602 -18.50658706670804 M13.71970188623539 -18.862249829261074 C14.174573633714585 -18.727246282279776, 14.629445381193783 -18.592242735298477, 14.918047751460602 -18.50658706670804 M14.918047751460602 -18.50658706670804 C15.30059167808147 -18.365807365514268, 15.683135604702338 -18.225027664320493, 16.091144095147794 -18.074876768247425 M14.918047751460602 -18.50658706670804 C15.324166825417084 -18.357131493368488, 15.730285899373566 -18.207675920028937, 16.091144095147794 -18.074876768247425 M16.091144095147794 -18.074876768247425 C16.54110937412248 -17.875690486991086, 16.99107465309717 -17.676504205734744, 17.23417041279238 -17.568892924097174 M16.091144095147794 -18.074876768247425 C16.494333080267666 -17.896396964711155, 16.897522065387534 -17.71791716117489, 17.23417041279238 -17.568892924097174 M17.23417041279238 -17.568892924097174 C17.51677417615673 -17.421458721766342, 17.799377939521076 -17.274024519435514, 18.342429764076783 -16.990714730406097 M17.23417041279238 -17.568892924097174 C17.475568285204723 -17.44295580868237, 17.716966157617065 -17.31701869326757, 18.342429764076783 -16.990714730406097 M18.342429764076783 -16.990714730406097 C18.76697900770897 -16.733350483987977, 19.19152825134115 -16.475986237569856, 19.411368073605697 -16.342718045390892 M18.342429764076783 -16.990714730406097 C18.59660989356252 -16.8366292421836, 18.850790023048255 -16.682543753961106, 19.411368073605697 -16.342718045390892 M19.411368073605697 -16.342718045390892 C19.67191515971922 -16.160971677019674, 19.932462245832742 -15.979225308648454, 20.436592844578712 -15.627565626425154 M19.411368073605697 -16.342718045390892 C19.68160339235507 -16.154213585329735, 19.95183871110444 -15.965709125268582, 20.436592844578712 -15.627565626425154 M20.436592844578712 -15.627565626425154 C20.67663493100409 -15.436138450289103, 20.916677017429468 -15.244711274153055, 21.41389120850187 -14.848196188198123 M20.436592844578712 -15.627565626425154 C20.63218200373564 -15.471588476843618, 20.82777116289257 -15.315611327262081, 21.41389120850187 -14.848196188198123 M21.41389120850187 -14.848196188198123 C21.60641173360447 -14.673354141113903, 21.798932258707072 -14.498512094029682, 22.339247236767985 -14.007812326905688 M21.41389120850187 -14.848196188198123 C21.778704276711167 -14.516882612075287, 22.14351734492047 -14.185569035952451, 22.339247236767985 -14.007812326905688 M22.339247236767985 -14.007812326905688 C22.565755979702505 -13.773923453112149, 22.792264722637025 -13.54003457931861, 23.208858442968648 -13.10986736009568 M22.339247236767985 -14.007812326905688 C22.51909478882673 -13.822104963646401, 22.69894234088548 -13.636397600387115, 23.208858442968648 -13.10986736009568 M23.208858442968648 -13.10986736009568 C23.4955722978754 -12.773076951641698, 23.782286152782152 -12.436286543187716, 24.019151408126582 -12.158051136245305 M23.208858442968648 -13.10986736009568 C23.404140446307203 -12.880478007113439, 23.59942244964576 -12.651088654131195, 24.019151408126582 -12.158051136245305 M24.019151408126582 -12.158051136245305 C24.276190793461804 -11.813641776665836, 24.53323017879703 -11.469232417086369, 24.766796464640635 -11.156274872382312 M24.019151408126582 -12.158051136245305 C24.30617635673897 -11.77346385361545, 24.593201305351354 -11.388876570985596, 24.766796464640635 -11.156274872382312 M24.766796464640635 -11.156274872382312 C24.925673354447724 -10.912197305220127, 25.084550244254814 -10.668119738057944, 25.448721378604247 -10.108655082055241 M24.766796464640635 -11.156274872382312 C24.99775906149306 -10.801454301475813, 25.228721658345485 -10.446633730569314, 25.448721378604247 -10.108655082055241 M25.448721378604247 -10.108655082055241 C25.581618402365084 -9.87268295908496, 25.714515426125924 -9.636710836114679, 26.0621239742735 -9.019496659696287 M25.448721378604247 -10.108655082055241 C25.662228184058893 -9.72955212906208, 25.875734989513543 -9.350449176068919, 26.0621239742735 -9.019496659696287 M26.0621239742735 -9.019496659696287 C26.18969491952916 -8.754592862291952, 26.31726586478482 -8.489689064887616, 26.60448364880834 -7.893275190886684 M26.0621239742735 -9.019496659696287 C26.267298383289425 -8.593447609345636, 26.47247279230535 -8.167398558994986, 26.60448364880834 -7.893275190886684 M26.60448364880834 -7.893275190886684 C26.775318976933843 -7.471308627540317, 26.946154305059345 -7.049342064193949, 27.073571729970325 -6.734618561215508 M26.60448364880834 -7.893275190886684 C26.730537200894876 -7.581920480153304, 26.856590752981415 -7.270565769419924, 27.073571729970325 -6.734618561215508 M27.073571729970325 -6.734618561215508 C27.22940344618785 -6.2652782603805415, 27.385235162405372 -5.795937959545574, 27.46746063421488 -5.548287939305138 M27.073571729970325 -6.734618561215508 C27.178238487527832 -6.419378963835413, 27.28290524508534 -6.1041393664553185, 27.46746063421488 -5.548287939305138 M27.46746063421488 -5.548287939305138 C27.560106861193667 -5.194987722706254, 27.652753088172457 -4.8416875061073705, 27.78453178754556 -4.339158212148133 M27.46746063421488 -5.548287939305138 C27.545294172492113 -5.251474924585174, 27.623127710769346 -4.9546619098652105, 27.78453178754556 -4.339158212148133 M27.78453178754556 -4.339158212148133 C27.8612166632519 -3.945397582750308, 27.937901538958236 -3.551636953352483, 28.023482276581777 -3.1121979531509023 M27.78453178754556 -4.339158212148133 C27.839522049815344 -4.0567948375888365, 27.89451231208513 -3.7744314630295404, 28.023482276581777 -3.1121979531509023 M28.023482276581777 -3.1121979531509023 C28.05761344547418 -2.8474833471830765, 28.09174461436658 -2.5827687412152507, 28.183330202509367 -1.872449005199798 M28.023482276581777 -3.1121979531509023 C28.065331535691264 -2.7876233635686747, 28.107180794800747 -2.4630487739864466, 28.183330202509367 -1.872449005199798 M28.183330202509367 -1.872449005199798 C28.211996369815452 -1.425950310493715, 28.24066253712154 -0.9794516157876323, 28.263418715913414 -0.6250057626472757 M28.183330202509367 -1.872449005199798 C28.199511101796332 -1.6204184378185058, 28.215692001083294 -1.3683878704372137, 28.263418715913414 -0.6250057626472757 M28.263418715913414 -0.6250057626472757 C28.263418715913414 -0.3287376744327048, 28.263418715913414 -0.032469586218133895, 28.263418715913414 0.625005762647271 M28.263418715913414 -0.6250057626472757 C28.263418715913414 -0.29795812370142866, 28.263418715913414 0.029089515244418385, 28.263418715913414 0.625005762647271 M28.263418715913414 0.625005762647271 C28.23202869185618 1.1139307249100836, 28.200638667798945 1.602855687172896, 28.183330202509367 1.8724490051997846 M28.263418715913414 0.625005762647271 C28.237926789589327 1.0220630918574916, 28.21243486326524 1.4191204210677122, 28.183330202509367 1.8724490051997846 M28.183330202509367 1.8724490051997846 C28.119816915797536 2.365045514819675, 28.056303629085704 2.8576420244395657, 28.023482276581777 3.1121979531508885 M28.183330202509367 1.8724490051997846 C28.120798523616987 2.3574323584124017, 28.058266844724606 2.842415711625019, 28.023482276581777 3.1121979531508885 M28.023482276581777 3.1121979531508885 C27.934658315491145 3.5682902204004607, 27.845834354400512 4.024382487650033, 27.78453178754556 4.339158212148129 M28.023482276581777 3.1121979531508885 C27.975472550976864 3.3587177472730145, 27.927462825371954 3.605237541395141, 27.78453178754556 4.339158212148129 M27.78453178754556 4.339158212148129 C27.66508952402946 4.794643329539483, 27.545647260513363 5.250128446930837, 27.467460634214884 5.548287939305125 M27.78453178754556 4.339158212148129 C27.72109773907532 4.581059731455679, 27.657663690605077 4.82296125076323, 27.467460634214884 5.548287939305125 M27.467460634214884 5.548287939305125 C27.360594372536983 5.870152092652449, 27.253728110859086 6.192016245999773, 27.07357172997033 6.734618561215495 M27.467460634214884 5.548287939305125 C27.35767665960352 5.8789397791336215, 27.247892684992156 6.2095916189621185, 27.07357172997033 6.734618561215495 M27.07357172997033 6.734618561215495 C26.915939907261222 7.123972210910956, 26.758308084552116 7.513325860606417, 26.604483648808344 7.893275190886679 M27.07357172997033 6.734618561215495 C26.908418973701004 7.1425490622120495, 26.74326621743168 7.550479563208604, 26.604483648808344 7.893275190886679 M26.604483648808344 7.893275190886679 C26.46564339572848 8.18157994711253, 26.32680314264862 8.469884703338382, 26.062123974273504 9.019496659696284 M26.604483648808344 7.893275190886679 C26.414259287393882 8.288280147513115, 26.224034925979424 8.68328510413955, 26.062123974273504 9.019496659696284 M26.062123974273504 9.019496659696284 C25.907810406022243 9.293496026069604, 25.75349683777098 9.567495392442924, 25.44872137860425 10.108655082055236 M26.062123974273504 9.019496659696284 C25.821896472745173 9.44604491433215, 25.581668971216843 9.872593168968017, 25.44872137860425 10.108655082055236 M25.44872137860425 10.108655082055236 C25.292144743546825 10.349198840217053, 25.135568108489394 10.58974259837887, 24.76679646464064 11.156274872382301 M25.44872137860425 10.108655082055236 C25.259279567949463 10.399688575469936, 25.069837757294675 10.690722068884636, 24.76679646464064 11.156274872382301 M24.76679646464064 11.156274872382301 C24.57375044604232 11.414938950449962, 24.380704427444 11.67360302851762, 24.019151408126582 12.158051136245302 M24.76679646464064 11.156274872382301 C24.58560105793892 11.399060210121473, 24.404405651237198 11.641845547860646, 24.019151408126582 12.158051136245302 M24.019151408126582 12.158051136245302 C23.72072482400589 12.50859998290715, 23.4222982398852 12.859148829568998, 23.20885844296866 13.10986736009567 M24.019151408126582 12.158051136245302 C23.79739235453615 12.418541939040237, 23.575633300945718 12.679032741835172, 23.20885844296866 13.10986736009567 M23.20885844296866 13.10986736009567 C23.033271809406042 13.291174975179787, 22.857685175843425 13.472482590263905, 22.33924723676799 14.007812326905684 M23.20885844296866 13.10986736009567 C22.974267368973223 13.352101904281325, 22.73967629497779 13.594336448466978, 22.33924723676799 14.007812326905684 M22.33924723676799 14.007812326905684 C22.128182582632515 14.199495661326791, 21.917117928497046 14.391178995747898, 21.413891208501887 14.848196188198111 M22.33924723676799 14.007812326905684 C22.00388111771418 14.312382962929085, 21.668514998660374 14.616953598952486, 21.413891208501887 14.848196188198111 M21.413891208501887 14.848196188198111 C21.134169143699875 15.071267091160957, 20.85444707889786 15.294337994123802, 20.436592844578715 15.627565626425152 M21.413891208501887 14.848196188198111 C21.11759933562965 15.08448107215585, 20.82130746275741 15.320765956113586, 20.436592844578715 15.627565626425152 M20.436592844578715 15.627565626425152 C20.14479217437422 15.831113142112386, 19.852991504169722 16.03466065779962, 19.411368073605708 16.34271804539089 M20.436592844578715 15.627565626425152 C20.138539079702507 15.835475030263266, 19.840485314826296 16.04338443410138, 19.411368073605708 16.34271804539089 M19.411368073605708 16.34271804539089 C18.99196701926163 16.596961429208438, 18.572565964917555 16.851204813025987, 18.342429764076787 16.990714730406093 M19.411368073605708 16.34271804539089 C19.0060740587226 16.588409658985032, 18.600780043839492 16.834101272579176, 18.342429764076787 16.990714730406093 M18.342429764076787 16.990714730406093 C18.007279572613406 17.165562370618595, 17.67212938115003 17.340410010831096, 17.234170412792388 17.56889292409717 M18.342429764076787 16.990714730406093 C18.120478245750128 17.10650669535038, 17.898526727423466 17.222298660294665, 17.234170412792388 17.56889292409717 M17.234170412792388 17.56889292409717 C16.935701968183583 17.701016050773653, 16.637233523574775 17.83313917745014, 16.091144095147804 18.07487676824742 M17.234170412792388 17.56889292409717 C16.978076551183936 17.68225807987674, 16.721982689575484 17.79562323565631, 16.091144095147804 18.07487676824742 M16.091144095147804 18.07487676824742 C15.806865290713025 18.17949399612388, 15.522586486278248 18.28411122400034, 14.918047751460616 18.506587066708033 M16.091144095147804 18.07487676824742 C15.659451940123128 18.23374347181504, 15.227759785098453 18.392610175382654, 14.918047751460616 18.506587066708033 M14.918047751460616 18.506587066708033 C14.602592389321675 18.600212562331887, 14.287137027182736 18.693838057955737, 13.719701886235413 18.86224982926107 M14.918047751460616 18.506587066708033 C14.622409764293703 18.59433086946371, 14.326771777126792 18.68207467221939, 13.719701886235413 18.86224982926107 M13.719701886235413 18.86224982926107 C13.339857706935303 18.948946784471403, 12.960013527635194 19.035643739681735, 12.501030759676766 19.140403561325773 M13.719701886235413 18.86224982926107 C13.444161735541895 18.925140070589343, 13.16862158484838 18.98803031191762, 12.501030759676766 19.140403561325773 M12.501030759676766 19.140403561325773 C12.053265452395616 19.21279478373517, 11.605500145114467 19.285186006144567, 11.267042152847878 19.3399052695533 M12.501030759676766 19.140403561325773 C12.060046350809092 19.211698500666333, 11.61906194194142 19.28299344000689, 11.267042152847878 19.3399052695533 M11.267042152847878 19.3399052695533 C10.982975497033333 19.36730883819959, 10.698908841218788 19.394712406845883, 10.0228067896239 19.45993515863156 M11.267042152847878 19.3399052695533 C10.934069669032997 19.37202672460892, 10.601097185218118 19.40414817966454, 10.0228067896239 19.45993515863156 M10.0228067896239 19.45993515863156 C9.58941327372121 19.473833245137254, 9.15601975781852 19.48773133164295, 8.773437500000004 19.5 M10.0228067896239 19.45993515863156 C9.616538847461957 19.472963380784115, 9.210270905300014 19.48599160293667, 8.773437500000004 19.5 M8.773437500000004 19.5 C8.773437500000004 19.5, 8.773437500000002 19.5, 8.7734375 19.5 M8.773437500000004 19.5 C8.773437500000002 19.5, 8.773437500000002 19.5, 8.7734375 19.5 M8.7734375 19.5 C4.587315683834362 19.5, 0.40119386766872367 19.5, -8.773437499999996 19.5 M8.7734375 19.5 C1.8882344302176417 19.5, -4.996968639564717 19.5, -8.773437499999996 19.5 M-8.773437499999996 19.5 C-9.212128093266152 19.485932046533392, -9.650818686532308 19.471864093066788, -10.022806789623893 19.45993515863156 M-8.773437499999996 19.5 C-9.113380667372093 19.48909868428161, -9.45332383474419 19.478197368563222, -10.022806789623893 19.45993515863156 M-10.022806789623893 19.45993515863156 C-10.278430880709633 19.435275409997466, -10.534054971795376 19.410615661363373, -11.267042152847871 19.3399052695533 M-10.022806789623893 19.45993515863156 C-10.345931120852516 19.4287637430118, -10.669055452081139 19.397592327392037, -11.267042152847871 19.3399052695533 M-11.267042152847871 19.3399052695533 C-11.637798539630966 19.27996425219693, -12.00855492641406 19.22002323484056, -12.501030759676759 19.140403561325773 M-11.267042152847871 19.3399052695533 C-11.584939809470939 19.288510041763626, -11.902837466094006 19.237114813973957, -12.501030759676759 19.140403561325773 M-12.501030759676759 19.140403561325773 C-12.944087008938485 19.039278863644007, -13.387143258200213 18.938154165962246, -13.719701886235388 18.862249829261074 M-12.501030759676759 19.140403561325773 C-12.7447874656638 19.084767683845392, -12.98854417165084 19.02913180636501, -13.719701886235388 18.862249829261074 M-13.719701886235388 18.862249829261074 C-14.008386596239879 18.776569722668707, -14.29707130624437 18.69088961607634, -14.918047751460593 18.506587066708043 M-13.719701886235388 18.862249829261074 C-14.060278803815917 18.761168387847896, -14.400855721396445 18.660086946434717, -14.918047751460593 18.506587066708043 M-14.918047751460593 18.506587066708043 C-15.254696213246776 18.382697320826463, -15.591344675032959 18.25880757494488, -16.091144095147797 18.074876768247425 M-14.918047751460593 18.506587066708043 C-15.378929227677382 18.3369784231186, -15.839810703894171 18.16736977952916, -16.091144095147797 18.074876768247425 M-16.091144095147797 18.074876768247425 C-16.439511941249602 17.920664656743146, -16.787879787351404 17.766452545238863, -17.23417041279238 17.568892924097174 M-16.091144095147797 18.074876768247425 C-16.424538976849743 17.927292743925754, -16.757933858551688 17.77970871960408, -17.23417041279238 17.568892924097174 M-17.23417041279238 17.568892924097174 C-17.619643586124408 17.367791816477208, -18.005116759456435 17.16669070885724, -18.34242976407678 16.990714730406097 M-17.23417041279238 17.568892924097174 C-17.569450633799367 17.39397744755506, -17.904730854806353 17.219061971012948, -18.34242976407678 16.990714730406097 M-18.34242976407678 16.990714730406097 C-18.637767468284284 16.811679278518508, -18.93310517249179 16.632643826630922, -19.411368073605686 16.3427180453909 M-18.34242976407678 16.990714730406097 C-18.678810532172648 16.786798731993567, -19.015191300268512 16.58288273358104, -19.411368073605686 16.3427180453909 M-19.411368073605686 16.3427180453909 C-19.691584078699496 16.14725149059281, -19.971800083793305 15.951784935794727, -20.436592844578712 15.627565626425156 M-19.411368073605686 16.3427180453909 C-19.643427021724577 16.18084376885312, -19.875485969843467 16.01896949231534, -20.436592844578712 15.627565626425156 M-20.436592844578712 15.627565626425156 C-20.77255970876507 15.359640992690267, -21.108526572951426 15.091716358955377, -21.41389120850187 14.848196188198125 M-20.436592844578712 15.627565626425156 C-20.76035355288017 15.369375077189025, -21.08411426118163 15.111184527952892, -21.41389120850187 14.848196188198125 M-21.41389120850187 14.848196188198125 C-21.71928575939117 14.57084493737749, -22.024680310280473 14.293493686556857, -22.339247236767974 14.007812326905697 M-21.41389120850187 14.848196188198125 C-21.628880660130314 14.652948456538352, -21.843870111758758 14.45770072487858, -22.339247236767974 14.007812326905697 M-22.339247236767974 14.007812326905697 C-22.549349379250593 13.790864615085695, -22.75945152173321 13.573916903265694, -23.208858442968655 13.109867360095677 M-22.339247236767974 14.007812326905697 C-22.560362208221118 13.779492965003556, -22.78147717967426 13.551173603101414, -23.208858442968655 13.109867360095677 M-23.208858442968655 13.109867360095677 C-23.52936329004432 12.733384129478162, -23.849868137119987 12.356900898860648, -24.01915140812658 12.158051136245307 M-23.208858442968655 13.109867360095677 C-23.51007690873977 12.756039010384672, -23.811295374510888 12.402210660673665, -24.01915140812658 12.158051136245307 M-24.01915140812658 12.158051136245307 C-24.30224350707719 11.77873351387226, -24.5853356060278 11.39941589149921, -24.766796464640635 11.156274872382316 M-24.01915140812658 12.158051136245307 C-24.211710198443598 11.900039899687181, -24.40426898876062 11.642028663129055, -24.766796464640635 11.156274872382316 M-24.766796464640635 11.156274872382316 C-24.949083902824245 10.876232416301347, -25.131371341007856 10.596189960220377, -25.448721378604244 10.108655082055249 M-24.766796464640635 11.156274872382316 C-25.02444175694418 10.760462515955929, -25.28208704924773 10.364650159529543, -25.448721378604244 10.108655082055249 M-25.448721378604244 10.108655082055249 C-25.64205349988137 9.765374323727572, -25.835385621158498 9.422093565399898, -26.0621239742735 9.019496659696289 M-25.448721378604244 10.108655082055249 C-25.653623304521275 9.744830964019664, -25.858525230438307 9.381006845984079, -26.0621239742735 9.019496659696289 M-26.0621239742735 9.019496659696289 C-26.278709786906216 8.569751585570446, -26.495295599538935 8.120006511444604, -26.60448364880834 7.893275190886686 M-26.0621239742735 9.019496659696289 C-26.219489593675704 8.692723583922758, -26.376855213077903 8.365950508149227, -26.60448364880834 7.893275190886686 M-26.60448364880834 7.893275190886686 C-26.766486102771076 7.493125997494364, -26.928488556733807 7.092976804102041, -27.073571729970325 6.73461856121551 M-26.60448364880834 7.893275190886686 C-26.721131577340177 7.605152552178774, -26.837779505872014 7.317029913470863, -27.073571729970325 6.73461856121551 M-27.073571729970325 6.73461856121551 C-27.230634802374748 6.261569611735568, -27.387697874779168 5.788520662255626, -27.46746063421488 5.5482879393051325 M-27.073571729970325 6.73461856121551 C-27.18483127761879 6.3995225304998975, -27.296090825267257 6.064426499784286, -27.46746063421488 5.5482879393051325 M-27.46746063421488 5.5482879393051325 C-27.589385592948183 5.08333522904367, -27.711310551681485 4.618382518782208, -27.784531787545557 4.339158212148136 M-27.46746063421488 5.5482879393051325 C-27.592677745224627 5.070780825585767, -27.717894856234373 4.593273711866401, -27.784531787545557 4.339158212148136 M-27.784531787545557 4.339158212148136 C-27.861394910643035 3.944482320069409, -27.938258033740514 3.5498064279906822, -28.023482276581777 3.112197953150904 M-27.784531787545557 4.339158212148136 C-27.8488455534122 4.008920617142155, -27.913159319278844 3.678683022136175, -28.023482276581777 3.112197953150904 M-28.023482276581777 3.112197953150904 C-28.085607057980624 2.630370416547137, -28.147731839379468 2.1485428799433697, -28.183330202509364 1.872449005199809 M-28.023482276581777 3.112197953150904 C-28.07035794671209 2.7486395122682565, -28.117233616842405 2.385081071385609, -28.183330202509364 1.872449005199809 M-28.183330202509364 1.872449005199809 C-28.214155471543485 1.3923205582840383, -28.244980740577606 0.9121921113682674, -28.263418715913414 0.6250057626472781 M-28.183330202509364 1.872449005199809 C-28.20971713609204 1.4614512155002057, -28.236104069674717 1.0504534258006024, -28.263418715913414 0.6250057626472781 M-28.263418715913414 0.6250057626472781 C-28.263418715913414 0.28144479050176596, -28.263418715913414 -0.062116181643746216, -28.263418715913414 -0.6250057626472687 M-28.263418715913414 0.6250057626472781 C-28.263418715913414 0.1586805942211731, -28.263418715913414 -0.30764457420493196, -28.263418715913414 -0.6250057626472687 M-28.263418715913414 -0.6250057626472687 C-28.2473054913259 -0.8759822419585799, -28.231192266738386 -1.126958721269891, -28.183330202509367 -1.8724490051997822 M-28.263418715913414 -0.6250057626472687 C-28.23475846899137 -1.0714122425930288, -28.20609822206933 -1.517818722538789, -28.183330202509367 -1.8724490051997822 M-28.183330202509367 -1.8724490051997822 C-28.12484956648442 -2.326013269901489, -28.066368930459472 -2.7795775346031957, -28.023482276581777 -3.112197953150895 M-28.183330202509367 -1.8724490051997822 C-28.14593404931856 -2.162486184641984, -28.10853789612775 -2.4525233640841853, -28.023482276581777 -3.112197953150895 M-28.023482276581777 -3.112197953150895 C-27.931225473858554 -3.5859171366524842, -27.83896867113533 -4.059636320154073, -27.78453178754556 -4.339158212148126 M-28.023482276581777 -3.112197953150895 C-27.93079420362658 -3.588131618144688, -27.838106130671378 -4.064065283138481, -27.78453178754556 -4.339158212148126 M-27.78453178754556 -4.339158212148126 C-27.667419489686292 -4.785758160676481, -27.550307191827024 -5.232358109204836, -27.467460634214884 -5.548287939305123 M-27.78453178754556 -4.339158212148126 C-27.695009128031767 -4.680546912240281, -27.605486468517977 -5.021935612332437, -27.467460634214884 -5.548287939305123 M-27.467460634214884 -5.548287939305123 C-27.351327816805206 -5.898061482091415, -27.235194999395524 -6.247835024877707, -27.073571729970332 -6.734618561215485 M-27.467460634214884 -5.548287939305123 C-27.361267602447068 -5.868124431427893, -27.255074570679252 -6.187960923550663, -27.073571729970332 -6.734618561215485 M-27.073571729970332 -6.734618561215485 C-26.921703311822256 -7.1097364902173545, -26.76983489367418 -7.484854419219223, -26.604483648808344 -7.893275190886676 M-27.073571729970332 -6.734618561215485 C-26.95783920136708 -7.0204801444017475, -26.842106672763823 -7.30634172758801, -26.604483648808344 -7.893275190886676 M-26.604483648808344 -7.893275190886676 C-26.416069947114043 -8.284520273862293, -26.227656245419738 -8.67576535683791, -26.062123974273504 -9.019496659696282 M-26.604483648808344 -7.893275190886676 C-26.454800039349482 -8.204096408644178, -26.305116429890624 -8.514917626401681, -26.062123974273504 -9.019496659696282 M-26.062123974273504 -9.019496659696282 C-25.827610395212336 -9.435899266394312, -25.593096816151167 -9.852301873092344, -25.448721378604247 -10.108655082055243 M-26.062123974273504 -9.019496659696282 C-25.9141083463474 -9.28231339528667, -25.7660927184213 -9.545130130877057, -25.448721378604247 -10.108655082055243 M-25.448721378604247 -10.108655082055243 C-25.201780756257477 -10.488022190821654, -24.95484013391071 -10.867389299588066, -24.76679646464064 -11.156274872382308 M-25.448721378604247 -10.108655082055243 C-25.24987090083751 -10.414142814734774, -25.051020423070774 -10.719630547414305, -24.76679646464064 -11.156274872382308 M-24.76679646464064 -11.156274872382308 C-24.615302175052793 -11.35926341901632, -24.46380788546495 -11.562251965650331, -24.019151408126586 -12.158051136245302 M-24.76679646464064 -11.156274872382308 C-24.524535500669067 -11.48088249367637, -24.282274536697493 -11.805490114970432, -24.019151408126586 -12.158051136245302 M-24.019151408126586 -12.158051136245302 C-23.798983473362284 -12.41667292032984, -23.578815538597983 -12.675294704414377, -23.208858442968662 -13.10986736009567 M-24.019151408126586 -12.158051136245302 C-23.835864145339265 -12.373350784455992, -23.652576882551944 -12.588650432666684, -23.208858442968662 -13.10986736009567 M-23.208858442968662 -13.10986736009567 C-22.968705729251884 -13.357844753912724, -22.728553015535105 -13.605822147729778, -22.339247236767996 -14.007812326905677 M-23.208858442968662 -13.10986736009567 C-22.982752414987893 -13.343340397635949, -22.756646387007123 -13.576813435176225, -22.339247236767996 -14.007812326905677 M-22.339247236767996 -14.007812326905677 C-21.99184559828606 -14.32331330323131, -21.64444395980412 -14.638814279556943, -21.413891208501887 -14.848196188198107 M-22.339247236767996 -14.007812326905677 C-22.052506922188126 -14.268222293874132, -21.765766607608256 -14.528632260842585, -21.413891208501887 -14.848196188198107 M-21.413891208501887 -14.848196188198107 C-21.076453159199854 -15.117294052912868, -20.73901510989782 -15.386391917627629, -20.43659284457872 -15.627565626425149 M-21.413891208501887 -14.848196188198107 C-21.10808455241995 -15.092068858566568, -20.802277896338012 -15.335941528935027, -20.43659284457872 -15.627565626425149 M-20.43659284457872 -15.627565626425149 C-20.056306989318365 -15.892836576745422, -19.676021134058015 -16.158107527065695, -19.41136807360571 -16.342718045390885 M-20.43659284457872 -15.627565626425149 C-20.22213981507821 -15.77715877628268, -20.007686785577704 -15.926751926140213, -19.41136807360571 -16.342718045390885 M-19.41136807360571 -16.342718045390885 C-19.059317498344818 -16.556133172992862, -18.70726692308392 -16.76954830059484, -18.34242976407679 -16.99071473040609 M-19.41136807360571 -16.342718045390885 C-19.136682509314454 -16.5092340486958, -18.861996945023197 -16.675750052000712, -18.34242976407679 -16.99071473040609 M-18.34242976407679 -16.99071473040609 C-18.021006900116994 -17.158400832652745, -17.6995840361572 -17.3260869348994, -17.234170412792388 -17.56889292409717 M-18.34242976407679 -16.99071473040609 C-17.910676741966732 -17.215960005489897, -17.478923719856677 -17.441205280573705, -17.234170412792388 -17.56889292409717 M-17.234170412792388 -17.56889292409717 C-16.991101860332193 -17.676492161898874, -16.748033307872003 -17.78409139970058, -16.091144095147804 -18.07487676824742 M-17.234170412792388 -17.56889292409717 C-16.793970615294466 -17.763756316386463, -16.353770817796544 -17.95861970867575, -16.091144095147804 -18.07487676824742 M-16.091144095147804 -18.07487676824742 C-15.702923528741666 -18.217745525356456, -15.314702962335529 -18.36061428246549, -14.918047751460618 -18.506587066708033 M-16.091144095147804 -18.07487676824742 C-15.670460838816272 -18.229692095330815, -15.249777582484741 -18.384507422414213, -14.918047751460618 -18.506587066708033 M-14.918047751460618 -18.506587066708033 C-14.499030073766031 -18.630949313979112, -14.080012396071444 -18.755311561250192, -13.719701886235413 -18.862249829261067 M-14.918047751460618 -18.506587066708033 C-14.644804139218703 -18.587684336536444, -14.371560526976788 -18.668781606364856, -13.719701886235413 -18.862249829261067 M-13.719701886235413 -18.862249829261067 C-13.40660920259283 -18.933711191181786, -13.093516518950246 -19.005172553102508, -12.501030759676768 -19.140403561325773 M-13.719701886235413 -18.862249829261067 C-13.362371636323552 -18.943808127005653, -13.005041386411689 -19.025366424750235, -12.501030759676768 -19.140403561325773 M-12.501030759676768 -19.140403561325773 C-12.100605401640815 -19.205141227867998, -11.70018004360486 -19.26987889441022, -11.26704215284788 -19.3399052695533 M-12.501030759676768 -19.140403561325773 C-12.25347141648432 -19.18042703608175, -12.005912073291872 -19.220450510837725, -11.26704215284788 -19.3399052695533 M-11.26704215284788 -19.3399052695533 C-10.892216557402381 -19.376064243952193, -10.517390961956883 -19.41222321835109, -10.022806789623903 -19.45993515863156 M-11.26704215284788 -19.3399052695533 C-10.93692267983319 -19.371751498088273, -10.606803206818498 -19.403597726623246, -10.022806789623903 -19.45993515863156 M-10.022806789623903 -19.45993515863156 C-9.630575154516896 -19.47251326373688, -9.238343519409888 -19.485091368842195, -8.773437500000005 -19.5 M-10.022806789623903 -19.45993515863156 C-9.681724600414444 -19.4708730005633, -9.340642411204987 -19.48181084249504, -8.773437500000005 -19.5 M-8.773437500000005 -19.5 C-8.773437500000004 -19.5, -8.773437500000002 -19.5, -8.7734375 -19.5 M-8.773437500000005 -19.5 C-8.773437500000004 -19.5, -8.773437500000004 -19.5, -8.7734375 -19.5" stroke="#0e5aa7" stroke-width="2" fill="none" stroke-dasharray="0 0" style="fill:#1168bd !important;stroke:#0e5aa7 !important;stroke-width:2px !important"/></g><g class="label" style="color:#fff !important" transform="translate(-15.8984375, -12)"><rect/><foreignObject width="31.796875" height="24"><div style="color: rgb(255, 255, 255) !important; display: table-cell; white-space: nowrap; line-height: 1.5; max-width: 200px; text-align: center;" xmlns="http://www.w3.org/1999/xhtml"><span style="color:#fff !important" class="nodeLabel"><p>User</p></span></div></foreignObject></g></g><g class="node default public" id="flowchart-API-1" transform="translate(313.64453125, 423)"><rect class="basic label-container" style="fill:#1168bd !important;stroke:#0e5aa7 !important;stroke-width:2px !important" x="-111.984375" y="-63" width="223.96875" height="126"/><g class="label" style="color:#fff !important" transform="translate(-81.984375, -48)"><rect/><foreignObject width="163.96875" height="96"><div style="color: rgb(255, 255, 255) !important; display: table-cell; white-space: nowrap; line-height: 1.5; max-width: 200px; text-align: center;" xmlns="http://www.w3.org/1999/xhtml"><span style="color:#fff !important" class="nodeLabel"><p>Public API<br />:start :stop :toggle<br />:openSettings ＊new＊<br />:bindHotkeys</p></span></div></foreignObject></g></g><g class="node default internal" id="flowchart-Watcher-2" transform="translate(313.64453125, 708)"><rect class="basic label-container" style="fill:#438dd5 !important;stroke:#2e6da4 !important;stroke-width:1.5px !important" x="-96.078125" y="-39" width="192.15625" height="78"/><g class="label" style="color:#fff !important" transform="translate(-66.078125, -24)"><rect/><foreignObject width="132.15625" height="48"><div style="color: rgb(255, 255, 255) !important; display: table-cell; white-space: nowrap; line-height: 1.5; max-width: 200px; text-align: center;" xmlns="http://www.w3.org/1999/xhtml"><span style="color:#fff !important" class="nodeLabel"><p>Watcher<br />hs.spaces.watcher</p></span></div></foreignObject></g></g><g class="node default internal" id="flowchart-SyncEng-3" transform="translate(402.5234375, 1045.2132415771484)"><rect class="basic label-container" style="fill:#438dd5 !important;stroke:#2e6da4 !important;stroke-width:1.5px !important" x="-97.0234375" y="-51" width="194.046875" height="102"/><g class="label" style="color:#fff !important" transform="translate(-67.0234375, -36)"><rect/><foreignObject width="134.046875" height="72"><div style="color: rgb(255, 255, 255) !important; display: table-cell; white-space: nowrap; line-height: 1.5; max-width: 200px; text-align: center;" xmlns="http://www.w3.org/1999/xhtml"><span style="color:#fff !important" class="nodeLabel"><p>Sync Engine<br />chained gotoSpace<br />+ debounce</p></span></div></foreignObject></g></g><g class="node default internal" id="flowchart-PosMap-4" transform="translate(151.71875, 1539.7719421386719)"><rect class="basic label-container" style="fill:#438dd5 !important;stroke:#2e6da4 !important;stroke-width:1.5px !important" x="-88.71875" y="-39" width="177.4375" height="78"/><g class="label" style="color:#fff !important" transform="translate(-58.71875, -24)"><rect/><foreignObject width="117.4375" height="48"><div style="color: rgb(255, 255, 255) !important; display: table-cell; white-space: nowrap; line-height: 1.5; max-width: 200px; text-align: center;" xmlns="http://www.w3.org/1999/xhtml"><span style="color:#fff !important" class="nodeLabel"><p>Position Map<br />UUID ↔ position</p></span></div></foreignObject></g></g><g class="node default internal" id="flowchart-GroupLook-5" transform="translate(151.71875, 1324.5992126464844)"><rect class="basic label-container" style="fill:#438dd5 !important;stroke:#2e6da4 !important;stroke-width:1.5px !important" x="-79.5546875" y="-39" width="159.109375" height="78"/><g class="label" style="color:#fff !important" transform="translate(-49.5546875, -24)"><rect/><foreignObject width="99.109375" height="48"><div style="color: rgb(255, 255, 255) !important; display: table-cell; white-space: nowrap; line-height: 1.5; max-width: 200px; text-align: center;" xmlns="http://www.w3.org/1999/xhtml"><span style="color:#fff !important" class="nodeLabel"><p>Group Lookup<br />getTargetsFor</p></span></div></foreignObject></g></g><g class="node default internal" id="flowchart-Names-6" transform="translate(642.390625, 1045.2132415771484)"><rect class="basic label-container" style="fill:#438dd5 !important;stroke:#2e6da4 !important;stroke-width:1.5px !important" x="-92.84375" y="-51" width="185.6875" height="102"/><g class="label" style="color:#fff !important" transform="translate(-62.84375, -36)"><rect/><foreignObject width="125.6875" height="72"><div style="color: rgb(255, 255, 255) !important; display: table-cell; white-space: nowrap; line-height: 1.5; max-width: 200px; text-align: center;" xmlns="http://www.w3.org/1999/xhtml"><span style="color:#fff !important" class="nodeLabel"><p>Name Store<br />per-group<br />workspace names</p></span></div></foreignObject></g></g><g class="node default internal" id="flowchart-UI-7" transform="translate(406.75, 1324.5992126464844)"><rect class="basic label-container" style="fill:#438dd5 !important;stroke:#2e6da4 !important;stroke-width:1.5px !important" x="-105.4765625" y="-51" width="210.953125" height="102"/><g class="label" style="color:#fff !important" transform="translate(-75.4765625, -36)"><rect/><foreignObject width="150.953125" height="72"><div style="color: rgb(255, 255, 255) !important; display: table-cell; white-space: nowrap; line-height: 1.5; max-width: 200px; text-align: center;" xmlns="http://www.w3.org/1999/xhtml"><span style="color:#fff !important" class="nodeLabel"><p>Popup / Picker /<br />Status HUD<br />hs.canvas + eventtap</p></span></div></foreignObject></g></g><g class="node default proposed" id="flowchart-ConfigMod-8" transform="translate(1095.640625, 708)"><rect class="basic label-container" style="fill:#2e7d32 !important;stroke:#4caf50 !important;stroke-width:2px !important;stroke-dasharray:4 2 !important" x="-111.8125" y="-75" width="223.625" height="150"/><g class="label" style="color:#fff !important" transform="translate(-81.8125, -60)"><rect/><foreignObject width="163.625" height="120"><div style="color: rgb(255, 255, 255) !important; display: table-cell; white-space: nowrap; line-height: 1.5; max-width: 200px; text-align: center;" xmlns="http://www.w3.org/1999/xhtml"><span style="color:#fff !important" class="nodeLabel"><p>Config Module<br />config.lua<br />load / save / validate<br />pathwatcher<br />groupOf ↔ syncGroups</p></span></div></foreignObject></g></g><g class="node default proposed" id="flowchart-SettingsPane-9" transform="translate(1030.07421875, 423)"><rect class="basic label-container" style="fill:#2e7d32 !important;stroke:#4caf50 !important;stroke-width:2px !important;stroke-dasharray:4 2 !important" x="-110.4921875" y="-51" width="220.984375" height="102"/><g class="label" style="color:#fff !important" transform="translate(-80.4921875, -36)"><rect/><foreignObject width="160.984375" height="72"><div style="color: rgb(255, 255, 255) !important; display: table-cell; white-space: nowrap; line-height: 1.5; max-width: 200px; text-align: center;" xmlns="http://www.w3.org/1999/xhtml"><span style="color:#fff !important" class="nodeLabel"><p>Settings Pane<br />hs.webview<br />HTML form + JS bridge</p></span></div></foreignObject></g></g><g class="node default config" id="flowchart-JSON-10" transform="translate(1605.09765625, 1045.2132415771484)"><path d="M0,15.808823529411764 a107.5,15.808823529411764 0,0,0 215,0 a107.5,15.808823529411764 0,0,0 -215,0 l0,198.80882352941177 a107.5,15.808823529411764 0,0,0 215,0 l0,-198.80882352941177" class="basic label-container" style="fill:#5a4a1e !important;stroke:#d4a853 !important;stroke-width:1.5px !important" transform="translate(-107.5, -115.21323529411765)"/><g class="label" style="color:#fff !important" transform="translate(-100, -74)"><rect/><foreignObject width="200" height="168"><div style="color: rgb(255, 255, 255) !important; display: table; white-space: break-spaces; line-height: 1.5; max-width: 200px; text-align: center; width: 200px;" xmlns="http://www.w3.org/1999/xhtml"><span style="color:#fff !important" class="nodeLabel"><p>SpacesSync.json<br />~/.hammerspoon/<br /><br />＊new＊ canonical config<br />enabled, syncMode, groupOf,<br />_lastSeen, timing, hotkeys</p></span></div></foreignObject></g></g><g class="node default store" id="flowchart-Plist-11" transform="translate(1593.16796875, 1324.5992126464844)"><path d="M0,15.115158404586568 a95.5703125,15.115158404586568 0,0,0 191.140625,0 a95.5703125,15.115158404586568 0,0,0 -191.140625,0 l0,150.11515840458657 a95.5703125,15.115158404586568 0,0,0 191.140625,0 l0,-150.11515840458657" class="basic label-container" style="fill:#3a2d52 !important;stroke:#7b5fb0 !important;stroke-width:1.5px !important" transform="translate(-95.5703125, -90.17273760687985)"/><g class="label" style="color:#fff !important" transform="translate(-88.0703125, -50)"><rect/><foreignObject width="176.140625" height="120"><div style="color: rgb(255, 255, 255) !important; display: table-cell; white-space: nowrap; line-height: 1.5; max-width: 200px; text-align: center;" xmlns="http://www.w3.org/1999/xhtml"><span style="color:#fff !important" class="nodeLabel"><p>hs.settings plist<br /><br />workspace names<br />＊migrated atomically＊<br />on groupOf change</p></span></div></foreignObject></g></g><g class="node default external" id="flowchart-HSAPIs-12" transform="translate(1611.27734375, 1539.7719421386719)"><rect class="basic label-container" style="fill:#999 !important;stroke:#666 !important;stroke-width:1.5px !important" x="-113.6796875" y="-75" width="227.359375" height="150"/><g class="label" style="color:#fff !important" transform="translate(-83.6796875, -60)"><rect/><foreignObject width="167.359375" height="120"><div style="color: rgb(255, 255, 255) !important; display: table-cell; white-space: nowrap; line-height: 1.5; max-width: 200px; text-align: center;" xmlns="http://www.w3.org/1999/xhtml"><span style="color:#fff !important" class="nodeLabel"><p>Hammerspoon APIs<br />hs.spaces hs.screen<br />hs.canvas hs.webview<br />hs.pathwatcher hs.json<br />hs.shutdownCallback</p></span></div></foreignObject></g></g><g class="node default proposed" id="flowchart-Shutdown-13" transform="translate(1880.83984375, 1045.2132415771484)"><rect class="basic label-container" style="fill:#2e7d32 !important;stroke:#4caf50 !important;stroke-width:2px !important;stroke-dasharray:4 2 !important" x="-118.2421875" y="-75" width="236.484375" height="150"/><g class="label" style="color:#fff !important" transform="translate(-88.2421875, -60)"><rect/><foreignObject width="176.484375" height="120"><div style="color: rgb(255, 255, 255) !important; display: table-cell; white-space: nowrap; line-height: 1.5; max-width: 200px; text-align: center;" xmlns="http://www.w3.org/1999/xhtml"><span style="color:#fff !important" class="nodeLabel"><p>hs.shutdownCallback<br />＊new＊ teardown<br />delete webview<br />unsubscribe userContent<br />stop pathwatcher</p></span></div></foreignObject></g></g></g></g></g><text text-anchor="middle" x="1003.541015625" y="-25" class="flowchartTitleText">SpacesSync — C4 Level 3 (Component) — roadmap with config layer + settings pane</text></svg>